<svg width="30" height="44" viewBox="0 0 30 44" fill="none" xmlns="http://www.w3.org/2000/svg">
<path opacity="0.1" d="M30 28.6C30 18.8798 15.0009 0 15.0009 0C15.0009 0 0 18.8798 0 28.6C0 38.3202 6.71662 44 15.0009 44C23.2852 44 30 38.3202 30 28.6Z" fill="#023432"/>
<mask id="mask0_4136_6587" style="mask-type:alpha" maskUnits="userSpaceOnUse" x="0" y="0" width="30" height="44">
<path d="M30 28.6C30 18.8798 15.0009 0 15.0009 0C15.0009 0 0 18.8798 0 28.6C0 38.3202 6.71662 44 15.0009 44C23.2852 44 30 38.3202 30 28.6Z" fill="#023432"/>
</mask>
<g mask="url(#mask0_4136_6587)">
<rect y="15" width="30" height="29" fill="#FF8736"/>
</g>
<path d="M8.66043 22.7356L11.8706 25.5155L7.72729 26.3641" stroke="#002923" stroke-width="2" stroke-linecap="round" stroke-linejoin="round"/>
<path d="M21.2102 22.7356L18 25.5155L22.1433 26.3641" stroke="#002923" stroke-width="2" stroke-linecap="round" stroke-linejoin="round"/>
<path d="M7 33L7.43808 31.8312C7.85662 30.7145 9.24532 30.7488 9.62163 31.8852L9.65665 31.9909C10.0299 33.1179 11.4183 33.1166 11.79 31.989C12.1628 30.858 13.5566 30.8611 13.9256 31.9937L13.9508 32.0712C14.3117 33.1789 15.669 33.2007 16.0566 32.105C16.4384 31.0257 17.769 31.0257 18.1509 32.105L18.1726 32.1664C18.5623 33.2681 19.9205 33.2681 20.3103 32.1664L20.3577 32.0322C20.7509 30.9209 22.1049 30.8711 22.5591 31.9513L23 33" stroke="#002923" stroke-width="2" stroke-linecap="round" stroke-linejoin="round"/>
</svg>
