<svg width="32" height="32" viewBox="0 0 32 32" fill="none" xmlns="http://www.w3.org/2000/svg">
<path d="M24 17.1111C24 24.2222 17.9556 26 14.9333 26C12.2889 26 7 24.2222 7 17.1111C7 14.3295 8.46147 12.4614 9.85995 11.3945C10.6384 10.8007 11.6304 11.392 11.7302 12.366L11.816 13.2038C11.9205 14.2241 12.8493 15.0606 13.7093 14.5017C15.3938 13.4071 16 10.7752 16 9.33334V9.00971C16 7.58 17.4437 6.65985 18.6022 7.49767C21.1653 9.35127 24 12.5843 24 17.1111Z" stroke="#00776F" stroke-width="2" stroke-linecap="round" stroke-linejoin="round"/>
<path d="M12 22.4444C12 25.2889 14.4889 26 15.7333 26C16.8222 26 19 25.2889 19 22.4444C19 21.3434 18.4107 20.6002 17.8404 20.1713C17.4425 19.872 16.8828 20.1407 16.7459 20.6195C16.5675 21.2437 15.9228 21.6359 15.5944 21.0759C15.2941 20.5638 15.2941 19.7956 15.2941 19.3333C15.2941 18.6968 14.6539 18.2847 14.1389 18.6589C13.1065 19.409 12 20.6814 12 22.4444Z" stroke="#00776F" stroke-width="2" stroke-linecap="round" stroke-linejoin="round"/>
</svg>
