<svg width="32" height="32" viewBox="0 0 32 32" fill="none" xmlns="http://www.w3.org/2000/svg">
<path d="M13.6563 11.6282C10.5204 10.7879 8.94848 9.48643 10.0488 5.37988C14.9767 6.7003 14.4265 8.75357 13.6563 11.6282ZM13.6563 11.6282L22.4566 26.8707M15.29 14.4713C12.7413 15.9428 10.8996 16.1161 8.97266 12.7786C12.9777 10.4663 13.9412 12.135 15.29 14.4713ZM17.7028 18.6061C15.1541 20.0776 13.3124 20.2509 11.3854 16.9134C15.3905 14.6011 16.3539 16.2699 17.7028 18.6061ZM20.1163 22.7411C17.5676 24.2125 15.7259 24.3859 13.799 21.0483C17.804 18.736 18.7675 20.4048 20.1163 22.7411ZM15.2956 14.4676C17.8443 12.9961 18.9153 11.4878 16.9883 8.15024C12.9833 10.4626 13.9468 12.1313 15.2956 14.4676ZM17.6975 18.6092C20.2461 17.1378 21.3171 15.6294 19.3902 12.2919C15.3851 14.6042 16.3486 16.273 17.6975 18.6092ZM20.111 22.7442C22.6596 21.2727 23.7306 19.7643 21.8037 16.4268C17.7987 18.7391 18.7621 20.4079 20.111 22.7442Z" stroke="#00776F" stroke-width="2" stroke-linecap="round"/>
</svg>
