<svg width="32" height="32" viewBox="0 0 32 32" fill="none" xmlns="http://www.w3.org/2000/svg">
<path d="M13.2887 12.5745L13.7993 13.4342L14.6383 12.936L14.1607 12.085L13.2887 12.5745ZM8.7168 11.3142L8.20614 10.4544L7.3672 10.9527L7.84475 11.8036L8.7168 11.3142ZM15.0354 15.6529L15.546 16.5127L16.385 16.0144L15.9074 15.1635L15.0354 15.6529ZM10.4635 14.3927L9.9528 13.5329L9.11386 14.0312L9.59141 14.8821L10.4635 14.3927ZM13.2848 12.5768L12.4128 13.0662L12.9143 13.9599L13.7955 13.4365L13.2848 12.5768ZM14.5099 7.87349L15.3819 7.38407L14.8803 6.49036L13.9992 7.0137L14.5099 7.87349ZM15.0315 15.6552L14.1594 16.1446L14.661 17.0383L15.5422 16.515L15.0315 15.6552ZM16.2565 10.9519L17.1286 10.4625L16.627 9.56881L15.7459 10.0922L16.2565 10.9519ZM9.19836 5.25951L9.4641 4.29547L8.4863 4.02594L8.23065 5.00746L9.19836 5.25951ZM15.8558 19.2148C16.1249 19.6971 16.7341 19.8698 17.2163 19.6007C17.6986 19.3316 17.8714 18.7224 17.6022 18.2402L16.729 18.7275L15.8558 19.2148ZM12.9896 20.5C13.5419 20.5 13.9896 20.0523 13.9896 19.5C13.9896 18.9477 13.5419 18.5 12.9896 18.5V19.5V20.5ZM9.28257 19.5V18.5C8.87811 18.5 8.51347 18.7436 8.35869 19.1173C8.20391 19.491 8.28947 19.9211 8.57546 20.2071L9.28257 19.5ZM16.2826 26.5L15.5755 27.2071C15.966 27.5976 16.5992 27.5976 16.9897 27.2071L16.2826 26.5ZM23.2826 19.5L23.9897 20.2071C24.2757 19.9211 24.3612 19.491 24.2064 19.1173C24.0517 18.7436 23.687 18.5 23.2826 18.5V19.5ZM19.8193 19.5H18.8193C18.8193 20.0523 19.267 20.5 19.8193 20.5V19.5ZM19.8193 5H20.8193C20.8193 4.44772 20.3715 4 19.8193 4V5ZM16.7826 4C16.2303 4 15.7826 4.44772 15.7826 5C15.7826 5.55228 16.2303 6 16.7826 6V5V4ZM13.2887 12.5745L12.778 11.7147C11.8789 12.2487 11.3693 12.3713 11.0222 12.3048C10.7206 12.2471 10.2363 11.9785 9.58885 10.8248L8.7168 11.3142L7.84475 11.8036C8.59182 13.1348 9.4712 14.0441 10.6459 14.2691C11.7749 14.4854 12.854 13.9958 13.7993 13.4342L13.2887 12.5745ZM8.7168 11.3142L9.22746 12.174C10.6162 11.3492 11.1146 11.4643 11.2946 11.5498C11.4176 11.6082 11.5692 11.7309 11.767 11.9975C11.9696 12.2706 12.1643 12.6143 12.4166 13.0639L13.2887 12.5745L14.1607 12.085C13.925 11.6649 13.6665 11.2011 13.3732 10.8058C13.0752 10.4041 12.6882 9.99762 12.1526 9.74322C11.0153 9.20302 9.71586 9.55775 8.20614 10.4544L8.7168 11.3142ZM15.0354 15.6529L14.5247 14.7931C13.6256 15.3271 13.116 15.4498 12.7688 15.3833C12.4673 15.3255 11.983 15.0569 11.3355 13.9033L10.4635 14.3927L9.59141 14.8821C10.3385 16.2132 11.2179 17.1225 12.3925 17.3476C13.5215 17.5638 14.6006 17.0742 15.546 16.5127L15.0354 15.6529ZM10.4635 14.3927L10.9741 15.2525C12.3629 14.4276 12.8613 14.5428 13.0412 14.6283C13.1643 14.6867 13.3159 14.8093 13.5137 15.076C13.7163 15.349 13.911 15.6928 14.1633 16.1423L15.0354 15.6529L15.9074 15.1635C15.6716 14.7434 15.4131 14.2795 15.1199 13.8843C14.8218 13.4825 14.4349 13.0761 13.8993 12.8217C12.7619 12.2815 11.4625 12.6362 9.9528 13.5329L10.4635 14.3927ZM13.2848 12.5768L13.7955 13.4365C14.7475 12.8711 15.6838 12.1602 16.0578 11.0708C16.4451 9.94253 16.1326 8.72174 15.3819 7.38407L14.5099 7.87349L13.6378 8.3629C14.2816 9.51003 14.2788 10.0931 14.1661 10.4214C14.0401 10.7886 13.6666 11.1869 12.7742 11.717L13.2848 12.5768ZM14.5099 7.87349L13.9992 7.0137C12.4803 7.91587 11.5588 8.88538 11.4483 10.13C11.3959 10.7197 11.5409 11.2594 11.7301 11.726C11.9159 12.184 12.1768 12.6457 12.4128 13.0662L13.2848 12.5768L14.1569 12.0873C13.9048 11.6381 13.7125 11.2923 13.5835 10.9743C13.4581 10.665 13.4268 10.4604 13.4404 10.3069C13.4619 10.0651 13.641 9.55262 15.0205 8.73327L14.5099 7.87349ZM15.0315 15.6552L15.5422 16.515C16.4941 15.9496 17.4305 15.2386 17.8044 14.1493C18.1918 13.021 17.8793 11.8002 17.1286 10.4625L16.2565 10.9519L15.3845 11.4414C16.0283 12.5885 16.0255 13.1716 15.9128 13.4999C15.7868 13.8671 15.4133 14.2654 14.5208 14.7954L15.0315 15.6552ZM16.2565 10.9519L15.7459 10.0922C14.2269 10.9943 13.3054 11.9638 13.1949 13.2085C13.1426 13.7981 13.2875 14.3378 13.4768 14.8045C13.6625 15.2624 13.9235 15.7242 14.1594 16.1446L15.0315 15.6552L15.9035 15.1658C15.6514 14.7166 15.4591 14.3708 15.3302 14.0528C15.2047 13.7435 15.1735 13.5389 15.1871 13.3853C15.2086 13.1435 15.3877 12.6311 16.7672 11.8117L16.2565 10.9519ZM11.8091 9.91137L12.0748 8.94732C10.9733 8.64368 10.4396 8.32274 10.186 7.94254C9.95376 7.59425 9.79443 6.93843 10.1661 5.51157L9.19836 5.25951L8.23065 5.00746C7.80597 6.63793 7.81726 7.99525 8.52207 9.05216C9.2056 10.0772 10.3754 10.5535 11.5433 10.8754L11.8091 9.91137ZM9.19836 5.25951L8.93262 6.22356C10.6367 6.69328 11.004 7.1963 11.1086 7.48858C11.1729 7.66809 11.1954 7.91372 11.1462 8.29046C11.0959 8.67585 10.9849 9.10838 10.8414 9.65931L11.8091 9.91137L12.7768 10.1634C12.912 9.64429 13.0597 9.08318 13.1294 8.54931C13.2002 8.0068 13.2039 7.40755 12.9916 6.81449C12.5431 5.56164 11.3264 4.8088 9.4641 4.29547L9.19836 5.25951ZM11.8091 9.91137L10.9358 10.3987L15.8558 19.2148L16.729 18.7275L17.6022 18.2402L12.6823 9.42405L11.8091 9.91137ZM12.9896 19.5V18.5H9.28257V19.5V20.5H12.9896V19.5ZM9.28257 19.5L8.57546 20.2071L15.5755 27.2071L16.2826 26.5L16.9897 25.7929L9.98968 18.7929L9.28257 19.5ZM16.2826 26.5L16.9897 27.2071L23.9897 20.2071L23.2826 19.5L22.5755 18.7929L15.5755 25.7929L16.2826 26.5ZM23.2826 19.5V18.5H19.8193V19.5V20.5H23.2826V19.5ZM19.8193 19.5H20.8193V5H19.8193H18.8193V19.5H19.8193ZM19.8193 5V4H16.7826V5V6H19.8193V5Z" fill="#00776F"/>
</svg>
