<svg width="32" height="32" viewBox="0 0 32 32" fill="none" xmlns="http://www.w3.org/2000/svg">
<path d="M14.3982 17C17 15.5 18.0202 14.5019 18.9277 11.326M14.3982 21.9194C16.5014 20.7386 17.8694 19.672 18.1996 17.5954M11.4898 7.9211L6.75725 6C5.97447 7.72408 5.12297 12.8914 7.97924 19.768C10.187 20.3919 13.1052 21.5084 14.2883 21.9887C12.905 20.4063 10.4086 15.3773 11.4898 7.9211ZM23.6588 12.9034L19.0483 11.2412C18.2248 12.879 17.2311 17.7442 19.8434 24.1029C22.0023 24.6233 24.8474 25.5845 26 26C24.6827 24.5578 22.3704 19.9194 23.6588 12.9034Z" stroke="#00776F" stroke-width="2" stroke-linecap="round" stroke-linejoin="round"/>
</svg>
