<svg width="32" height="32" viewBox="0 0 32 32" fill="none" xmlns="http://www.w3.org/2000/svg">
<path d="M20.1826 12.0242H12.3076M20.1826 12.0242C21.3168 13.0999 22.0406 14.5035 22.2396 16.0131L23.226 23.4977C23.2387 23.5941 23.2451 23.6912 23.2451 23.7884C23.2451 25.0827 22.1388 26.1321 20.774 26.1321H11.7162C10.3515 26.1321 9.24512 25.0827 9.24512 23.7884C9.24512 23.6912 9.25149 23.5941 9.26419 23.4977L10.2506 16.0131C10.4496 14.5035 11.1734 13.0999 12.3076 12.0242M20.1826 12.0242C20.9075 12.0242 21.495 11.4669 21.495 10.7795C21.495 10.092 20.9073 9.53464 20.1825 9.53464M12.3076 12.0242C11.5828 12.0242 10.995 11.4669 10.995 10.7795C10.995 10.092 11.5826 9.53464 12.3075 9.53464M20.1825 9.53464H12.3075M20.1825 9.53464L20.1822 7.79183C20.1822 6.87519 19.3987 6.13208 18.4322 6.13208H14.0572C13.0907 6.13208 12.3072 6.87519 12.3072 7.79183L12.3075 9.53464M17.5574 6.13213V6.962M14.9329 6.13213V6.962M18.0273 16.5751C17.9403 16.4207 16.9307 15.7009 15.6376 16.0703C14.4502 16.4095 14.2842 17.708 15.1432 18.2392C15.1432 18.2392 15.986 18.5958 16.921 18.9229C19.1716 19.7103 18.2021 21.7753 16.3903 21.7753C15.4831 21.7753 14.7216 21.3984 14.2607 20.9161" stroke="#00776F" stroke-width="2" stroke-linecap="round" stroke-linejoin="round"/>
</svg>
