<svg width="32" height="32" viewBox="0 0 32 32" fill="none" xmlns="http://www.w3.org/2000/svg">
<path d="M11 13.5C11.3333 14.1667 12 15 14 15C16.5 15 16.5 13 20.6921 13.5M7.34311 21C7.15801 21.3196 7.05957 21.6547 7.05957 22C7.05957 24.2091 11.089 26 16.0596 26C21.0301 26 25.0596 24.2091 25.0596 22C25.0596 21.6547 24.9611 21.3196 24.776 21M22 17.05C22 13.2945 16.0004 6 16.0004 6C16.0004 6 10 13.2945 10 17.05C10 20.8055 12.6866 23 16.0004 23C19.3141 23 22 20.8055 22 17.05Z" stroke="#00776F" stroke-width="2" stroke-linecap="round" stroke-linejoin="round"/>
</svg>
