<svg width="32" height="32" viewBox="0 0 32 32" fill="none" xmlns="http://www.w3.org/2000/svg">
<path d="M14.2 11.4999V21.3101M17.8 10.6899V20.5001M19.6001 11.4999V7.89983C19.6001 7.72185 19.6529 7.54788 19.7518 7.3999C19.8507 7.25193 19.9913 7.1366 20.1557 7.0685C20.3201 7.0004 20.5011 6.98257 20.6756 7.01728C20.8502 7.052 21.0105 7.13768 21.1364 7.26351C21.3855 7.51617 21.6908 7.70633 22.0274 7.81848C22.364 7.93063 22.7224 7.96159 23.0733 7.90883C23.2115 7.88914 23.3525 7.90189 23.4849 7.94609C23.6174 7.99028 23.7378 8.06469 23.8366 8.16345C23.9353 8.2622 24.0097 8.38258 24.0539 8.51506C24.0981 8.64754 24.1109 8.78849 24.0912 8.92675C24.0384 9.2776 24.0694 9.63596 24.1815 9.97257C24.2937 10.3092 24.4838 10.6145 24.7365 10.8636C24.8623 10.9895 24.948 11.1498 24.9827 11.3244C25.0174 11.4989 24.9996 11.6799 24.9315 11.8443C24.8634 12.0087 24.7481 12.1493 24.6001 12.2482C24.4521 12.3471 24.2782 12.3999 24.1002 12.3999H20.5001M12.3999 20.5001V24.1002C12.3999 24.2782 12.3471 24.4521 12.2482 24.6001C12.1493 24.7481 12.0087 24.8634 11.8443 24.9315C11.6799 24.9996 11.4989 25.0174 11.3244 24.9827C11.1498 24.948 10.9895 24.8623 10.8636 24.7365C10.6145 24.4838 10.3092 24.2937 9.97257 24.1815C9.63596 24.0694 9.2776 24.0384 8.92675 24.0912C8.78849 24.1109 8.64754 24.0981 8.51506 24.0539C8.38258 24.0097 8.2622 23.9353 8.16345 23.8366C8.06469 23.7378 7.99028 23.6174 7.94609 23.4849C7.90189 23.3525 7.88914 23.2115 7.90883 23.0733C7.96159 22.7224 7.93063 22.364 7.81848 22.0274C7.70633 21.6908 7.51617 21.3855 7.26351 21.1364C7.13768 21.0105 7.052 20.8502 7.01728 20.6756C6.98257 20.5011 7.0004 20.3201 7.0685 20.1557C7.1366 19.9913 7.25193 19.8507 7.3999 19.7518C7.54788 19.6529 7.72185 19.6001 7.89983 19.6001H11.4999M20.0825 11.9184C19.6646 11.5004 19.1685 11.1688 18.6224 10.9426C18.0764 10.7164 17.4911 10.5999 16.9 10.5999C16.309 10.5999 15.7237 10.7164 15.1776 10.9426C14.6316 11.1688 14.1354 11.5004 13.7176 11.9184L11.9175 13.7185C11.0739 14.5623 10.5999 15.7068 10.5999 16.9C10.5999 18.0933 11.0739 19.2377 11.9175 20.0816C12.3354 20.4996 12.8315 20.8312 13.3776 21.0574C13.9236 21.2836 14.5089 21.4001 15.1 21.4001C15.691 21.4001 16.2763 21.2836 16.8224 21.0574C17.3684 20.8312 17.8646 20.4996 18.2825 20.0816L20.0825 18.2815C20.9261 17.4377 21.4001 16.2932 21.4001 15.1C21.4001 13.9067 20.9261 12.7623 20.0825 11.9184Z" stroke="#00776F" stroke-width="2" stroke-linecap="round" stroke-linejoin="round"/>
</svg>
