<svg width="28" height="28" viewBox="0 0 27.2073 27.2073" fill="none" xmlns="http://www.w3.org/2000/svg">
  <path d="M8.56219 4.7811C8.56219 6.86934 6.86934 8.56219 4.7811 8.56219M8.56219 4.7811C8.56219 2.69285 6.86934 1 4.7811 1C2.69285 1 1 2.69285 1 4.7811C1 6.86934 2.69285 8.56219 4.7811 8.56219M8.56219 4.7811H18.6451M4.7811 8.56219V18.6451M22.4262 8.56219C24.5145 8.56219 26.2073 6.86934 26.2073 4.7811C26.2073 2.69285 24.5145 1 22.4262 1C20.338 1 18.6451 2.69285 18.6451 4.7811M22.4262 8.56219C20.338 8.56219 18.6451 6.86934 18.6451 4.7811M22.4262 8.56219V18.6451M8.56219 22.4262C8.56219 24.5145 6.86934 26.2073 4.7811 26.2073C2.69285 26.2073 1 24.5145 1 22.4262C1 20.338 2.69285 18.6451 4.7811 18.6451M8.56219 22.4262C8.56219 20.338 6.86934 18.6451 4.7811 18.6451M8.56219 22.4262H18.6451M18.6451 22.4262C18.6451 24.5145 20.338 26.2073 22.4262 26.2073C24.5145 26.2073 26.2073 24.5145 26.2073 22.4262C26.2073 20.338 24.5145 18.6451 22.4262 18.6451M18.6451 22.4262C18.6451 20.338 20.338 18.6451 22.4262 18.6451" stroke="#023432" stroke-width="2" stroke-linecap="round" stroke-linejoin="round"/>
</svg>
