<svg width="30" height="29" viewBox="0 0 29.6349 28.5646" fill="none" xmlns="http://www.w3.org/2000/svg">
  <path d="M11.1389 12.4472C5.53946 12.4472 1.0002 15.0005 1.0002 20.671C1.0002 23.5365 1.0002 25.9084 8.63462 26.3131M18.1387 14.6839H20.1314C24.8276 14.6839 28.6347 16.8253 28.6347 21.5811C28.6347 23.9843 28.6347 25.9736 22.2318 26.3131H20.8273M14.9356 6.06935C14.9356 8.86908 12.6659 11.1387 9.86622 11.1387C7.06649 11.1387 4.79686 8.86908 4.79686 6.06935C4.79686 3.26963 7.06649 1 9.86622 1C12.6659 1 14.9356 3.26963 14.9356 6.06935ZM16.9472 9.33481C16.9472 11.6829 18.8507 13.5864 21.1988 13.5864C23.5469 13.5864 25.4505 11.6829 25.4505 9.33481C25.4505 6.9867 23.5469 5.08319 21.1988 5.08319C18.8507 5.08319 16.9472 6.9867 16.9472 9.33481ZM18.1185 15.4413C18.1185 17.2459 16.6556 18.7088 14.8511 18.7088C13.0465 18.7088 11.5837 17.2459 11.5837 15.4413C11.5837 13.6368 13.0465 12.1739 14.8511 12.1739C16.6556 12.1739 18.1185 13.6368 18.1185 15.4413ZM21.3859 23.8887C21.3859 25.9188 21.3859 27.5646 14.8511 27.5646C8.31623 27.5646 8.31623 25.9188 8.31623 23.8887C8.31623 21.8586 11.242 20.2129 14.8511 20.2129C18.4602 20.2129 21.3859 21.8586 21.3859 23.8887Z" stroke="#023432" stroke-width="2" stroke-linecap="round" stroke-linejoin="round"/>
</svg>
