<svg width="28" height="28" viewBox="0 0 22.1661 27.2073" fill="none" xmlns="http://www.w3.org/2000/svg">
  <path d="M21.0373 18.6451H5.91287C4.74077 18.6451 4.15472 18.6451 3.67389 18.774C2.36906 19.1236 1.34988 20.1428 1.00025 21.4476M6.04171 7.30182H16.1246M6.04171 11.7131H12.3435M8.56244 26.2073H13.6039C17.1688 26.2073 18.9512 26.2073 20.0586 25.0998C21.1661 23.9924 21.1661 22.21 21.1661 18.6451V8.56219C21.1661 4.99734 21.1661 3.21491 20.0586 2.10746C18.9512 1 17.1688 1 13.6039 1H8.56244C4.99759 1 3.21516 1 2.10771 2.10746C1.00025 3.21491 1.00025 4.99734 1.00025 8.56219V18.6451C1.00025 22.21 1.00025 23.9924 2.10771 25.0998C3.21516 26.2073 4.99759 26.2073 8.56244 26.2073Z" stroke="#023432" stroke-width="2" stroke-linecap="round" stroke-linejoin="round"/>
</svg>
