<svg width="31" height="31" viewBox="0 0 31 31" fill="none" xmlns="http://www.w3.org/2000/svg">
<path d="M10.6633 28.6412C11.1676 28.8663 11.759 28.6399 11.984 28.1356C12.2091 27.6313 11.9828 27.0399 11.4784 26.8149L11.0709 27.728L10.6633 28.6412ZM6.90329 22.8218C6.62508 22.3447 6.01278 22.1834 5.53569 22.4617C5.0586 22.7399 4.89737 23.3522 5.17559 23.8293L6.03944 23.3255L6.90329 22.8218ZM18.4116 1.79327C17.8804 1.94442 17.5723 2.49757 17.7235 3.02877C17.8746 3.55997 18.4278 3.86807 18.959 3.71692L18.6853 2.7551L18.4116 1.79327ZM23.7893 4.98139C24.1757 5.376 24.8089 5.38267 25.2035 4.99627C25.5981 4.60988 25.6048 3.97675 25.2184 3.58214L24.5039 4.28176L23.7893 4.98139ZM5.05498 10.5449L5.55117 11.4131L5.05498 10.5449ZM8.19527 11.1762L9.05912 10.6725V10.6725L8.19527 11.1762ZM4.03685 13.5528L3.173 14.0565L3.173 14.0565L4.03685 13.5528ZM9.70099 4.25062L10.5648 3.74687V3.74687L9.70099 4.25062ZM10.7621 6.07022L9.89823 6.57396L10.7621 6.07022ZM13.0815 12.0328C13.3597 12.5098 13.972 12.6711 14.4491 12.3929C14.9262 12.1146 15.0874 11.5024 14.8092 11.0253L13.9453 11.529L13.0815 12.0328ZM9.45359 15.3191C9.7318 15.7962 10.3441 15.9575 10.8212 15.6793C11.2983 15.401 11.4595 14.7887 11.1813 14.3117L10.3174 14.8154L9.45359 15.3191ZM5.54257 6.62721L4.67872 7.13096H4.67872L5.54257 6.62721ZM14.9205 3.69363L15.7844 3.18988L15.7844 3.18988L14.9205 3.69363ZM18.1038 9.15242L17.2399 9.65617L18.1038 9.15242ZM20.2259 12.7916L20.7221 13.6598C20.9537 13.5275 21.1228 13.3081 21.1918 13.0505C21.2609 12.7928 21.2241 12.5183 21.0898 12.2879L20.2259 12.7916ZM22.2622 6.77583L21.3983 7.27957V7.27957L22.2622 6.77583ZM25.4454 12.2346L26.3093 11.7309V11.7309L25.4454 12.2346ZM8.81172 21.741L9.67557 21.2372V21.2372L8.81172 21.741ZM21.3729 24.2662L21.8691 25.1344L21.3729 24.2662ZM17.3258 19.3111C17.604 19.7882 18.2163 19.9495 18.6934 19.6713C19.1705 19.393 19.3317 18.7807 19.0535 18.3037L18.1897 18.8074L17.3258 19.3111ZM11.0709 27.728L11.4784 26.8149C9.5229 25.9421 7.93901 24.5979 6.90329 22.8218L6.03944 23.3255L5.17559 23.8293C6.44609 26.008 8.37093 27.6181 10.6633 28.6412L11.0709 27.728ZM18.6853 2.7551L18.959 3.71692C20.724 3.2147 22.5257 3.69081 23.7893 4.98139L24.5039 4.28176L25.2184 3.58214C23.4358 1.76165 20.8735 1.09277 18.4116 1.79327L18.6853 2.7551ZM5.05498 10.5449L5.55117 11.4131C6.32959 10.9682 7.07994 11.2487 7.33142 11.68L8.19527 11.1762L9.05912 10.6725C8.13857 9.09384 6.077 8.80901 4.55878 9.67669L5.05498 10.5449ZM5.05498 10.5449L4.55878 9.67669C3.03747 10.5461 2.24747 12.4694 3.173 14.0565L4.03685 13.5528L4.9007 13.049C4.65418 12.6263 4.77585 11.8562 5.55117 11.4131L5.05498 10.5449ZM9.70099 4.25062L8.83714 4.75437L9.89823 6.57396L10.7621 6.07022L11.6259 5.56647L10.5648 3.74687L9.70099 4.25062ZM10.7621 6.07022L9.89823 6.57396L13.0815 12.0328L13.9453 11.529L14.8092 11.0253L11.6259 5.56647L10.7621 6.07022ZM10.3174 14.8154L11.1813 14.3117L9.05912 10.6725L8.19527 11.1762L7.33142 11.68L9.45359 15.3191L10.3174 14.8154ZM8.19527 11.1762L9.05912 10.6725L6.40642 6.12346L5.54257 6.62721L4.67872 7.13096L7.33142 11.68L8.19527 11.1762ZM6.5607 3.61932L7.05689 4.48753C7.83531 4.04265 8.58566 4.32311 8.83714 4.75437L9.70099 4.25062L10.5648 3.74687C9.64429 2.16826 7.58272 1.88343 6.0645 2.75111L6.5607 3.61932ZM6.5607 3.61932L6.0645 2.75111C4.54319 3.62055 3.75319 5.54382 4.67872 7.13096L5.54257 6.62721L6.40642 6.12346C6.1599 5.70073 6.28157 4.93064 7.05689 4.48753L6.5607 3.61932ZM14.9205 3.69363L14.0567 4.19737L17.2399 9.65617L18.1038 9.15242L18.9676 8.64867L15.7844 3.18988L14.9205 3.69363ZM18.1038 9.15242L17.2399 9.65617L19.3621 13.2954L20.2259 12.7916L21.0898 12.2879L18.9676 8.64867L18.1038 9.15242ZM11.7802 3.06232L12.2764 3.93054C13.0548 3.48566 13.8052 3.76612 14.0567 4.19737L14.9205 3.69363L15.7844 3.18988C14.8638 1.61126 12.8022 1.32643 11.284 2.19411L11.7802 3.06232ZM11.7802 3.06232L11.284 2.19411C9.76271 3.06356 8.9727 4.98683 9.89823 6.57396L10.7621 6.07022L11.6259 5.56647C11.3794 5.14373 11.5011 4.37364 12.2764 3.93054L11.7802 3.06232ZM22.2622 6.77583L21.3983 7.27957L24.5816 12.7384L25.4454 12.2346L26.3093 11.7309L23.126 6.27208L22.2622 6.77583ZM19.1219 6.14453L19.6181 7.01274C20.3965 6.56786 21.1468 6.84832 21.3983 7.27957L22.2622 6.77583L23.126 6.27208C22.2055 4.69346 20.1439 4.40863 18.6257 5.27631L19.1219 6.14453ZM19.1219 6.14453L18.6257 5.27631C17.1044 6.14576 16.3144 8.06903 17.2399 9.65617L18.1038 9.15242L18.9676 8.64867C18.7211 8.22593 18.8428 7.45584 19.6181 7.01274L19.1219 6.14453ZM4.03685 13.5528L3.173 14.0565L7.94787 22.2447L8.81172 21.741L9.67557 21.2372L4.9007 13.049L4.03685 13.5528ZM21.3729 24.2662L20.8767 23.398C16.6533 25.8117 11.6851 24.6833 9.67557 21.2372L8.81172 21.741L7.94787 22.2447C10.6265 26.8382 16.9059 27.9709 21.8691 25.1344L21.3729 24.2662ZM25.4454 12.2346L24.5816 12.7384C26.5862 16.1759 25.097 20.986 20.8767 23.398L21.3729 24.2662L21.8691 25.1344C26.8354 22.2961 28.9929 16.3328 26.3093 11.7309L25.4454 12.2346ZM18.1897 18.8074L19.0535 18.3037C18.221 16.876 18.7985 14.7592 20.7221 13.6598L20.2259 12.7916L19.7297 11.9234C17.0601 13.4491 15.8143 16.7191 17.3258 19.3111L18.1897 18.8074Z" fill="#023432"/>
</svg>
