<svg width="32" height="44" viewBox="0 0 32 44" fill="none" xmlns="http://www.w3.org/2000/svg">
<path opacity="0.1" d="M21.5388 0C21.7983 0.0100319 21.7286 -0.0256858 21.9397 0.102083C22.2457 0.570772 21.4083 3.79581 21.457 4.83103C21.5934 7.72992 22.6709 10.6994 24.4677 12.9547C27.6262 16.9191 30.7143 21.0522 31.7215 26.1802C32.3619 29.5013 31.9431 33.8657 29.9934 36.7517C27.4718 40.4479 23.6013 42.9595 19.248 43.7242C18.0218 43.9525 17.0147 43.9779 15.7996 43.9973C12.9921 44.0421 10.488 43.5333 7.95699 42.2937C7.49122 42.0656 6.7663 41.7298 6.34705 41.4357C-5.04761 33.9793 1.07725 17.4682 7.81035 8.82632C8.24426 8.26944 9.07428 7.01518 9.84074 7.22381C9.98148 7.34777 10.0666 7.51132 10.0434 7.70479C9.81456 9.61692 9.44226 11.5154 10.1598 13.3864C10.2989 13.7491 10.5788 14.0698 10.8223 14.3821C11.004 8.99538 14.9736 3.17179 19.6018 0.667453C20.2457 0.318982 20.8202 0.113107 21.5388 0Z" fill="#023432"/>
<mask id="mask0_4134_5064" style="mask-type:alpha" maskUnits="userSpaceOnUse" x="0" y="0" width="32" height="44">
<path d="M21.5388 0C21.7983 0.0100319 21.7286 -0.0256858 21.9397 0.102083C22.2457 0.570772 21.4083 3.79581 21.457 4.83103C21.5934 7.72992 22.6709 10.6994 24.4677 12.9547C27.6262 16.9191 30.7143 21.0522 31.7214 26.1802C32.3619 29.5013 31.9431 33.8657 29.9934 36.7517C27.4718 40.4479 23.6013 42.9595 19.248 43.7242C18.0218 43.9525 17.0147 43.9779 15.7996 43.9973C12.9921 44.0421 10.488 43.5333 7.95699 42.2937C7.49122 42.0656 6.7663 41.7298 6.34705 41.4357C-5.04761 33.9793 1.07725 17.4682 7.81035 8.82632C8.24426 8.26944 9.07428 7.01518 9.84074 7.22381C9.98148 7.34777 10.0666 7.51132 10.0434 7.70479C9.81456 9.61692 9.44225 11.5154 10.1598 13.3864C10.2989 13.7491 10.5788 14.0698 10.8223 14.3821C11.004 8.99538 14.9736 3.17179 19.6018 0.667453C20.2457 0.318982 20.8201 0.113107 21.5388 0Z" fill="#CEEBE5"/>
</mask>
<g mask="url(#mask0_4134_5064)">
<rect x="-2" y="39" width="35" height="5" fill="#009A1F"/>
</g>
<path d="M21.7777 29.7362C21.7777 32.2852 19.1909 34.3516 15.9999 34.3516C12.809 34.3516 10.2222 32.2852 10.2222 29.7362" stroke="#023432" stroke-width="2" stroke-linecap="round"/>
<path d="M13.3333 25.1208C13.3333 23.5914 12.1394 22.3516 10.6667 22.3516C9.19391 22.3516 8 23.5914 8 25.1208" stroke="#023432" stroke-width="2" stroke-linecap="round"/>
<path d="M24.0003 25.1208C24.0003 23.5914 22.8064 22.3516 21.3337 22.3516C19.8609 22.3516 18.667 23.5914 18.667 25.1208" stroke="#023432" stroke-width="2" stroke-linecap="round"/>
</svg>
