<svg width="50" height="26" viewBox="0 0 50 26" fill="none" xmlns="http://www.w3.org/2000/svg">
<rect width="50" height="26" rx="4" fill="#023432"/>
<path d="M6.992 22.2V11H8.976L9.072 12.136C9.33867 11.7093 9.67467 11.384 10.08 11.16C10.496 10.9253 10.976 10.808 11.52 10.808C12.256 10.808 12.8907 10.9787 13.424 11.32C13.968 11.6613 14.3893 12.1467 14.688 12.776C14.9867 13.3947 15.136 14.136 15.136 15C15.136 15.8533 14.9867 16.5947 14.688 17.224C14.3893 17.8533 13.968 18.3387 13.424 18.68C12.8907 19.0213 12.256 19.192 11.52 19.192C10.9867 19.192 10.5173 19.08 10.112 18.856C9.70667 18.632 9.37067 18.3173 9.104 17.912V22.2H6.992ZM10.976 17.256C11.36 17.256 11.696 17.16 11.984 16.968C12.2827 16.776 12.5173 16.5093 12.688 16.168C12.8587 15.8267 12.944 15.4373 12.944 15C12.944 14.5627 12.8587 14.1733 12.688 13.832C12.528 13.4907 12.2987 13.2293 12 13.048C11.712 12.856 11.376 12.76 10.992 12.76C10.6293 12.76 10.304 12.856 10.016 13.048C9.728 13.24 9.504 13.5067 9.344 13.848C9.184 14.1787 9.104 14.5627 9.104 15C9.104 15.4373 9.184 15.8267 9.344 16.168C9.504 16.5093 9.72267 16.776 10 16.968C10.288 17.16 10.6133 17.256 10.976 17.256ZM16.2014 19V7.8H18.3134V19H16.2014ZM22.6669 19.192C22.0269 19.192 21.4829 19.064 21.0349 18.808C20.5975 18.552 20.2615 18.1573 20.0269 17.624C19.7922 17.08 19.6749 16.3813 19.6749 15.528V11H21.7869V15.096C21.7869 15.6293 21.8455 16.0507 21.9629 16.36C22.0909 16.6587 22.2669 16.8773 22.4909 17.016C22.7255 17.144 22.9869 17.208 23.2749 17.208C23.8295 17.2187 24.2509 17.0533 24.5389 16.712C24.8269 16.36 24.9709 15.8533 24.9709 15.192V11H27.0829V19H25.0989L25.0189 17.912C24.7522 18.3173 24.4162 18.632 24.0109 18.856C23.6162 19.08 23.1682 19.192 22.6669 19.192ZM31.5846 19.192C31.0726 19.192 30.5926 19.1173 30.1446 18.968C29.6966 18.808 29.302 18.584 28.9606 18.296C28.6193 17.9973 28.3526 17.6347 28.1606 17.208L29.9686 16.376C30.1286 16.632 30.3473 16.856 30.6246 17.048C30.902 17.2293 31.222 17.32 31.5846 17.32C31.9366 17.32 32.2086 17.272 32.4006 17.176C32.5926 17.0693 32.6886 16.92 32.6886 16.728C32.6886 16.536 32.6086 16.3973 32.4486 16.312C32.2993 16.216 32.0913 16.136 31.8246 16.072L31.0886 15.88C30.3206 15.6773 29.7126 15.3573 29.2646 14.92C28.8273 14.472 28.6086 13.96 28.6086 13.384C28.6086 12.5627 28.87 11.928 29.3926 11.48C29.926 11.032 30.678 10.808 31.6486 10.808C32.15 10.808 32.614 10.8827 33.0406 11.032C33.478 11.1813 33.8513 11.3893 34.1606 11.656C34.47 11.9227 34.6833 12.232 34.8006 12.584L33.0566 13.384C32.982 13.1707 32.8006 13 32.5126 12.872C32.2246 12.7333 31.9366 12.664 31.6486 12.664C31.3606 12.664 31.1366 12.728 30.9766 12.856C30.8273 12.9733 30.7526 13.1387 30.7526 13.352C30.7526 13.4907 30.8273 13.608 30.9766 13.704C31.126 13.7893 31.3393 13.864 31.6166 13.928L32.6566 14.184C33.1793 14.312 33.5953 14.52 33.9046 14.808C34.2246 15.0853 34.454 15.4 34.5926 15.752C34.742 16.0933 34.8166 16.4293 34.8166 16.76C34.8166 17.24 34.6726 17.6667 34.3846 18.04C34.1073 18.4027 33.7233 18.6853 33.2326 18.888C32.7526 19.0907 32.2033 19.192 31.5846 19.192Z" fill="white"/>
<path d="M41.2165 6.78956H44V9.21044H41.2165V12H38.7485V9.21044H36V6.78956H38.7485V4H41.2165V6.78956Z" fill="url(#paint0_linear_3934_5581)"/>
<defs>
<linearGradient id="paint0_linear_3934_5581" x1="37.3739" y1="4.00005" x2="42.8516" y2="10.7768" gradientUnits="userSpaceOnUse">
<stop stop-color="#00C8B3"/>
<stop offset="1" stop-color="#00C3D0"/>
</linearGradient>
</defs>
</svg>
