<svg width="220" height="57" viewBox="0 0 220 57" fill="none" xmlns="http://www.w3.org/2000/svg">
<path d="M147.479 9.40198C154.555 2.30296 166.038 2.30296 173.114 9.40198C180.191 16.501 180.191 28.0369 173.114 35.1359L172.775 35.474C165.784 42.1504 154.809 42.1504 147.818 35.474L147.479 35.1359C140.403 28.0369 140.403 16.501 147.479 9.40198ZM169.28 13.2684C164.322 8.28219 156.292 8.28219 151.335 13.2684C146.377 18.2546 146.377 26.3044 151.335 31.2906C156.292 36.2768 164.322 36.2768 169.28 31.2906C174.237 26.3044 174.237 18.2546 169.28 13.2684Z" fill="#3B9586"/>
<path d="M172.881 42.9533C171.78 41.7279 171.801 39.8475 172.966 38.6854C174.131 37.5234 175.996 37.4811 177.203 38.6009L188.242 48.4466C189.809 49.9044 189.873 52.3764 188.369 53.8976C186.864 55.4188 184.386 55.3554 182.945 53.7708L172.881 42.9533Z" fill="#3B9586"/>
<path d="M154.258 22.1633L161.907 13.0994C162.225 12.7191 162.818 13.0571 162.691 13.5219L161.038 19.6068C160.869 20.1984 161.314 20.79 161.907 20.79H165.657C166.441 20.79 166.864 21.7407 166.335 22.3535L158.559 31.5019C158.242 31.8611 157.669 31.5441 157.797 31.0793L159.322 24.8677C159.47 24.2761 159.025 23.7057 158.453 23.7057H154.979C154.195 23.7057 153.792 22.776 154.301 22.1844L154.258 22.1633Z" fill="#023432"/>
<path d="M14.5339 35.1359C13.411 35.1359 12.3941 35.0091 11.4831 34.7345C10.572 34.4809 9.78813 34.1218 9.15254 33.6781C8.51695 33.2344 8.00847 32.7484 7.6483 32.1991H7.37288V34.3753H0V1.09866H7.73305V12.9937C8.11441 12.5289 8.60169 12.0641 9.2161 11.5782C9.83051 11.0922 10.5932 10.7119 11.5042 10.395C12.4153 10.0781 13.411 9.93017 14.5339 9.93017C16.6737 9.93017 18.5805 10.4372 20.2754 11.4725C21.9492 12.4867 23.2839 13.9445 24.2373 15.846C25.1907 17.7264 25.678 19.966 25.678 22.5436C25.678 25.1212 25.1907 27.3397 24.2161 29.2412C23.2415 31.1216 21.9068 32.5794 20.233 33.6147C18.5593 34.6288 16.6525 35.157 14.5551 35.157L14.5339 35.1359ZM12.6695 28.1214C13.6017 28.1214 14.4703 27.889 15.2542 27.4031C16.0381 26.9171 16.6949 26.2621 17.2034 25.417C17.7119 24.5719 17.9661 23.6211 17.9661 22.5436C17.9661 21.4661 17.7119 20.5153 17.2034 19.7336C16.6949 18.9518 16.0381 18.318 15.2542 17.8532C14.4703 17.3884 13.6017 17.156 12.6695 17.156C11.7373 17.156 10.911 17.3884 10.1059 17.8532C9.30085 18.318 8.64407 18.9518 8.15678 19.7547C7.66949 20.5576 7.41525 21.4872 7.41525 22.5436C7.41525 23.6 7.66949 24.6775 8.15678 25.5015C8.64407 26.3255 9.30085 26.9594 10.1059 27.4242C10.911 27.889 11.7585 28.1214 12.6695 28.1214Z" fill="#3B9586"/>
<path d="M30.678 9.571C29.3644 9.571 28.2627 9.10618 27.3517 8.17655C26.4407 7.24691 25.9746 6.106 25.9746 4.73268C25.9746 3.35936 26.4407 2.32408 27.3517 1.39445C28.2627 0.464817 29.3856 0 30.678 0C31.9703 0 33.0508 0.464817 33.9619 1.39445C34.8729 2.32408 35.339 3.44387 35.339 4.73268C35.339 6.02149 34.8729 7.24691 33.9619 8.17655C33.0508 9.10618 31.9492 9.571 30.678 9.571ZM26.8008 34.3964V10.6908H34.4915V34.3964H26.8008Z" fill="#3B9586"/>
<path d="M49.8729 27.4242C49.428 27.5721 49.428 27.6355 48.5593 27.6355C47.6907 27.6355 47.0763 27.3819 46.6949 26.8537C46.3347 26.3255 46.1441 25.5438 46.1441 24.4874V17.2827H51.2288V10.6908H46.1441V3.9932H38.4534V10.6908H35.1271V17.2827H38.4534V26.8115C38.4534 29.3257 39.1525 31.2695 40.572 32.6639C41.9703 34.0584 44.0254 34.7556 46.7373 34.7556C47.4788 34.7556 48.2627 34.6922 49.0466 34.5655C49.8517 34.4387 50.6568 34.2274 51.5042 33.9527V26.6002C50.8475 27.0227 50.3178 27.2763 49.8729 27.4242Z" fill="#3B9586"/>
<path d="M81.4195 9.571C80.1059 9.571 79.0042 9.10618 78.0932 8.17655C77.1822 7.24691 76.7161 6.106 76.7161 4.73268C76.7161 3.35936 77.1822 2.32408 78.0932 1.39445C79.0042 0.464817 80.1271 0 81.4195 0C82.7119 0 83.7924 0.464817 84.7034 1.39445C85.6144 2.32408 86.0805 3.44387 86.0805 4.73268C86.0805 6.02149 85.6144 7.24691 84.7034 8.17655C83.7924 9.10618 82.6907 9.571 81.4195 9.571ZM77.5424 34.3964V10.6908H85.233V34.3964H77.5424Z" fill="#023432"/>
<path d="M86.7161 10.6908H93.9407V13.6698H94.1737C94.8517 12.55 95.7839 11.6627 96.9492 10.9654C98.1144 10.2894 99.5763 9.9513 101.356 9.9513C104.025 9.9513 106.144 10.8176 107.712 12.55C109.28 14.2825 110.064 16.6489 110.064 19.6702V34.3964H102.373V21.614C102.373 20.2407 102.14 19.142 101.653 18.2969C101.165 17.4518 100.254 17.0292 98.8771 17.0292C97.5 17.0292 97.0127 17.325 96.3559 17.9166C95.6991 18.5082 95.2119 19.2899 94.8941 20.2407C94.5763 21.1914 94.4068 22.2901 94.4068 23.4944V34.4176H86.7161V10.6908Z" fill="#023432"/>
<path d="M121.801 35.1359C119.661 35.1359 117.797 34.8401 116.229 34.2485C114.661 33.6569 113.369 32.8752 112.352 31.9245C111.335 30.9737 110.614 29.9173 110.191 28.7552L116.949 26.0086C117.436 26.7481 118.051 27.3397 118.792 27.7834C119.513 28.227 120.487 28.4383 121.653 28.4383C122.818 28.4383 123.453 28.3961 124.174 28.2904C124.894 28.2059 125.254 27.9313 125.254 27.5087C125.254 27.0861 125.085 26.8115 124.746 26.6002C124.407 26.3889 123.962 26.2199 123.39 26.0931C122.839 25.9452 122.182 25.7973 121.441 25.6494L118.644 24.9945C117.436 24.7198 116.292 24.2338 115.233 23.5789C114.174 22.9028 113.305 22.0577 112.648 21.0224C111.97 19.9871 111.653 18.7617 111.653 17.3672C111.653 15.9728 112.119 14.6629 113.03 13.5642C113.941 12.4444 115.148 11.557 116.674 10.9232C118.178 10.2682 119.788 9.9513 121.504 9.9513C123.22 9.9513 124.555 10.1415 125.932 10.5006C127.309 10.8809 128.496 11.4303 129.555 12.1697C130.593 12.9092 131.398 13.8811 131.949 15.0432L125.106 17.5996C124.661 17.1982 124.216 16.8602 123.729 16.5855C123.242 16.3108 122.564 16.1629 121.695 16.1629C120.826 16.1629 120.212 16.2475 119.767 16.4376C119.322 16.6278 119.089 16.839 119.089 17.0926C119.089 17.4729 119.258 17.7687 119.619 17.98C119.979 18.1912 120.636 18.4236 121.589 18.6772L125.085 19.6068C127.733 20.3252 129.661 21.2971 130.869 22.5225C132.076 23.7479 132.691 25.4381 132.691 27.6143C132.691 29.7905 132.203 30.3821 131.229 31.523C130.254 32.6639 128.941 33.5513 127.288 34.1852C125.636 34.819 123.814 35.1359 121.843 35.1359H121.801Z" fill="#023432"/>
<path d="M137.203 9.571C135.89 9.571 134.788 9.10618 133.877 8.17655C132.966 7.24691 132.5 6.106 132.5 4.73268C132.5 3.35936 132.966 2.32408 133.877 1.39445C134.788 0.464817 135.911 0 137.203 0C138.496 0 139.576 0.464817 140.487 1.39445C141.398 2.32408 141.864 3.44387 141.864 4.73268C141.864 6.02149 141.398 7.24691 140.487 8.17655C139.576 9.10618 138.475 9.571 137.203 9.571ZM133.326 34.3964V10.6908H141.017V34.3964H133.326Z" fill="#023432"/>
<path d="M179.746 34.3964V1.11979H187.436V13.205C187.966 12.3599 188.771 11.6204 189.831 10.9443C190.911 10.2682 192.352 9.9513 194.195 9.9513C196.038 9.9513 197.754 10.3316 199.11 11.1133C200.466 11.8951 201.483 13.0149 202.161 14.4938C202.839 15.9728 203.178 17.6842 203.178 19.6702V34.3964H195.487V21.8464C195.487 20.79 195.339 19.9237 195.021 19.2476C194.703 18.5715 194.28 18.0645 193.708 17.7053C193.157 17.3672 192.458 17.1982 191.653 17.1982C190.847 17.1982 189.979 17.4306 189.343 17.9166C188.708 18.4025 188.22 19.0786 187.903 19.966C187.585 20.8534 187.415 21.9098 187.415 23.1563V34.3964H179.725H179.746Z" fill="#023432"/>
<path d="M218.369 27.4242C217.924 27.5721 217.924 27.6355 217.055 27.6355C216.186 27.6355 215.572 27.3819 215.191 26.8537C214.831 26.3255 214.64 25.5438 214.64 24.4874V17.2827H219.725V10.6908H214.64V3.9932H206.949V10.6908H203.644V17.2827H206.949V26.8115C206.949 29.3257 207.648 31.2695 209.068 32.6639C210.487 34.0584 212.542 34.7556 215.254 34.7556C215.996 34.7556 216.78 34.6922 217.564 34.5655C218.347 34.4387 219.153 34.2274 220 33.9527V26.6002C219.343 27.0227 218.814 27.2763 218.369 27.4242Z" fill="#023432"/>
<path d="M75.0847 16.67C74.1737 14.853 72.839 13.3952 71.0593 12.3176C69.2797 11.2401 66.8856 10.6908 64.5339 10.6908C62.1822 10.6908 60.0636 11.2612 58.1992 12.4233C56.3347 13.5853 54.8517 15.1277 53.7712 17.0503C52.6907 18.973 52.1398 20.8956 52.1398 23.3253C52.1398 25.7551 52.6907 27.9101 53.7712 29.7905C54.8517 31.6709 56.3559 33.171 58.2627 34.2485C60.1695 35.3261 62.3517 35.8754 64.767 35.8754H64.8093C67.4788 35.8754 69.767 35.3261 71.6525 34.1852C73.5381 33.0442 75.0424 31.523 76.1229 29.6426L70.572 27.0016C70.0636 27.8467 69.322 28.544 68.3475 29.0933C67.3517 29.6637 66.0381 29.9384 64.9576 29.9384C63.8771 29.9384 62.839 29.6849 61.8856 29.1567C60.9322 28.6285 60.1483 27.8467 59.5551 26.8326C59.2648 26.3361 59.0466 25.7593 58.8983 25.1424H76.2712C76.3136 24.9522 76.3559 24.6353 76.3983 24.1493C76.4407 23.6845 76.4619 24.8888 76.4619 22.6915C76.4619 20.4942 75.9958 18.487 75.0847 16.67ZM59.1864 20.2195C59.2775 19.9935 59.3771 19.7758 59.4915 19.5646C60.0212 18.5715 60.7627 17.7687 61.6949 17.1771C62.6271 16.5855 63.6652 16.2897 64.8093 16.2897C65.5932 16.2897 66.2924 16.4376 66.9068 16.7123C67.5424 16.9869 68.0508 17.325 68.4958 17.7264C68.9195 18.1278 69.2585 18.5504 69.5127 18.9941C69.7669 19.4378 69.9153 19.8392 69.9364 20.2195H59.1864Z" fill="#3B9586"/>
<path d="M3.14998 54.5823C1.34548 54.5823 0.113703 53.6501 0.00631681 52.2026L0 52.1255H0.482183L0.4885 52.2026C0.597992 53.3748 1.63605 54.1402 3.16262 54.1402C4.68918 54.1402 5.67882 53.3935 5.67882 52.2569V52.2506C5.67882 51.2766 5.08082 50.751 3.54163 50.4027L2.60674 50.1879C0.941206 49.8042 0.216877 49.1305 0.216877 47.9521V47.9396C0.223194 46.6424 1.41707 45.7038 3.05313 45.7038C4.68918 45.7038 5.88938 46.6611 5.99887 48.0835L6.00519 48.1607H5.52932L5.523 48.0835C5.4093 46.9051 4.43651 46.146 3.04892 46.146C1.66132 46.146 0.707483 46.8759 0.707483 47.9334V47.9396C0.707483 48.8781 1.32864 49.4225 2.76045 49.7499L3.69534 49.9585C5.47036 50.3589 6.16311 51.0159 6.16311 52.2297V52.236C6.16311 53.6417 4.95659 54.5802 3.15209 54.5802L3.14998 54.5823ZM9.79738 54.5594C8.10237 54.5594 7.02219 53.3164 7.02219 51.3496V51.3434C7.02219 49.3829 8.115 48.1398 9.79738 48.1398C11.126 48.1398 12.0967 48.9595 12.2904 50.0357L12.303 50.0962H11.8377L11.8251 50.0419C11.625 49.1743 10.8544 48.559 9.79738 48.559C8.39083 48.559 7.49174 49.6415 7.49174 51.3454V51.3517C7.49174 53.0786 8.40347 54.1443 9.79738 54.1443C10.8354 54.1443 11.6145 53.5458 11.8188 52.6615L11.8314 52.6072H12.2967L12.2904 52.6615C12.0799 53.7856 11.1071 54.5615 9.79738 54.5615V54.5594ZM15.3478 54.5594C14.1223 54.5594 13.2716 53.8357 13.2716 52.7845V52.772C13.2716 51.7146 14.0507 51.1035 15.493 50.9971L17.6534 50.847V50.2901C17.6534 49.2077 16.9964 48.557 15.8847 48.557C14.7729 48.557 14.116 49.0659 13.9602 49.9668L13.9475 50.0336H13.4948L13.5075 49.9627C13.6591 48.826 14.5455 48.1398 15.8847 48.1398C17.2238 48.1398 18.1229 48.9532 18.1229 50.2567V54.4593H17.6513V53.1495H17.6387C17.3249 53.9858 16.3963 54.5594 15.3456 54.5594H15.3478ZM13.7475 52.7845C13.7475 53.5854 14.4423 54.1423 15.413 54.1423C16.6511 54.1423 17.6513 53.2642 17.6513 52.1526V51.2328L15.5562 51.383C14.3855 51.4727 13.7454 51.9565 13.7454 52.7762V52.7887L13.7475 52.7845ZM19.5927 54.4572V48.2399H20.0643V49.5309H20.0769C20.3675 48.7363 21.1508 48.144 22.2436 48.144C23.6565 48.144 24.5135 49.0283 24.5135 50.5466V54.4572H24.0418V50.6009C24.0418 49.2682 23.3301 48.5632 22.1341 48.5632C20.9381 48.5632 20.0643 49.4538 20.0643 50.7448V54.4572H19.5927ZM28.8447 56.5491C28.7415 56.5491 28.6404 56.5428 28.5604 56.5366V56.1361C28.6278 56.1361 28.6994 56.1424 28.771 56.1424C29.5374 56.1424 29.9059 55.8379 30.2133 55.0057L30.3881 54.5385L27.9856 48.2379H28.4867L30.6239 54.0067H30.6429L32.7801 48.2379H33.2812L30.6808 55.0891C30.2997 56.0944 29.8364 56.547 28.8468 56.547L28.8447 56.5491ZM36.5196 54.5594C34.8478 54.5531 33.7255 53.3226 33.7255 51.3496V51.3371C33.7255 49.3704 34.8541 48.1398 36.5196 48.1398C38.1851 48.1398 39.3201 49.3662 39.3201 51.3371V51.3496C39.3201 53.3289 38.1851 54.5594 36.5196 54.5594ZM36.5196 54.1402C37.9135 54.1402 38.8484 53.0703 38.8484 51.3475V51.335C38.8484 49.6144 37.9072 48.5549 36.5196 48.5549C35.132 48.5549 34.195 49.6185 34.195 51.335V51.3475C34.195 53.0682 35.1236 54.1339 36.5196 54.1402ZM42.7564 54.5531C41.3436 54.5531 40.4866 53.6688 40.4866 52.1505V48.2399H40.9519V52.0963C40.9519 53.429 41.6699 54.1339 42.8659 54.1339C44.0619 54.1339 44.9357 53.2434 44.9357 51.9524V48.2399H45.4074V54.4572H44.9357V53.1662H44.9168C44.6262 53.9608 43.8492 54.5531 42.7564 54.5531ZM46.9234 54.4572V48.2399H47.3951V49.4413H47.4077C47.6562 48.6216 48.2289 48.1378 49.0606 48.1378C49.3091 48.1378 49.5322 48.192 49.646 48.2399V48.7071C49.5133 48.6425 49.2901 48.582 48.9932 48.582C48.0036 48.582 47.393 49.4079 47.393 50.5904V54.4593H46.9213L46.9234 54.4572ZM55.3416 54.5594C53.9898 54.5594 53.0549 53.8002 52.9328 52.7178L52.9265 52.6636H53.3918L53.4045 52.7178C53.5245 53.5604 54.2741 54.1527 55.3353 54.1527C56.3965 54.1527 57.1524 53.6209 57.1524 52.8492V52.8429C57.1524 52.1797 56.7608 51.8376 55.7522 51.6061L54.8763 51.4018C53.6824 51.1264 53.1328 50.6426 53.1328 49.8292V49.8229C53.1328 48.8364 54.0256 48.1378 55.27 48.1378C56.5144 48.1378 57.3946 48.874 57.5209 49.9794L57.5272 50.0336H57.0745L57.0682 49.9919C56.9482 49.1201 56.2723 48.5444 55.27 48.5444C54.2677 48.5444 53.6045 49.0763 53.6045 49.8188V49.825C53.6045 50.4173 54.0088 50.7635 55.0173 50.9971L55.8933 51.1994C57.1251 51.4873 57.6325 51.9586 57.6325 52.82V52.8262C57.6325 53.8482 56.6787 54.5594 55.3458 54.5594H55.3416ZM58.7969 54.4572V48.2399H59.2686V49.5309H59.2812C59.5718 48.7363 60.3551 48.144 61.4479 48.144C62.8607 48.144 63.7177 49.0283 63.7177 50.5466V54.4572H63.2461V50.6009C63.2461 49.2682 62.5344 48.5632 61.3384 48.5632C60.1424 48.5632 59.2686 49.4538 59.2686 50.7448V54.4572H58.7969ZM67.0867 54.5594C65.8612 54.5594 65.0105 53.8357 65.0105 52.7845V52.772C65.0105 51.7146 65.7896 51.1035 67.232 50.9971L69.3923 50.847V50.2901C69.3923 49.2077 68.7354 48.557 67.6236 48.557C66.5118 48.557 65.8549 49.0659 65.6991 49.9668L65.6864 50.0336H65.2337L65.2464 49.9627C65.398 48.826 66.2844 48.1398 67.6236 48.1398C68.9628 48.1398 69.8619 48.9532 69.8619 50.2567V54.4593H69.3902V53.1495H69.3776C69.0638 53.9858 68.1353 54.5594 67.0846 54.5594H67.0867ZM65.4864 52.7845C65.4864 53.5854 66.1813 54.1423 67.152 54.1423C68.3901 54.1423 69.3902 53.2642 69.3902 52.1526V51.2328L67.2951 51.383C66.1244 51.4727 65.4843 51.9565 65.4843 52.7762V52.7887L65.4864 52.7845ZM73.7951 54.5594C72.1001 54.5594 71.02 53.3164 71.02 51.3496V51.3434C71.02 49.3829 72.1128 48.1398 73.7951 48.1398C75.1238 48.1398 76.0945 48.9595 76.2882 50.0357L76.3008 50.0962H75.8355L75.8228 50.0419C75.6228 49.1743 74.85 48.559 73.7951 48.559C72.3886 48.559 71.4895 49.6415 71.4895 51.3454V51.3517C71.4895 53.0786 72.4012 54.1443 73.7951 54.1443C74.8332 54.1443 75.6123 53.5458 75.8165 52.6615L75.8291 52.6072H76.2945L76.2882 52.6615C76.0776 53.7856 75.1048 54.5615 73.7951 54.5615V54.5594ZM77.5221 54.4572V45.8311H77.9937V51.4143H78.0063L81.5311 48.2399H82.1417L79.1897 50.9116L82.1649 54.4572H81.5985L78.8402 51.1994L77.9958 51.9586V54.4572H77.5242H77.5221ZM84.9654 54.5594C83.6136 54.5594 82.6787 53.8002 82.5566 52.7178L82.5502 52.6636H83.0156L83.0282 52.7178C83.1482 53.5604 83.8978 54.1527 84.959 54.1527C86.0203 54.1527 86.7762 53.6209 86.7762 52.8492V52.8429C86.7762 52.1797 86.3845 51.8376 85.376 51.6061L84.5 51.4018C83.304 51.1264 82.7566 50.6426 82.7566 49.8292V49.8229C82.7566 48.8364 83.6494 48.1378 84.8938 48.1378C86.1382 48.1378 87.0183 48.874 87.1447 49.9794L87.151 50.0336H86.6983L86.692 49.9919C86.5719 49.1201 85.896 48.5444 84.8938 48.5444C83.8915 48.5444 83.2282 49.0763 83.2282 49.8188V49.825C83.2282 50.4173 83.6325 50.7635 84.6411 50.9971L85.517 51.1994C86.7488 51.4873 87.2563 51.9586 87.2563 52.82V52.8262C87.2563 53.8482 86.3024 54.5594 84.9696 54.5594H84.9654ZM88.2585 56.0965L88.747 53.4665H89.265L88.6186 56.0965H88.2564H88.2585ZM92.7414 54.4572V45.8311H93.2172V50.6676H93.2467L97.7316 45.8311H98.336L94.8049 49.6331L98.7402 54.4572H98.1254L94.468 49.9668L93.2193 51.2996V54.4551H92.7435L92.7414 54.4572ZM99.6309 54.4572V48.2399H100.103V49.5309H100.115C100.406 48.7363 101.189 48.144 102.282 48.144C103.695 48.144 104.552 49.0283 104.552 50.5466V54.4572H104.082V50.6009C104.082 49.2682 103.37 48.5632 102.174 48.5632C100.978 48.5632 100.105 49.4538 100.105 50.7448V54.4572H99.633H99.6309ZM108.512 54.5594C106.84 54.5531 105.718 53.3226 105.718 51.3496V51.3371C105.718 49.3704 106.847 48.1398 108.512 48.1398C110.178 48.1398 111.313 49.3662 111.313 51.3371V51.3496C111.313 53.3289 110.178 54.5594 108.512 54.5594ZM108.512 54.1402C109.906 54.1402 110.841 53.0703 110.841 51.3475V51.335C110.841 49.6144 109.9 48.5549 108.512 48.5549C107.125 48.5549 106.19 49.6185 106.19 51.335V51.3475C106.19 53.0682 107.118 54.1339 108.512 54.1402ZM113.694 54.4572L111.871 48.2399H112.359L113.97 53.942H113.983L115.732 48.2399H116.263L118.007 53.942H118.025L119.63 48.2399H120.125L118.297 54.4572H117.754L116.004 48.8385H115.985L114.246 54.4572H113.69H113.694ZM125.292 54.5594C124.412 54.5594 123.982 54.1172 123.982 53.1599V48.6466H123.054V48.2399H123.982V46.561H124.464V48.2399H125.755V48.6466H124.464V53.137C124.464 53.8607 124.755 54.1527 125.376 54.1527C125.532 54.1527 125.671 54.1402 125.757 54.1235V54.5114C125.648 54.5406 125.473 54.5594 125.292 54.5594ZM127.059 54.4572V45.8311H127.524V49.5622H127.543C127.833 48.7322 128.629 48.1461 129.716 48.1461C131.116 48.1461 132.002 49.0659 132.002 50.6155V54.4593H131.537V50.6697C131.537 49.3015 130.79 48.5653 129.594 48.5653C128.398 48.5653 127.524 49.4621 127.524 50.7531V54.4593H127.059V54.4572ZM135.969 54.5594C134.268 54.5594 133.169 53.3456 133.169 51.3559V51.3496C133.169 49.3704 134.272 48.1398 135.902 48.1398C137.532 48.1398 138.612 49.3474 138.612 51.212V51.4268H133.639C133.662 53.1724 134.586 54.1402 135.974 54.1402C137.066 54.1402 137.814 53.5896 138.043 52.724L138.062 52.6761H138.534L138.521 52.7303C138.273 53.8419 137.309 54.5594 135.969 54.5594ZM135.896 48.557C134.622 48.557 133.7 49.5143 133.639 51.0368H138.147C138.086 49.4955 137.176 48.557 135.896 48.557ZM142.764 54.4572V48.6466H141.888V48.2399H142.764V47.2055C142.764 46.1773 143.307 45.7289 144.213 45.7289C144.413 45.7289 144.605 45.7539 144.714 45.7768V46.171C144.588 46.1481 144.43 46.1355 144.261 46.1355C143.621 46.1355 143.23 46.4401 143.23 47.2347V48.2399H144.666V48.6466H143.236V54.4572H142.764ZM147.112 54.5594C145.887 54.5594 145.036 53.8357 145.036 52.7845V52.772C145.036 51.7146 145.815 51.1035 147.258 50.9971L149.418 50.847V50.2901C149.418 49.2077 148.761 48.557 147.649 48.557C146.537 48.557 145.881 49.0659 145.725 49.9668L145.712 50.0336H145.259L145.272 49.9627C145.424 48.826 146.31 48.1398 147.649 48.1398C148.988 48.1398 149.887 48.9532 149.887 50.2567V54.4593H149.416V53.1495H149.403C149.089 53.9858 148.161 54.5594 147.11 54.5594H147.112ZM145.514 52.7845C145.514 53.5854 146.209 54.1423 147.18 54.1423C148.418 54.1423 149.418 53.2642 149.418 52.1526V51.2328L147.323 51.383C146.152 51.4727 145.512 51.9565 145.512 52.7762V52.7887L145.514 52.7845ZM153.821 54.5594C152.126 54.5594 151.046 53.3164 151.046 51.3496V51.3434C151.046 49.3829 152.138 48.1398 153.821 48.1398C155.149 48.1398 156.12 48.9595 156.314 50.0357L156.326 50.0962H155.861L155.848 50.0419C155.648 49.1743 154.876 48.559 153.821 48.559C152.414 48.559 151.515 49.6415 151.515 51.3454V51.3517C151.515 53.0786 152.427 54.1443 153.821 54.1443C154.859 54.1443 155.638 53.5458 155.842 52.6615L155.855 52.6072H156.32L156.314 52.6615C156.103 53.7856 155.13 54.5615 153.821 54.5615V54.5594ZM159.135 54.5594C158.255 54.5594 157.826 54.1172 157.826 53.1599V48.6466H156.897V48.2399H157.826V46.561H158.308V48.2399H159.599V48.6466H158.308V53.137C158.308 53.8607 158.598 54.1527 159.22 54.1527C159.375 54.1527 159.514 54.1402 159.599 54.1235V54.5114C159.489 54.5406 159.314 54.5594 159.133 54.5594H159.135ZM162.904 54.5594C161.553 54.5594 160.618 53.8002 160.496 52.7178L160.489 52.6636H160.955L160.967 52.7178C161.087 53.5604 161.837 54.1527 162.898 54.1527C163.959 54.1527 164.715 53.6209 164.715 52.8492V52.8429C164.715 52.1797 164.324 51.8376 163.315 51.6061L162.439 51.4018C161.245 51.1264 160.696 50.6426 160.696 49.8292V49.8229C160.696 48.8364 161.588 48.1378 162.833 48.1378C164.077 48.1378 164.957 48.874 165.084 49.9794L165.09 50.0336H164.637L164.631 49.9919C164.511 49.1201 163.835 48.5444 162.833 48.5444C161.83 48.5444 161.167 49.0763 161.167 49.8188V49.825C161.167 50.4173 161.571 50.7635 162.58 50.9971L163.456 51.1994C164.688 51.4873 165.195 51.9586 165.195 52.82V52.8262C165.195 53.8482 164.241 54.5594 162.909 54.5594H162.904Z" fill="#00776F"/>
</svg>
