<svg width="145" height="38" viewBox="0 0 145 38" fill="none" xmlns="http://www.w3.org/2000/svg">
<path d="M94.1964 17.0816L98.8667 11.5315C99.0608 11.2986 99.423 11.5056 99.3454 11.7903L98.3363 15.5162C98.2328 15.8784 98.5045 16.2407 98.8667 16.2407H101.157C101.635 16.2407 101.894 16.8229 101.571 17.198L96.8226 22.7999C96.6286 23.0198 96.2793 22.8258 96.3569 22.5411L97.2884 18.7376C97.3789 18.3753 97.1073 18.026 96.758 18.026H94.6362C94.1576 18.026 93.9118 17.4568 94.2222 17.0945L94.1964 17.0816Z" fill="white"/>
<path d="M49.718 9.37099C48.9159 9.37099 48.2431 9.08636 47.6868 8.51712C47.1305 7.94788 46.8459 7.24927 46.8459 6.40835C46.8459 5.56742 47.1305 4.9335 47.6868 4.36426C48.2431 3.79502 48.9288 3.5104 49.718 3.5104C50.5072 3.5104 51.167 3.79502 51.7233 4.36426C52.2796 4.9335 52.5642 5.61917 52.5642 6.40835C52.5642 7.19752 52.2796 7.94788 51.7233 8.51712C51.167 9.08636 50.4942 9.37099 49.718 9.37099ZM47.3505 24.5723V10.0567H52.0467V24.5723H47.3505Z" fill="white"/>
<path d="M52.9523 10.0567H57.3639V11.8808H57.5062C57.9202 11.1951 58.4895 10.6518 59.201 10.2248C59.9126 9.81085 60.8052 9.60386 61.892 9.60386C63.5221 9.60386 64.8158 10.1343 65.7732 11.1951C66.7305 12.256 67.2092 13.705 67.2092 15.555V24.5723H62.513V16.7452C62.513 15.9043 62.3707 15.2316 62.0731 14.7141C61.7755 14.1966 61.2192 13.9378 60.3783 13.9378C59.5374 13.9378 59.2398 14.119 58.8388 14.4812C58.4377 14.8435 58.1402 15.3221 57.9461 15.9043C57.752 16.4865 57.6485 17.1592 57.6485 17.8967V24.5852H52.9523V10.0567Z" fill="white"/>
<path d="M74.3765 25.0251C73.0698 25.0251 71.9313 24.844 70.9739 24.4817C70.0166 24.1195 69.2274 23.6408 68.6064 23.0586C67.9854 22.4765 67.5456 21.8296 67.2868 21.118L71.4138 19.4362C71.7114 19.889 72.0866 20.2512 72.5394 20.5229C72.9792 20.7946 73.5743 20.924 74.2859 20.924C74.9974 20.924 75.3856 20.8981 75.8254 20.8334C76.2653 20.7817 76.4852 20.6135 76.4852 20.3547C76.4852 20.096 76.3817 19.9278 76.1747 19.7984C75.9677 19.6691 75.6961 19.5656 75.3467 19.4879C75.0104 19.3974 74.6093 19.3068 74.1565 19.2163L72.4488 18.8152C71.7114 18.647 71.0128 18.3495 70.3659 17.9484C69.719 17.5344 69.1886 17.0169 68.7875 16.383C68.3736 15.7491 68.1795 14.9987 68.1795 14.1448C68.1795 13.291 68.4641 12.4889 69.0204 11.8161C69.5767 11.1305 70.3141 10.5871 71.2456 10.199C72.1642 9.79792 73.1474 9.60386 74.1953 9.60386C75.2432 9.60386 76.0583 9.72029 76.8992 9.94023C77.7402 10.1731 78.4646 10.5095 79.1115 10.9623C79.7454 11.4151 80.237 12.0102 80.5734 12.7217L76.3947 14.2872C76.123 14.0413 75.8513 13.8343 75.5537 13.6662C75.2562 13.498 74.8422 13.4074 74.3118 13.4074C73.7813 13.4074 73.4062 13.4592 73.1345 13.5756C72.8628 13.692 72.7205 13.8214 72.7205 13.9767C72.7205 14.2095 72.824 14.3907 73.0439 14.52C73.2638 14.6494 73.6649 14.7917 74.2471 14.947L76.3817 15.5162C77.9989 15.9561 79.1762 16.5512 79.9136 17.3015C80.651 18.0519 81.0262 19.0869 81.0262 20.4194C81.0262 21.752 80.7287 22.1142 80.1335 22.8128C79.5384 23.5114 78.7363 24.0548 77.7272 24.4429C76.7181 24.831 75.6055 25.0251 74.4023 25.0251H74.3765Z" fill="white"/>
<path d="M83.7819 9.37099C82.9797 9.37099 82.307 9.08636 81.7507 8.51712C81.1944 7.94788 80.9098 7.24927 80.9098 6.40835C80.9098 5.56742 81.1944 4.9335 81.7507 4.36426C82.307 3.79502 82.9927 3.5104 83.7819 3.5104C84.571 3.5104 85.2308 3.79502 85.7871 4.36426C86.3434 4.9335 86.6281 5.61917 86.6281 6.40835C86.6281 7.19752 86.3434 7.94788 85.7871 8.51712C85.2308 9.08636 84.5581 9.37099 83.7819 9.37099ZM81.4143 24.5723V10.0567H86.1106V24.5723H81.4143Z" fill="white"/>
<path d="M109.76 24.5723V4.19607H114.456V11.5962C114.78 11.0787 115.271 10.6259 115.918 10.2119C116.578 9.79792 117.458 9.60386 118.583 9.60386C119.709 9.60386 120.757 9.83673 121.585 10.3154C122.413 10.7941 123.034 11.4798 123.448 12.3854C123.862 13.291 124.069 14.3389 124.069 15.555V24.5723H119.372V16.8875C119.372 16.2407 119.282 15.7103 119.088 15.2963C118.894 14.8823 118.635 14.5718 118.286 14.3518C117.949 14.1448 117.522 14.0413 117.031 14.0413C116.539 14.0413 116.009 14.1837 115.621 14.4812C115.232 14.7788 114.935 15.1928 114.741 15.7361C114.547 16.2795 114.443 16.9264 114.443 17.6897V24.5723H109.747H109.76Z" fill="white"/>
<path d="M133.345 20.303C133.073 20.3936 133.073 20.4324 132.542 20.4324C132.012 20.4324 131.637 20.2771 131.404 19.9537C131.184 19.6303 131.068 19.1516 131.068 18.5047V14.0931H134.173V10.0567H131.068V5.95554H126.371V10.0567H124.353V14.0931H126.371V19.9278C126.371 21.4673 126.798 22.6576 127.665 23.5114C128.532 24.3653 129.787 24.7922 131.443 24.7922C131.896 24.7922 132.374 24.7534 132.853 24.6758C133.332 24.5982 133.823 24.4688 134.341 24.3006V19.7984C133.94 20.0572 133.616 20.2124 133.345 20.303Z" fill="white"/>
<path d="M90.0564 9.26749C94.3775 4.92056 101.39 4.92056 105.711 9.26749C110.032 13.6144 110.032 20.6782 105.711 25.0251L105.504 25.2321C101.234 29.3203 94.5327 29.3203 90.2634 25.2321L90.0564 25.0251C85.7354 20.6782 85.7354 13.6144 90.0564 9.26749ZM103.369 11.635C100.342 8.58181 95.4384 8.58181 92.411 11.635C89.3837 14.6882 89.3837 19.6173 92.411 22.6705C95.4384 25.7237 100.342 25.7237 103.369 22.6705C106.396 19.6173 106.396 14.6882 103.369 11.635Z" fill="url(#paint0_linear_4055_13639)"/>
<path d="M105.568 29.8119C104.896 29.0615 104.908 27.9101 105.62 27.1986C106.332 26.487 107.47 26.4611 108.207 27.1468L114.948 33.1756C115.905 34.0683 115.944 35.5819 115.025 36.5134C114.107 37.4449 112.593 37.4061 111.713 36.4358L105.568 29.8119Z" fill="url(#paint1_linear_4055_13639)"/>
<path d="M8.87498 25.0251C8.1893 25.0251 7.56831 24.9475 7.01201 24.7793C6.45571 24.624 5.97703 24.4041 5.58891 24.1324C5.20079 23.8607 4.89029 23.5632 4.67036 23.2268H4.50218V24.5594H0V4.18313H4.72211V11.4668C4.95498 11.1822 5.25254 10.8976 5.62772 10.6C6.0029 10.3025 6.46864 10.0696 7.02495 9.87554C7.58125 9.68148 8.1893 9.59092 8.87498 9.59092C10.1816 9.59092 11.346 9.90141 12.381 10.5353C13.403 11.1563 14.2181 12.049 14.8003 13.2134C15.3824 14.3648 15.68 15.7361 15.68 17.3145C15.68 18.8928 15.3824 20.2512 14.7873 21.4156C14.1922 22.567 13.3772 23.4597 12.3551 24.0936C11.3331 24.7146 10.1687 25.038 8.88791 25.038L8.87498 25.0251ZM7.7365 20.7299C8.30574 20.7299 8.83617 20.5876 9.31485 20.2901C9.79352 19.9925 10.1946 19.5914 10.5051 19.0739C10.8156 18.5565 10.9708 17.9743 10.9708 17.3145C10.9708 16.6547 10.8156 16.0725 10.5051 15.5938C10.1946 15.1151 9.79352 14.727 9.31485 14.4424C8.83617 14.1578 8.30574 14.0155 7.7365 14.0155C7.16726 14.0155 6.6627 14.1578 6.17109 14.4424C5.67947 14.727 5.27841 15.1151 4.98085 15.6068C4.6833 16.0984 4.52805 16.6676 4.52805 17.3145C4.52805 17.9613 4.6833 18.6211 4.98085 19.1257C5.27841 19.6303 5.67947 20.0184 6.17109 20.303C6.6627 20.5876 7.18019 20.7299 7.7365 20.7299Z" fill="url(#paint2_linear_4055_13639)"/>
<path d="M18.7332 9.37099C17.9311 9.37099 17.2583 9.08636 16.702 8.51712C16.1457 7.94788 15.8611 7.24927 15.8611 6.40835C15.8611 5.56742 16.1457 4.9335 16.702 4.36426C17.2583 3.79502 17.944 3.5104 18.7332 3.5104C19.5224 3.5104 20.1822 3.79502 20.7385 4.36426C21.2948 4.9335 21.5794 5.61917 21.5794 6.40835C21.5794 7.19752 21.2948 7.94788 20.7385 8.51712C20.1822 9.08636 19.5094 9.37099 18.7332 9.37099ZM16.3657 24.5723V10.0567H21.0619V24.5723H16.3657Z" fill="url(#paint3_linear_4055_13639)"/>
<path d="M30.4544 20.303C30.1827 20.3936 30.1827 20.4324 29.6523 20.4324C29.1218 20.4324 28.7466 20.2771 28.5138 19.9537C28.2938 19.6303 28.1774 19.1516 28.1774 18.5047V14.0931H31.2824V10.0567H28.1774V5.95554H23.4812V10.0567H21.45V14.0931H23.4812V19.9278C23.4812 21.4673 23.9081 22.6576 24.7749 23.5114C25.6288 24.3653 26.8837 24.7922 28.5397 24.7922C28.9925 24.7922 29.4711 24.7534 29.9498 24.6758C30.4414 24.5982 30.933 24.4688 31.4505 24.3006V19.7984C31.0495 20.0572 30.7261 20.2124 30.4544 20.303Z" fill="url(#paint4_linear_4055_13639)"/>
<path d="M45.8497 13.7179C45.2934 12.6053 44.4784 11.7126 43.3917 11.0528C42.3049 10.393 40.843 10.0567 39.407 10.0567C37.9709 10.0567 36.6772 10.406 35.5387 11.1175C34.4002 11.8291 33.4946 12.7735 32.8348 13.9508C32.175 15.1281 31.8387 16.3054 31.8387 17.7932C31.8387 19.2809 32.175 20.6005 32.8348 21.752C33.4946 22.9034 34.4132 23.8219 35.5775 24.4817C36.7419 25.1415 38.0744 25.4779 39.5493 25.4779H39.5752C41.2053 25.4779 42.6025 25.1415 43.7539 24.4429C44.9053 23.7443 45.8239 22.8128 46.4837 21.6614L43.0941 20.0442C42.7836 20.5617 42.3308 20.9887 41.7357 21.325C41.1276 21.6743 40.3255 21.8425 39.6657 21.8425C39.0059 21.8425 38.372 21.6873 37.7898 21.3638C37.2076 21.0404 36.729 20.5617 36.3667 19.9407C36.1895 19.6367 36.0562 19.2835 35.9657 18.9058H46.5742C46.6001 18.7893 46.626 18.5953 46.6518 18.2977C46.6777 18.0131 46.6907 18.7505 46.6907 17.405C46.6907 16.0596 46.406 14.8305 45.8497 13.7179ZM36.1416 15.8914C36.1972 15.7529 36.258 15.6197 36.3279 15.4903C36.6513 14.8823 37.1041 14.3907 37.6734 14.0284C38.2426 13.6662 38.8765 13.485 39.5752 13.485C40.0538 13.485 40.4808 13.5756 40.8559 13.7438C41.2441 13.912 41.5546 14.119 41.8262 14.3648C42.085 14.6106 42.292 14.8693 42.4472 15.141C42.6025 15.4127 42.693 15.6585 42.706 15.8914H36.1416Z" fill="url(#paint5_linear_4055_13639)"/>
<path d="M141.02 3.31825H144.241V6.11437H141.02V9.33631H138.163V6.11437H134.981V3.31825H138.163V0.0963135H141.02V3.31825Z" fill="url(#paint6_linear_4055_13639)"/>
<defs>
<linearGradient id="paint0_linear_4055_13639" x1="24.7719" y1="0.0963135" x2="35.1235" y2="49.8954" gradientUnits="userSpaceOnUse">
<stop stop-color="#00C8B3"/>
<stop offset="1" stop-color="#00C3D0"/>
</linearGradient>
<linearGradient id="paint1_linear_4055_13639" x1="24.7719" y1="0.0963135" x2="35.1235" y2="49.8954" gradientUnits="userSpaceOnUse">
<stop stop-color="#00C8B3"/>
<stop offset="1" stop-color="#00C3D0"/>
</linearGradient>
<linearGradient id="paint2_linear_4055_13639" x1="24.7719" y1="0.0963135" x2="35.1235" y2="49.8954" gradientUnits="userSpaceOnUse">
<stop stop-color="#00C8B3"/>
<stop offset="1" stop-color="#00C3D0"/>
</linearGradient>
<linearGradient id="paint3_linear_4055_13639" x1="24.7719" y1="0.0963135" x2="35.1235" y2="49.8954" gradientUnits="userSpaceOnUse">
<stop stop-color="#00C8B3"/>
<stop offset="1" stop-color="#00C3D0"/>
</linearGradient>
<linearGradient id="paint4_linear_4055_13639" x1="24.7719" y1="0.0963135" x2="35.1235" y2="49.8954" gradientUnits="userSpaceOnUse">
<stop stop-color="#00C8B3"/>
<stop offset="1" stop-color="#00C3D0"/>
</linearGradient>
<linearGradient id="paint5_linear_4055_13639" x1="24.7719" y1="0.0963135" x2="35.1235" y2="49.8954" gradientUnits="userSpaceOnUse">
<stop stop-color="#00C8B3"/>
<stop offset="1" stop-color="#00C3D0"/>
</linearGradient>
<linearGradient id="paint6_linear_4055_13639" x1="136.572" y1="0.0963667" x2="142.896" y2="7.93688" gradientUnits="userSpaceOnUse">
<stop stop-color="#00C8B3"/>
<stop offset="1" stop-color="#00C3D0"/>
</linearGradient>
</defs>
</svg>
