<svg width="121" height="31" viewBox="0 0 121 31" fill="none" xmlns="http://www.w3.org/2000/svg">
<path d="M81.1133 5.12835C85.0053 1.25616 91.321 1.25616 95.2129 5.12835C99.1049 9.00054 99.1049 15.2929 95.2129 19.165L95.0265 19.3494C91.1811 22.9911 85.1451 22.9911 81.2998 19.3494L81.1133 19.165C77.2214 15.2929 77.2214 9.00054 81.1133 5.12835ZM93.1038 7.23731C90.3771 4.51756 85.9608 4.51756 83.2341 7.23731C80.5074 9.95707 80.5074 14.3479 83.2341 17.0676C85.9608 19.7874 90.3771 19.7874 93.1038 17.0676C95.8305 14.3479 95.8305 9.95707 93.1038 7.23731Z" fill="#3B9586"/>
<path d="M95.0847 23.4291C94.4788 22.7607 94.4905 21.735 95.1313 21.1011C95.7722 20.4673 96.7977 20.4443 97.4619 21.055L103.533 26.4254C104.395 27.2206 104.43 28.5689 103.603 29.3987C102.775 30.2285 101.412 30.1939 100.62 29.3295L95.0847 23.4291Z" fill="#3B9586"/>
<path d="M84.8421 12.0891L89.0487 7.14512C89.2235 6.93768 89.5498 7.12207 89.4799 7.3756L88.571 10.6946C88.4777 11.0173 88.7225 11.34 89.0487 11.34H91.1112C91.5424 11.34 91.7754 11.8586 91.4841 12.1928L87.2076 17.1829C87.0328 17.3788 86.7182 17.2059 86.7881 16.9524L87.6271 13.5642C87.7087 13.2415 87.464 12.9304 87.1494 12.9304H85.2383C84.8072 12.9304 84.5858 12.4233 84.8655 12.1006L84.8421 12.0891Z" fill="#023432"/>
<path d="M7.99364 19.165C7.37606 19.165 6.81674 19.0959 6.31568 18.9461C5.81462 18.8078 5.38347 18.6119 5.0339 18.3699C4.68432 18.1278 4.40466 17.8628 4.20657 17.5632H4.05508V18.7502H0V0.599268H4.25318V7.08749C4.46292 6.83396 4.73093 6.58042 5.06886 6.31536C5.40678 6.0503 5.82627 5.84286 6.32733 5.66999C6.82839 5.49713 7.37606 5.41646 7.99364 5.41646C9.17055 5.41646 10.2193 5.69304 11.1515 6.25774C12.072 6.81091 12.8061 7.60609 13.3305 8.64328C13.8549 9.66895 14.1229 10.8905 14.1229 12.2965C14.1229 13.7025 13.8549 14.9125 13.3189 15.9497C12.7828 16.9754 12.0487 17.7706 11.1282 18.3353C10.2076 18.8885 9.1589 19.1766 8.00529 19.1766L7.99364 19.165ZM6.96822 15.339C7.48093 15.339 7.95868 15.2122 8.38983 14.9471C8.82097 14.6821 9.1822 14.3248 9.46186 13.8638C9.74152 13.4029 9.88136 12.8843 9.88136 12.2965C9.88136 11.7088 9.74152 11.1902 9.46186 10.7638C9.1822 10.3374 8.82097 9.99164 8.38983 9.7381C7.95868 9.48456 7.48093 9.3578 6.96822 9.3578C6.45551 9.3578 6.00106 9.48456 5.55826 9.7381C5.11547 9.99164 4.75424 10.3374 4.48623 10.7753C4.21822 11.2132 4.07839 11.7203 4.07839 12.2965C4.07839 12.8727 4.21822 13.4605 4.48623 13.9099C4.75424 14.3594 5.11547 14.7051 5.55826 14.9586C6.00106 15.2122 6.46716 15.339 6.96822 15.339Z" fill="#3B9586"/>
<path d="M16.8729 5.22054C16.1504 5.22054 15.5445 4.96701 15.0434 4.45993C14.5424 3.95286 14.286 3.33055 14.286 2.58146C14.286 1.83238 14.5424 1.26768 15.0434 0.760609C15.5445 0.253536 16.1621 0 16.8729 0C17.5837 0 18.178 0.253536 18.679 0.760609C19.1801 1.26768 19.4364 1.87847 19.4364 2.58146C19.4364 3.28445 19.1801 3.95286 18.679 4.45993C18.178 4.96701 17.572 5.22054 16.8729 5.22054ZM14.7405 18.7617V5.83134H18.9703V18.7617H14.7405Z" fill="#3B9586"/>
<path d="M27.4301 14.9586C27.1854 15.0393 27.1854 15.0739 26.7076 15.0739C26.2299 15.0739 25.8919 14.9356 25.6822 14.6475C25.4841 14.3594 25.3792 13.933 25.3792 13.3568V9.42694H28.1758V5.83134H25.3792V2.17811H21.1494V5.83134H19.3199V9.42694H21.1494V14.6244C21.1494 15.9958 21.5339 17.0561 22.3146 17.8167C23.0837 18.5773 24.214 18.9576 25.7055 18.9576C26.1133 18.9576 26.5445 18.923 26.9756 18.8539C27.4184 18.7847 27.8612 18.6695 28.3273 18.5197V14.5092C27.9661 14.7397 27.6748 14.878 27.4301 14.9586Z" fill="#3B9586"/>
<path d="M44.7807 5.22054C44.0583 5.22054 43.4523 4.96701 42.9513 4.45993C42.4502 3.95286 42.1939 3.33055 42.1939 2.58146C42.1939 1.83238 42.4502 1.26768 42.9513 0.760609C43.4523 0.253536 44.0699 0 44.7807 0C45.4915 0 46.0858 0.253536 46.5869 0.760609C47.0879 1.26768 47.3443 1.87847 47.3443 2.58146C47.3443 3.28445 47.0879 3.95286 46.5869 4.45993C46.0858 4.96701 45.4799 5.22054 44.7807 5.22054ZM42.6483 18.7617V5.83134H46.8782V18.7617H42.6483Z" fill="#023432"/>
<path d="M47.6938 5.83134H51.6674V7.45627H51.7955C52.1684 6.84548 52.6811 6.36146 53.322 5.98115C53.9629 5.61237 54.7669 5.42798 55.7458 5.42798C57.214 5.42798 58.3792 5.90048 59.2415 6.84548C60.1038 7.79048 60.535 9.08121 60.535 10.7292V18.7617H56.3051V11.7894C56.3051 11.0404 56.1769 10.4411 55.9089 9.98011C55.6409 9.51914 55.1398 9.28865 54.3824 9.28865C53.625 9.28865 53.357 9.44999 52.9958 9.77267C52.6345 10.0954 52.3665 10.5218 52.1917 11.0404C52.0169 11.559 51.9237 12.1582 51.9237 12.8151V18.7732H47.6938V5.83134Z" fill="#023432"/>
<path d="M66.9905 19.165C65.8136 19.165 64.7881 19.0037 63.9258 18.681C63.0635 18.3583 62.3527 17.9319 61.7934 17.4133C61.2341 16.8947 60.8379 16.3185 60.6049 15.6847L64.322 14.1865C64.59 14.5899 64.928 14.9125 65.3358 15.1546C65.732 15.3966 66.268 15.5118 66.9089 15.5118C67.5498 15.5118 67.8993 15.4888 68.2955 15.4311C68.6917 15.385 68.8898 15.2352 68.8898 15.0047C68.8898 14.7743 68.7966 14.6244 68.6102 14.5092C68.4237 14.3939 68.179 14.3018 67.8644 14.2326C67.5614 14.1519 67.2002 14.0713 66.7924 13.9906L65.2542 13.6333C64.59 13.4835 63.9608 13.2185 63.3782 12.8612C62.7955 12.4924 62.3178 12.0315 61.9566 11.4668C61.5837 10.9021 61.4089 10.2336 61.4089 9.47304C61.4089 8.71243 61.6652 7.99792 62.1663 7.39865C62.6674 6.78786 63.3316 6.30384 64.1705 5.9581C64.9979 5.60085 65.8835 5.42798 66.8273 5.42798C67.7712 5.42798 68.5053 5.5317 69.2627 5.72762C70.0201 5.93506 70.6727 6.23469 71.2553 6.63804C71.8263 7.0414 72.2691 7.57152 72.572 8.20536L68.8083 9.59981C68.5636 9.38085 68.3188 9.19646 68.0508 9.04664C67.7828 8.89682 67.41 8.81615 66.9322 8.81615C66.4544 8.81615 66.1165 8.86225 65.8718 8.96597C65.6271 9.06969 65.4989 9.18493 65.4989 9.32322C65.4989 9.53066 65.5921 9.692 65.7902 9.80725C65.9883 9.92249 66.3496 10.0493 66.8739 10.1876L68.7966 10.6946C70.2532 11.0865 71.3136 11.6166 71.9777 12.285C72.6419 12.9534 72.9799 13.8754 72.9799 15.0624C72.9799 16.2494 72.7119 16.5721 72.1758 17.1944C71.6398 17.8167 70.9174 18.3007 70.0085 18.6464C69.0996 18.9922 68.0975 19.165 67.0138 19.165H66.9905Z" fill="#023432"/>
<path d="M75.4619 5.22054C74.7394 5.22054 74.1335 4.96701 73.6324 4.45993C73.1313 3.95286 72.875 3.33055 72.875 2.58146C72.875 1.83238 73.1313 1.26768 73.6324 0.760609C74.1335 0.253536 74.7511 0 75.4619 0C76.1727 0 76.7669 0.253536 77.268 0.760609C77.7691 1.26768 78.0254 1.87847 78.0254 2.58146C78.0254 3.28445 77.7691 3.95286 77.268 4.45993C76.7669 4.96701 76.161 5.22054 75.4619 5.22054ZM73.3294 18.7617V5.83134H77.5593V18.7617H73.3294Z" fill="#023432"/>
<path d="M98.8602 18.7617V0.610792H103.09V7.20274C103.381 6.74176 103.824 6.33841 104.407 5.96963C105.001 5.60085 105.793 5.42798 106.807 5.42798C107.821 5.42798 108.765 5.63542 109.511 6.06182C110.256 6.48823 110.816 7.09902 111.189 7.90572C111.561 8.71243 111.748 9.6459 111.748 10.7292V18.7617H107.518V11.9162C107.518 11.34 107.436 10.8675 107.262 10.4987C107.087 10.1299 106.854 9.85334 106.539 9.65743C106.236 9.47304 105.852 9.38084 105.409 9.38084C104.966 9.38084 104.488 9.50761 104.139 9.77267C103.789 10.0377 103.521 10.4065 103.346 10.8905C103.172 11.3746 103.078 11.9508 103.078 12.6307V18.7617H98.8485H98.8602Z" fill="#023432"/>
<path d="M120.103 14.9586C119.858 15.0393 119.858 15.0739 119.38 15.0739C118.903 15.0739 118.565 14.9356 118.355 14.6475C118.157 14.3594 118.052 13.933 118.052 13.3568V9.42694H120.849V5.83134H118.052V2.17811H113.822V5.83134H112.004V9.42694H113.822V14.6244C113.822 15.9958 114.207 17.0561 114.987 17.8167C115.768 18.5773 116.898 18.9576 118.39 18.9576C118.798 18.9576 119.229 18.923 119.66 18.8539C120.091 18.7847 120.534 18.6695 121 18.5197V14.5092C120.639 14.7397 120.347 14.878 120.103 14.9586Z" fill="#023432"/>
<path d="M41.2966 9.09274C40.7955 8.10164 40.0614 7.30646 39.0826 6.71871C38.1038 6.13097 36.7871 5.83134 35.4936 5.83134C34.2002 5.83134 33.035 6.14249 32.0095 6.77633C30.9841 7.41018 30.1684 8.25146 29.5741 9.30017C28.9799 10.3489 28.6769 11.3976 28.6769 12.7229C28.6769 14.0482 28.9799 15.2237 29.5741 16.2494C30.1684 17.275 30.9958 18.0933 32.0445 18.681C33.0932 19.2688 34.2934 19.5684 35.6218 19.5684H35.6451C37.1133 19.5684 38.3718 19.2688 39.4089 18.6464C40.446 18.0241 41.2733 17.1944 41.8676 16.1687L38.8146 14.7282C38.535 15.1891 38.1271 15.5694 37.5911 15.8691C37.0434 16.1802 36.321 16.33 35.7267 16.33C35.1324 16.33 34.5614 16.1918 34.0371 15.9036C33.5127 15.6155 33.0816 15.1891 32.7553 14.636C32.5957 14.3651 32.4756 14.0505 32.3941 13.714H41.9491C41.9725 13.6103 41.9958 13.4374 42.0191 13.1724C42.0424 12.9188 42.054 13.5757 42.054 12.3772C42.054 11.1786 41.7977 10.0838 41.2966 9.09274ZM32.5525 11.0288C32.6026 10.9055 32.6574 10.7868 32.7203 10.6716C33.0116 10.1299 33.4195 9.692 33.9322 9.36932C34.4449 9.04664 35.0159 8.8853 35.6451 8.8853C36.0763 8.8853 36.4608 8.96597 36.7987 9.11578C37.1483 9.2656 37.428 9.44999 37.6727 9.66895C37.9057 9.88792 38.0922 10.1184 38.232 10.3604C38.3718 10.6024 38.4534 10.8214 38.465 11.0288H32.5525Z" fill="#3B9586"/>
</svg>
