<svg preserveAspectRatio="none" width="100%" height="100%" overflow="visible" style="display: block;" viewBox="0 0 220 55" fill="none" xmlns="http://www.w3.org/2000/svg">
<g id="Logo">
<path d="M147.479 9.40198C154.555 2.30296 166.038 2.30296 173.114 9.40198C180.191 16.501 180.191 28.0369 173.114 35.1359L172.775 35.474C165.784 42.1504 154.809 42.1504 147.818 35.474L147.479 35.1359C140.403 28.0369 140.403 16.501 147.479 9.40198ZM169.28 13.2684C164.322 8.28219 156.292 8.28219 151.335 13.2684C146.377 18.2546 146.377 26.3044 151.335 31.2906C156.292 36.2768 164.322 36.2768 169.28 31.2906C174.237 26.3044 174.237 18.2546 169.28 13.2684Z" fill="var(--fill-0, #3B9586)"/>
<path d="M172.881 42.9533C171.78 41.7279 171.801 39.8475 172.966 38.6854C174.131 37.5234 175.996 37.4811 177.203 38.6009L188.242 48.4466C189.809 49.9044 189.873 52.3764 188.369 53.8976C186.864 55.4188 184.386 55.3554 182.945 53.7708L172.881 42.9533Z" fill="var(--fill-0, #3B9586)"/>
<path d="M154.258 22.1633L161.907 13.0994C162.225 12.7191 162.818 13.0571 162.691 13.5219L161.038 19.6068C160.869 20.1984 161.314 20.79 161.907 20.79H165.657C166.441 20.79 166.864 21.7407 166.335 22.3535L158.559 31.5019C158.242 31.8611 157.669 31.5442 157.797 31.0793L159.322 24.8677C159.47 24.2761 159.025 23.7056 158.453 23.7056H154.979C154.195 23.7056 153.792 22.776 154.301 22.1844L154.258 22.1633Z" fill="#023432"/>
<path d="M14.5339 35.1359C13.411 35.1359 12.3941 35.0091 11.4831 34.7345C10.572 34.4809 9.78813 34.1218 9.15254 33.6781C8.51695 33.2344 8.00847 32.7484 7.6483 32.1991H7.37288V34.3753H0V1.09866H7.73305V12.9937C8.11441 12.5289 8.60169 12.0641 9.2161 11.5782C9.83051 11.0922 10.5932 10.7119 11.5042 10.395C12.4153 10.0781 13.411 9.93017 14.5339 9.93017C16.6737 9.93017 18.5805 10.4372 20.2754 11.4725C21.9492 12.4867 23.2839 13.9445 24.2373 15.846C25.1907 17.7264 25.678 19.966 25.678 22.5436C25.678 25.1212 25.1907 27.3397 24.2161 29.2412C23.2415 31.1216 21.9068 32.5794 20.233 33.6147C18.5593 34.6288 16.6525 35.157 14.5551 35.157L14.5339 35.1359ZM12.6695 28.1214C13.6017 28.1214 14.4703 27.889 15.2542 27.4031C16.0381 26.9171 16.6949 26.2621 17.2034 25.417C17.7119 24.5719 17.9661 23.6211 17.9661 22.5436C17.9661 21.4661 17.7119 20.5153 17.2034 19.7336C16.6949 18.9518 16.0381 18.318 15.2542 17.8532C14.4703 17.3884 13.6017 17.156 12.6695 17.156C11.7373 17.156 10.911 17.3884 10.1059 17.8532C9.30085 18.318 8.64407 18.9518 8.15678 19.7547C7.66949 20.5576 7.41525 21.4872 7.41525 22.5436C7.41525 23.6 7.66949 24.6775 8.15678 25.5015C8.64407 26.3255 9.30085 26.9594 10.1059 27.4242C10.911 27.889 11.7585 28.1214 12.6695 28.1214Z" fill="var(--fill-0, #3B9586)"/>
<path d="M30.678 9.571C29.3644 9.571 28.2627 9.10618 27.3517 8.17655C26.4407 7.24691 25.9746 6.106 25.9746 4.73268C25.9746 3.35936 26.4407 2.32408 27.3517 1.39445C28.2627 0.464817 29.3856 0 30.678 0C31.9703 0 33.0508 0.464817 33.9619 1.39445C34.8729 2.32408 35.339 3.44387 35.339 4.73268C35.339 6.02149 34.8729 7.24691 33.9619 8.17655C33.0508 9.10618 31.9492 9.571 30.678 9.571ZM26.8008 34.3964V10.6908H34.4915V34.3964H26.8008Z" fill="var(--fill-0, #3B9586)"/>
<path d="M49.8729 27.4242C49.428 27.5721 49.428 27.6355 48.5593 27.6355C47.6907 27.6355 47.0763 27.3819 46.6949 26.8537C46.3347 26.3255 46.1441 25.5438 46.1441 24.4874V17.2827H51.2288V10.6908H46.1441V3.9932H38.4534V10.6908H35.1271V17.2827H38.4534V26.8115C38.4534 29.3257 39.1525 31.2695 40.572 32.6639C41.9703 34.0584 44.0254 34.7556 46.7373 34.7556C47.4788 34.7556 48.2627 34.6922 49.0466 34.5655C49.8517 34.4387 50.6568 34.2274 51.5042 33.9527V26.6002C50.8475 27.0227 50.3178 27.2763 49.8729 27.4242Z" fill="var(--fill-0, #3B9586)"/>
<path d="M81.4195 9.571C80.1059 9.571 79.0042 9.10618 78.0932 8.17655C77.1822 7.24691 76.7161 6.106 76.7161 4.73268C76.7161 3.35936 77.1822 2.32408 78.0932 1.39445C79.0042 0.464817 80.1271 0 81.4195 0C82.7119 0 83.7924 0.464817 84.7034 1.39445C85.6144 2.32408 86.0805 3.44387 86.0805 4.73268C86.0805 6.02149 85.6144 7.24691 84.7034 8.17655C83.7924 9.10618 82.6907 9.571 81.4195 9.571ZM77.5424 34.3964V10.6908H85.233V34.3964H77.5424Z" fill="#023432"/>
<path d="M86.7161 10.6908H93.9407V13.6698H94.1737C94.8517 12.55 95.7839 11.6627 96.9492 10.9654C98.1144 10.2894 99.5763 9.9513 101.356 9.9513C104.025 9.9513 106.144 10.8176 107.712 12.55C109.28 14.2825 110.064 16.6489 110.064 19.6702V34.3964H102.373V21.614C102.373 20.2407 102.14 19.142 101.653 18.2969C101.165 17.4518 100.254 17.0292 98.8771 17.0292C97.5 17.0292 97.0127 17.325 96.3559 17.9166C95.6991 18.5082 95.2119 19.2899 94.8941 20.2407C94.5763 21.1914 94.4068 22.2901 94.4068 23.4944V34.4176H86.7161V10.6908Z" fill="#023432"/>
<path d="M121.801 35.1359C119.661 35.1359 117.797 34.8401 116.229 34.2485C114.661 33.6569 113.369 32.8752 112.352 31.9245C111.335 30.9737 110.614 29.9173 110.191 28.7552L116.949 26.0086C117.436 26.7481 118.051 27.3397 118.792 27.7834C119.513 28.227 120.487 28.4383 121.653 28.4383C122.818 28.4383 123.453 28.3961 124.174 28.2904C124.894 28.2059 125.254 27.9313 125.254 27.5087C125.254 27.0861 125.085 26.8115 124.746 26.6002C124.407 26.3889 123.962 26.2199 123.39 26.0931C122.839 25.9452 122.182 25.7973 121.441 25.6494L118.644 24.9945C117.436 24.7198 116.292 24.2338 115.233 23.5789C114.174 22.9028 113.305 22.0577 112.648 21.0224C111.97 19.9871 111.653 18.7617 111.653 17.3672C111.653 15.9728 112.119 14.6629 113.03 13.5642C113.941 12.4444 115.148 11.557 116.674 10.9232C118.178 10.2682 119.788 9.9513 121.504 9.9513C123.22 9.9513 124.555 10.1415 125.932 10.5006C127.309 10.8809 128.496 11.4303 129.555 12.1697C130.593 12.9092 131.398 13.8811 131.949 15.0432L125.106 17.5996C124.661 17.1982 124.216 16.8602 123.729 16.5855C123.242 16.3108 122.564 16.1629 121.695 16.1629C120.826 16.1629 120.212 16.2475 119.767 16.4376C119.322 16.6278 119.089 16.839 119.089 17.0926C119.089 17.4729 119.258 17.7687 119.619 17.98C119.979 18.1912 120.636 18.4236 121.589 18.6772L125.085 19.6068C127.733 20.3252 129.661 21.2971 130.869 22.5225C132.076 23.7479 132.691 25.4381 132.691 27.6143C132.691 29.7905 132.203 30.3821 131.229 31.523C130.254 32.6639 128.941 33.5513 127.288 34.1851C125.636 34.819 123.814 35.1359 121.843 35.1359H121.801Z" fill="#023432"/>
<path d="M137.203 9.571C135.89 9.571 134.788 9.10618 133.877 8.17655C132.966 7.24691 132.5 6.106 132.5 4.73268C132.5 3.35936 132.966 2.32408 133.877 1.39445C134.788 0.464817 135.911 0 137.203 0C138.496 0 139.576 0.464817 140.487 1.39445C141.398 2.32408 141.864 3.44387 141.864 4.73268C141.864 6.02149 141.398 7.24691 140.487 8.17655C139.576 9.10618 138.475 9.571 137.203 9.571ZM133.326 34.3964V10.6908H141.017V34.3964H133.326Z" fill="#023432"/>
<path d="M179.746 34.3964V1.11979H187.436V13.205C187.966 12.3599 188.771 11.6204 189.831 10.9443C190.911 10.2682 192.352 9.9513 194.195 9.9513C196.038 9.9513 197.754 10.3316 199.11 11.1133C200.466 11.8951 201.483 13.0149 202.161 14.4938C202.839 15.9728 203.178 17.6842 203.178 19.6702V34.3964H195.487V21.8464C195.487 20.79 195.339 19.9237 195.021 19.2476C194.703 18.5715 194.28 18.0645 193.708 17.7053C193.157 17.3672 192.458 17.1982 191.653 17.1982C190.847 17.1982 189.979 17.4306 189.343 17.9166C188.708 18.4025 188.22 19.0786 187.903 19.966C187.585 20.8534 187.415 21.9098 187.415 23.1563V34.3964H179.725H179.746Z" fill="#023432"/>
<path d="M218.369 27.4242C217.924 27.5721 217.924 27.6355 217.055 27.6355C216.186 27.6355 215.572 27.3819 215.191 26.8537C214.831 26.3255 214.64 25.5438 214.64 24.4874V17.2827H219.725V10.6908H214.64V3.9932H206.949V10.6908H203.644V17.2827H206.949V26.8115C206.949 29.3257 207.648 31.2695 209.068 32.6639C210.487 34.0584 212.542 34.7556 215.254 34.7556C215.996 34.7556 216.78 34.6922 217.564 34.5655C218.347 34.4387 219.153 34.2274 220 33.9527V26.6002C219.343 27.0227 218.814 27.2763 218.369 27.4242Z" fill="#023432"/>
<path d="M75.0847 16.67C74.1737 14.853 72.839 13.3952 71.0593 12.3176C69.2797 11.2401 66.8856 10.6908 64.5339 10.6908C62.1822 10.6908 60.0636 11.2612 58.1992 12.4233C56.3347 13.5853 54.8517 15.1277 53.7712 17.0503C52.6907 18.973 52.1398 20.8956 52.1398 23.3253C52.1398 25.7551 52.6907 27.9101 53.7712 29.7905C54.8517 31.6709 56.3559 33.171 58.2627 34.2485C60.1695 35.3261 62.3517 35.8754 64.7669 35.8754H64.8093C67.4788 35.8754 69.7669 35.3261 71.6525 34.1851C73.5381 33.0442 75.0424 31.523 76.1229 29.6426L70.572 27.0016C70.0636 27.8467 69.322 28.544 68.3475 29.0933C67.3517 29.6638 66.0381 29.9384 64.9576 29.9384C63.8771 29.9384 62.839 29.6849 61.8856 29.1567C60.9322 28.6285 60.1483 27.8467 59.5551 26.8326C59.2648 26.3361 59.0466 25.7593 58.8983 25.1424H76.2712C76.3136 24.9522 76.3559 24.6353 76.3983 24.1493C76.4407 23.6845 76.4619 24.8888 76.4619 22.6915C76.4619 20.4942 75.9958 18.487 75.0847 16.67ZM59.1864 20.2195C59.2775 19.9935 59.3771 19.7758 59.4915 19.5646C60.0212 18.5715 60.7627 17.7687 61.6949 17.1771C62.6271 16.5855 63.6652 16.2897 64.8093 16.2897C65.5932 16.2897 66.2924 16.4376 66.9068 16.7123C67.5424 16.9869 68.0508 17.325 68.4958 17.7264C68.9195 18.1278 69.2585 18.5504 69.5127 18.9941C69.7669 19.4378 69.9153 19.8392 69.9364 20.2195H59.1864Z" fill="var(--fill-0, #3B9586)"/>
</g>
</svg>
