<svg width="81" height="88" viewBox="0 0 81 88" fill="none" xmlns="http://www.w3.org/2000/svg">
<g opacity="0.25">
<path d="M9.09099 9.14177C21.2123 -3.04726 40.8822 -3.04726 53.0036 9.14177C65.1249 21.3308 65.1249 41.138 53.0036 53.327L52.4229 53.9074C40.4467 65.3709 21.6478 65.3709 9.67166 53.9074L9.09099 53.327C-3.03033 41.138 -3.03033 21.3308 9.09099 9.14177ZM46.4348 15.7804C37.9426 7.2191 24.1882 7.2191 15.696 15.7804C7.20383 24.3418 7.20383 38.1633 15.696 46.7246C24.1882 55.286 37.9426 55.286 46.4348 46.7246C54.927 38.1633 54.927 24.3418 46.4348 15.7804Z" fill="#3B9586"/>
<path d="M52.6043 66.7495C50.7172 64.6454 50.7535 61.4168 52.7495 59.4215C54.7455 57.4263 57.9392 57.3537 60.0078 59.2764L78.9156 76.1814C81.6012 78.6846 81.71 82.9289 79.1334 85.5409C76.5567 88.1528 72.3106 88.044 69.8428 85.3232L52.6043 66.7495Z" fill="#3B9586"/>
</g>
<path d="M31 38.5C27.1516 38.5 24.2704 36.8074 22.25 34.911M31 38.5C32.6749 38.5 34.1667 38.1794 35.484 37.6609M31 38.5V41.625M22.25 34.911C19.6768 32.4958 18.5 29.75 18.5 29.75M22.25 34.911L20.375 36.786M35.484 37.6609C37.1933 36.9881 38.609 35.982 39.75 34.9111M35.484 37.6609L37.25 40.375M26.516 37.6609L24.75 40.375M43.5 29.75C43.5 29.75 42.3232 32.4958 39.75 34.9111M39.75 34.9111L41.625 36.7861" stroke="#023432" stroke-width="3" stroke-linecap="round" stroke-linejoin="round"/>
</svg>
