<svg width="81" height="88" viewBox="0 0 81 88" fill="none" xmlns="http://www.w3.org/2000/svg">
<g opacity="0.25">
<path d="M9.09099 9.14177C21.2123 -3.04726 40.8822 -3.04726 53.0036 9.14177C65.1249 21.3308 65.1249 41.138 53.0036 53.327L52.4229 53.9074C40.4467 65.3709 21.6478 65.3709 9.67166 53.9074L9.09099 53.327C-3.03033 41.138 -3.03033 21.3308 9.09099 9.14177ZM46.4348 15.7804C37.9426 7.2191 24.1882 7.2191 15.696 15.7804C7.20383 24.3418 7.20383 38.1633 15.696 46.7246C24.1882 55.286 37.9426 55.286 46.4348 46.7246C54.927 38.1633 54.927 24.3418 46.4348 15.7804Z" fill="#3B9586"/>
<path d="M52.6043 66.7495C50.7172 64.6454 50.7535 61.4168 52.7495 59.4215C54.7455 57.4263 57.9392 57.3537 60.0078 59.2764L78.9156 76.1814C81.6012 78.6846 81.71 82.9289 79.1334 85.5409C76.5567 88.1528 72.3106 88.044 69.8428 85.3232L52.6043 66.7495Z" fill="#3B9586"/>
</g>
<path d="M27.3711 26.5859V26.5984M36.7461 35.3359V35.3484M31.7461 30.9609V30.9734M30.4961 37.2109V37.2234M25.4961 33.4609V33.4734M31.7461 18.4609C29.2738 18.4609 26.8571 19.194 24.8015 20.5676C22.7459 21.9411 21.1437 23.8933 20.1976 26.1774C19.2515 28.4615 19.004 30.9748 19.4863 33.3996C19.9686 35.8243 21.1591 38.0516 22.9073 39.7998C24.6554 41.5479 26.8827 42.7384 29.3075 43.2208C31.7322 43.7031 34.2456 43.4555 36.5296 42.5094C38.8137 41.5633 40.766 39.9612 42.1395 37.9056C43.513 35.85 44.2461 33.4332 44.2461 30.9609C43.3774 31.2284 42.4521 31.2541 41.5699 31.035C40.6877 30.816 39.8819 30.3606 39.2392 29.7179C38.5964 29.0751 38.141 28.2693 37.922 27.3871C37.703 26.5049 37.7286 25.5797 37.9961 24.7109C37.1274 24.9784 36.2021 25.0041 35.3199 24.785C34.4377 24.566 33.6319 24.1106 32.9892 23.4679C32.3464 22.8251 31.891 22.0193 31.672 21.1371C31.453 20.2549 31.4786 19.3297 31.7461 18.4609Z" stroke="#023432" stroke-width="3" stroke-linecap="round" stroke-linejoin="round"/>
</svg>
