<svg width="33" height="44" viewBox="0 0 33 44" fill="none" xmlns="http://www.w3.org/2000/svg">
<path opacity="0.1" d="M21.8603 0C22.9672 0 23.865 0.875609 23.8651 1.95605C23.8651 3.03664 22.9673 3.91309 21.8603 3.91309H21.6272V13.2861L27.9659 22.6143C28.6185 23.8428 33 30.5224 33 36.4922C33 43.9544 24.7975 44 23.8651 44C23.256 44 18.8011 43.9374 16.547 43.998V44C16.5315 43.9995 16.5157 43.9995 16.5 43.999C16.4846 43.9995 16.4692 43.9996 16.454 44V43.998C14.2001 43.9374 9.7441 44 9.13488 44C8.20125 44 0 43.9536 0 36.4922C1.53455e-05 30.5226 4.38133 23.8431 5.03414 22.6143L11.3728 13.2861V3.91309H11.1397C10.0327 3.91309 9.13488 3.03664 9.13488 1.95605C9.13505 0.875609 10.0328 0 11.1397 0H21.8603Z" fill="#023432"/>
<mask id="mask0_4136_6684" style="mask-type:alpha" maskUnits="userSpaceOnUse" x="0" y="0" width="33" height="44">
<path d="M21.8604 0C22.9672 3.06153e-05 23.8651 0.875614 23.8652 1.95605C23.8652 3.03662 22.9673 3.91306 21.8604 3.91309H21.627V13.2861L27.9658 22.6143C28.6185 23.8429 33 30.5224 33 36.4922C33 43.9542 24.798 44 23.8652 44C23.2561 44 18.801 43.9374 16.5469 43.998V44C16.5315 43.9996 16.5156 43.9995 16.5 43.999C16.4846 43.9995 16.4693 43.9996 16.4541 44V43.998C14.2002 43.9374 9.74399 44 9.13477 44C8.20057 44 0 43.9533 0 36.4922C0 30.5226 4.38132 23.8432 5.03418 22.6143L11.373 13.2861V3.91309H11.1396C10.0327 3.91304 9.13477 3.03661 9.13477 1.95605C9.13492 0.875623 10.0328 4.60997e-05 11.1396 0H21.8604Z" fill="#D9D9D9"/>
</mask>
<g mask="url(#mask0_4136_6684)">
<rect y="13.6465" width="33" height="30.3535" fill="#FF8736"/>
</g>
<path d="M10.1604 24.7356L13.3706 27.5155L9.22729 28.3641" stroke="#002923" stroke-width="2" stroke-linecap="round" stroke-linejoin="round"/>
<path d="M22.7102 24.7356L19.5 27.5155L23.6433 28.3641" stroke="#002923" stroke-width="2" stroke-linecap="round" stroke-linejoin="round"/>
<path d="M8.5 35L8.93808 33.8312C9.35662 32.7145 10.7453 32.7488 11.1216 33.8852L11.1567 33.9909C11.5299 35.1179 12.9183 35.1166 13.29 33.989C13.6628 32.858 15.0566 32.8611 15.4256 33.9937L15.4508 34.0712C15.8117 35.1789 17.169 35.2007 17.5566 34.105C17.9384 33.0257 19.269 33.0257 19.6509 34.105L19.6726 34.1664C20.0623 35.2681 21.4205 35.2681 21.8103 34.1664L21.8577 34.0322C22.2509 32.9209 23.6049 32.8711 24.0591 33.9513L24.5 35" stroke="#002923" stroke-width="2" stroke-linecap="round" stroke-linejoin="round"/>
</svg>
