<svg width="33" height="44" viewBox="0 0 33 44" fill="none" xmlns="http://www.w3.org/2000/svg">
<path opacity="0.1" d="M21.8603 0C22.9672 0 23.865 0.875609 23.8651 1.95605C23.8651 3.03664 22.9673 3.91309 21.8603 3.91309H21.6272V13.2861L27.9659 22.6143C28.6185 23.8428 33 30.5224 33 36.4922C33 43.9544 24.7975 44 23.8651 44C23.256 44 18.8011 43.9374 16.547 43.998V44C16.5315 43.9995 16.5157 43.9995 16.5 43.999C16.4846 43.9995 16.4692 43.9996 16.454 44V43.998C14.2001 43.9374 9.7441 44 9.13488 44C8.20125 44 0 43.9536 0 36.4922C1.53455e-05 30.5226 4.38133 23.8431 5.03414 22.6143L11.3728 13.2861V3.91309H11.1397C10.0327 3.91309 9.13488 3.03664 9.13488 1.95605C9.13505 0.875609 10.0328 0 11.1397 0H21.8603Z" fill="#023432"/>
<mask id="mask0_4134_4916" style="mask-type:alpha" maskUnits="userSpaceOnUse" x="0" y="0" width="33" height="44">
<path d="M21.8604 0C22.9672 3.06153e-05 23.8651 0.875614 23.8652 1.95605C23.8652 3.03662 22.9673 3.91306 21.8604 3.91309H21.627V13.2861L27.9658 22.6143C28.6185 23.8429 33 30.5224 33 36.4922C33 43.9542 24.798 44 23.8652 44C23.2561 44 18.801 43.9374 16.5469 43.998V44C16.5315 43.9996 16.5156 43.9995 16.5 43.999C16.4846 43.9995 16.4693 43.9996 16.4541 44V43.998C14.2002 43.9374 9.74399 44 9.13477 44C8.20057 44 0 43.9533 0 36.4922C0 30.5226 4.38132 23.8432 5.03418 22.6143L11.373 13.2861V3.91309H11.1396C10.0327 3.91304 9.13477 3.03661 9.13477 1.95605C9.13492 0.875623 10.0328 4.60997e-05 11.1396 0H21.8604Z" fill="#D9D9D9"/>
</mask>
<g mask="url(#mask0_4134_4916)">
<rect y="39" width="33" height="5" fill="#009A1F"/>
</g>
<path d="M22.2777 31.3846C22.2777 33.9337 19.6909 36 16.4999 36C13.309 36 10.7222 33.9337 10.7222 31.3846" stroke="#023432" stroke-width="2" stroke-linecap="round"/>
<path d="M13.8333 26.7692C13.8333 25.2398 12.6394 24 11.1667 24C9.69391 24 8.5 25.2398 8.5 26.7692" stroke="#023432" stroke-width="2" stroke-linecap="round"/>
<path d="M24.5003 26.7692C24.5003 25.2398 23.3064 24 21.8337 24C20.3609 24 19.167 25.2398 19.167 26.7692" stroke="#023432" stroke-width="2" stroke-linecap="round"/>
</svg>
