<svg width="33" height="44" viewBox="0 0 33 44" fill="none" xmlns="http://www.w3.org/2000/svg">
<defs><clipPath id="mask0_4136_6083">
<path d="M21.3389 0C22.4194 0 23.2957 0.875595 23.2959 1.95605C23.2959 3.03664 22.4195 3.91309 21.3389 3.91309H21.1113V13.2861L27.2988 22.6143C27.9359 23.8429 32.2129 30.5224 32.2129 36.4922C32.2129 43.9544 24.206 44 23.2959 44C22.7013 44 18.3527 43.9374 16.1523 43.998V44C16.1372 43.9995 16.1218 43.9995 16.1064 43.999C16.0914 43.9995 16.0764 43.9996 16.0615 44V43.998C13.8614 43.9374 9.51169 44 8.91699 44C8.00564 44 0 43.9536 0 36.4922C0 30.5226 4.27678 23.8432 4.91406 22.6143L11.1016 13.2861V3.91309H10.874C9.79344 3.91309 8.91699 3.03664 8.91699 1.95605C8.91714 0.875595 9.79353 0 10.874 0H21.3389Z" fill="#D9D9D9"/>
</clipPath></defs>
<g clip-path="url(#mask0_4136_6083)">
<rect x="-1.51855" y="21" width="35" height="23" fill="#FF8736"/>
<path opacity="0.1" d="M21.3203 0C22.4008 0 23.2772 0.875609 23.2773 1.95605C23.2773 3.03664 22.4009 3.91309 21.3203 3.91309H21.0928V13.2861L27.2803 22.6143C27.9173 23.8428 32.1943 30.5224 32.1943 36.4922C32.1943 43.9544 24.1875 44 23.2773 44C22.6827 44 18.3341 43.9374 16.1338 43.998V44C16.1187 43.9995 16.1032 43.9995 16.0879 43.999C16.0728 43.9995 16.0578 43.9996 16.043 44V43.998C13.8429 43.9374 9.49313 44 8.89844 44C7.98708 44 -0.0185547 43.9536 -0.0185547 36.4922C-0.0185397 30.5226 4.25827 23.8431 4.89551 22.6143L11.083 13.2861V3.91309H10.8555C9.77488 3.91309 8.89844 3.03664 8.89844 1.95605C8.8986 0.875609 9.77498 0 10.8555 0H21.3203Z" fill="#023432"/>
<path d="M9.64188 24.7356L12.8521 27.5155L8.70873 28.3641" stroke="#002923" stroke-width="2" stroke-linecap="round" stroke-linejoin="round"/>
<path d="M22.1916 24.7356L18.9814 27.5155L23.1248 28.3641" stroke="#002923" stroke-width="2" stroke-linecap="round" stroke-linejoin="round"/>
<path d="M7.98145 35L8.41952 33.8312C8.83806 32.7145 10.2268 32.7488 10.6031 33.8852L10.6381 33.9909C11.0113 35.1179 12.3998 35.1166 12.7715 33.989C13.1442 32.858 14.5381 32.8611 14.907 33.9937L14.9323 34.0712C15.2931 35.1789 16.6504 35.2007 17.038 34.105C17.4199 33.0257 18.7505 33.0257 19.1323 34.105L19.154 34.1664C19.5438 35.2681 20.902 35.2681 21.2917 34.1664L21.3392 34.0322C21.7323 32.9209 23.0863 32.8711 23.5405 33.9513L23.9814 35" stroke="#002923" stroke-width="2" stroke-linecap="round" stroke-linejoin="round"/>
</g>
</svg>
