<svg width="33" height="44" viewBox="0 0 33 44" fill="none" xmlns="http://www.w3.org/2000/svg">
<defs><clipPath id="mask0_4136_6096">
<path d="M21.3389 0C22.4194 0 23.2957 0.875595 23.2959 1.95605C23.2959 3.03664 22.4195 3.91309 21.3389 3.91309H21.1113V13.2861L27.2988 22.6143C27.9359 23.8429 32.2129 30.5224 32.2129 36.4922C32.2129 43.9544 24.206 44 23.2959 44C22.7013 44 18.3527 43.9374 16.1523 43.998V44C16.1372 43.9995 16.1218 43.9995 16.1064 43.999C16.0914 43.9995 16.0764 43.9996 16.0615 44V43.998C13.8614 43.9374 9.51169 44 8.91699 44C8.00564 44 0 43.9536 0 36.4922C0 30.5226 4.27678 23.8432 4.91406 22.6143L11.1016 13.2861V3.91309H10.874C9.79344 3.91309 8.91699 3.03664 8.91699 1.95605C8.91714 0.875595 9.79353 0 10.874 0H21.3389Z" fill="#D9D9D9"/>
</clipPath></defs>
<g clip-path="url(#mask0_4136_6096)">
<rect x="-1.26855" width="35" height="44" fill="#FF3F42"/>
<path opacity="0.1" d="M21.3203 0C22.4008 0 23.2772 0.875609 23.2773 1.95605C23.2773 3.03664 22.4009 3.91309 21.3203 3.91309H21.0928V13.2861L27.2803 22.6143C27.9173 23.8428 32.1943 30.5224 32.1943 36.4922C32.1943 43.9544 24.1875 44 23.2773 44C22.6827 44 18.3341 43.9374 16.1338 43.998V44C16.1187 43.9995 16.1032 43.9995 16.0879 43.999C16.0728 43.9995 16.0578 43.9996 16.043 44V43.998C13.8429 43.9374 9.49313 44 8.89844 44C7.98708 44 -0.0185547 43.9536 -0.0185547 36.4922C-0.0185397 30.5226 4.25827 23.8431 4.89551 22.6143L11.083 13.2861V3.91309H10.8555C9.77488 3.91309 8.89844 3.03664 8.89844 1.95605C8.8986 0.875609 9.77498 0 10.8555 0H21.3203Z" fill="#023432"/>
<path d="M7.98145 24L11.7313 28.0207" stroke="#002923" stroke-width="2" stroke-linecap="round"/>
<path d="M7.98145 28.0208L11.7313 24.0001" stroke="#002923" stroke-width="2" stroke-linecap="round"/>
<path d="M19.9814 24L23.7313 28.0207" stroke="#002923" stroke-width="2" stroke-linecap="round"/>
<path d="M19.9814 28.0208L23.7313 24.0001" stroke="#002923" stroke-width="2" stroke-linecap="round"/>
<circle cx="15.9814" cy="35" r="3" stroke="#002923" stroke-width="2" stroke-linecap="round"/>
</g>
</svg>
