<svg width="43" height="44" viewBox="0 0 43 44" fill="none" xmlns="http://www.w3.org/2000/svg">
<path d="M21.3589 3.94043C30.5069 3.94049 34.4141 6.43948 36.1313 8.39062L36.2944 8.58105C37.9303 10.5632 38.105 12.7522 38.105 13.791C38.105 15.0535 37.8658 15.8251 37.5991 16.3564L37.5845 16.3877L37.5161 16.5146L37.5024 16.5381C37.3795 16.7567 37.238 16.9676 37.061 17.2031L36.8716 17.4482C36.6781 17.6939 36.1874 18.2853 35.8501 18.7725L35.0454 19.9336L36.1333 32.9834L36.1372 33.0283L36.1382 33.0723C36.1454 33.5334 36.1705 34.0354 36.187 34.4248C36.2086 34.9349 36.2234 35.4114 36.2134 35.8818C36.1927 36.8465 36.0676 37.5634 35.8413 38.0889C35.7421 38.319 35.6202 38.5212 35.4556 38.7051C35.2899 38.89 35.0639 39.0752 34.7388 39.251C34.0291 39.6343 32.6793 40.0596 30.2241 40.0596H11.1792C9.50181 40.0596 8.44227 39.8735 7.76904 39.6406C7.43382 39.5246 7.20006 39.3977 7.03369 39.2822C6.96048 39.2313 6.88913 39.1746 6.82275 39.1113C6.78911 39.0793 6.75648 39.0463 6.72705 39.0127C6.70205 38.9841 6.68117 38.9573 6.67725 38.9521C6.425 38.6298 6.19384 38.0895 6.04346 37.2285C5.88914 36.3446 5.80401 35.03 5.91943 33.0674C6.24829 27.4769 6.55147 25.506 6.89893 20.9893L7.01123 19.542L6.15674 18.3691C5.83743 17.9302 5.52276 17.5501 5.25635 17.2197C4.9837 16.8816 4.75409 16.5848 4.56396 16.2715C4.20294 15.6764 3.95558 14.9771 3.95557 13.791C3.95557 12.5283 4.24425 10.2489 6.14307 8.26855C8.01782 6.31348 12.1467 3.94043 21.3589 3.94043Z" fill="#D9E4E3"/>
<path fill-rule="evenodd" clip-rule="evenodd" d="M21.3589 0C41.0599 0.000171342 42.0454 10.8358 42.0454 13.791C42.0454 18.0597 40.0744 19.5918 39.0894 21.0146L40.0747 32.8359C40.0747 36.1196 41.7165 44 30.2241 44H11.1792C3.6271 44 1.51983 40.742 1.98486 32.8359C2.31322 27.2538 2.64186 24.9552 2.97021 20.6865C2.09455 19.4825 0.0151367 17.7312 0.0151367 13.791C0.0151454 10.1791 1.65745 0 21.3589 0ZM21.3589 1.96973C11.8262 1.96973 7.09453 4.43025 4.72119 6.90527C2.33634 9.39243 1.98487 12.2544 1.98486 13.791C1.98486 15.309 2.31693 16.367 2.87939 17.2939C3.1424 17.7274 3.44284 18.1106 3.72217 18.457C4.0126 18.8172 4.28206 19.1407 4.56396 19.5283L4.99072 20.1143L4.93506 20.8379C4.59735 25.2281 4.28118 27.3669 3.95264 32.9521C3.72386 36.8423 4.1937 38.9762 5.12646 40.167C5.96972 41.2431 7.59732 42.0303 11.1792 42.0303H30.2241C32.8884 42.0303 34.5894 41.5711 35.6753 40.9844C36.7205 40.4196 37.2997 39.6816 37.6499 38.8691C38.0197 38.0111 38.159 37.0059 38.1821 35.9238C38.1936 35.389 38.1769 34.8626 38.1548 34.3418C38.1363 33.906 38.112 33.4174 38.1069 32.9795L38.106 32.9326L37.0679 20.4746L37.4702 19.8936C37.7617 19.4726 38.167 18.9876 38.4194 18.667L38.6362 18.3857C38.8475 18.1044 39.0432 17.8186 39.2202 17.5039L39.3032 17.3506C39.7177 16.5636 40.0747 15.4763 40.0747 13.791C40.0747 12.5547 39.8716 9.82063 37.8159 7.3291L37.6099 7.08887C35.3974 4.57501 30.8592 1.96981 21.3589 1.96973Z" fill="#D9E4E3"/>
<mask id="mask0_4136_6479" style="mask-type:alpha" maskUnits="userSpaceOnUse" x="3" y="3" width="36" height="38">
<path d="M21.3434 3.94019C30.4917 3.94019 34.3991 6.43917 36.1163 8.39034L36.2792 8.58145C37.915 10.5636 38.0897 12.7521 38.0897 13.7909C38.0897 15.0536 37.851 15.8255 37.5843 16.3569L37.5689 16.3877L37.5009 16.5146L37.4939 16.5262L37.4875 16.5384C37.3645 16.757 37.2225 16.9672 37.0456 17.2028L36.8564 17.4478C36.6631 17.6932 36.1722 18.2847 35.8348 18.7721L35.0306 19.9335L36.1183 32.9839L36.1221 33.0281L36.1227 33.0724C36.13 33.5336 36.155 34.0354 36.1715 34.4249C36.1931 34.935 36.2078 35.4109 36.1978 35.8814C36.1771 36.8463 36.0522 37.5633 35.8258 38.0888C35.7266 38.3189 35.605 38.5212 35.4404 38.7051C35.2747 38.8901 35.0491 39.0751 34.724 39.2509C34.0145 39.6343 32.6646 40.0596 30.2091 40.0596H11.1643C9.48677 40.0596 8.42765 39.8731 7.75439 39.6402C7.41885 39.524 7.18458 39.3979 7.01815 39.2823C6.94491 39.2314 6.87354 39.175 6.80715 39.1117C6.77351 39.0796 6.74166 39.0466 6.71223 39.0129C6.6816 38.9779 6.65712 38.9455 6.66221 38.952L6.66157 38.9514C6.40933 38.629 6.17897 38.0898 6.02858 37.2288C5.87423 36.3449 5.78872 35.0301 5.90417 33.0672C6.23302 27.4767 6.53665 25.5059 6.88411 20.9892L6.9957 19.5423L6.14146 18.3687C5.82215 17.9297 5.50745 17.5505 5.24104 17.2201C4.96831 16.8819 4.73857 16.585 4.54841 16.2716C4.18737 15.6765 3.94043 14.977 3.94043 13.7909C3.94043 12.5282 4.22911 10.2488 6.12799 8.26849C8.00274 6.31341 12.1312 3.94019 21.3434 3.94019Z" fill="#023432"/>
</mask>
<g mask="url(#mask0_4136_6479)">
<rect x="-1.98486" y="13" width="48" height="31" fill="#FF8736"/>
</g>
<path d="M14.6756 18.0871L17.8858 20.867L13.7424 21.7157" stroke="#002923" stroke-width="2" stroke-linecap="round" stroke-linejoin="round"/>
<path d="M27.2253 18.0871L24.0151 20.867L28.1585 21.7157" stroke="#002923" stroke-width="2" stroke-linecap="round" stroke-linejoin="round"/>
<path d="M13.0151 28.3516L13.4532 27.1827C13.8718 26.066 15.2605 26.1004 15.6368 27.2367L15.6718 27.3425C16.045 28.4695 17.4335 28.4682 17.8051 27.3405C18.1779 26.2096 19.5718 26.2127 19.9407 27.3453L19.966 27.4228C20.3268 28.5305 21.6841 28.5523 22.0717 27.4566C22.4536 26.3772 23.7842 26.3772 24.166 27.4566L24.1877 27.5179C24.5775 28.6197 25.9356 28.6197 26.3254 27.5179L26.3729 27.3838C26.766 26.2724 28.12 26.2227 28.5742 27.3029L29.0151 28.3516" stroke="#002923" stroke-width="2" stroke-linecap="round" stroke-linejoin="round"/>
</svg>
