<svg width="40" height="44" viewBox="0 0 40 44" fill="none" xmlns="http://www.w3.org/2000/svg">
<path d="M12.4694 42.2857V39.5342C12.4694 36.6938 14.7654 34.3913 17.5976 34.3913H29.7099C30.0263 34.3913 30.2829 34.134 30.2829 33.8166C30.2829 33.4993 30.0263 33.242 29.7099 33.242H8.44518C6.24057 33.242 4.45335 31.4496 4.45335 29.2387C4.45337 27.0278 6.24058 25.2355 8.44518 25.2355H36.0615C36.3485 25.2355 36.5812 25.0021 36.5812 24.7143C36.5812 24.423 36.3496 24.195 36.0687 24.1943C25.9427 24.1702 9.84807 24.1891 3.96156 24.1973C1.76563 24.2004 1.12437e-05 22.4149 0 20.2242C0 18.0301 1.77362 16.2515 3.96145 16.2515H29.7384C30.0391 16.2515 30.2829 16.007 30.2829 15.7055C30.2829 15.4039 30.0391 15.1594 29.7384 15.1594H11.3147C9.14156 15.1594 7.37982 13.3927 7.37981 11.2134C7.37981 9.03407 9.14155 7.26741 11.3147 7.26741H23.5476C24.4916 7.26738 25.257 6.49987 25.257 5.55312V1.71429C25.257 0.767512 26.0223 0 26.9664 0C27.9104 2.92171e-05 28.6758 0.76753 28.6758 1.71429V5.55312C28.6758 8.39342 26.3798 10.696 23.5476 10.696H11.3147C11.0297 10.696 10.7986 10.9276 10.7986 11.2134C10.7986 11.4992 11.0297 11.7308 11.3147 11.7308H29.7384C31.9272 11.7308 33.7017 13.5103 33.7017 15.7055C33.7017 17.9006 31.9272 19.68 29.7384 19.68H3.96145C3.66177 19.68 3.4188 19.9237 3.4188 20.2242C3.41881 20.531 3.6623 20.7692 3.95678 20.7687C9.84223 20.7605 25.9433 20.7416 36.0768 20.7657C38.2522 20.7709 40 22.5423 40 24.7143C40 26.8957 38.2367 28.6641 36.0615 28.6641H8.44518C8.12874 28.6641 7.87217 28.9214 7.87215 29.2387C7.87215 29.5561 8.12872 29.8134 8.44518 29.8134H29.7099C31.9145 29.8134 33.7017 31.6057 33.7017 33.8166C33.7017 36.0275 31.9145 37.8198 29.7099 37.8199H17.5976C16.6535 37.8199 15.8882 38.5874 15.8882 39.5342V42.2857C15.8882 43.2325 15.1229 44 14.1788 44C13.2347 44 12.4694 43.2325 12.4694 42.2857Z" fill="#CDDEDC"/>
<mask id="mask0_4601_10310" style="mask-type:alpha" maskUnits="userSpaceOnUse" x="0" y="0" width="40" height="44">
<path d="M12.4694 42.2857V39.5342C12.4694 36.6938 14.7654 34.3913 17.5976 34.3913H29.7099C30.0263 34.3913 30.2829 34.134 30.2829 33.8166C30.2829 33.4993 30.0263 33.242 29.7099 33.242H8.44518C6.24057 33.242 4.45335 31.4496 4.45335 29.2387C4.45337 27.0278 6.24058 25.2355 8.44518 25.2355H36.0615C36.3485 25.2355 36.5812 25.0021 36.5812 24.7143C36.5812 24.423 36.3496 24.195 36.0687 24.1943C25.9427 24.1702 9.84807 24.1891 3.96156 24.1973C1.76563 24.2004 1.12437e-05 22.4149 0 20.2242C0 18.0301 1.77362 16.2515 3.96145 16.2515H29.7384C30.0391 16.2515 30.2829 16.007 30.2829 15.7055C30.2829 15.4039 30.0391 15.1594 29.7384 15.1594H11.3147C9.14156 15.1594 7.37982 13.3927 7.37981 11.2134C7.37981 9.03407 9.14155 7.26741 11.3147 7.26741H23.5476C24.4916 7.26738 25.257 6.49987 25.257 5.55312V1.71429C25.257 0.767512 26.0223 0 26.9664 0C27.9104 2.92171e-05 28.6758 0.76753 28.6758 1.71429V5.55312C28.6758 8.39342 26.3798 10.696 23.5476 10.696H11.3147C11.0297 10.696 10.7986 10.9276 10.7986 11.2134C10.7986 11.4992 11.0297 11.7308 11.3147 11.7308H29.7384C31.9272 11.7308 33.7017 13.5103 33.7017 15.7055C33.7017 17.9006 31.9272 19.68 29.7384 19.68H3.96145C3.66177 19.68 3.4188 19.9237 3.4188 20.2242C3.41881 20.531 3.6623 20.7692 3.95678 20.7687C9.84223 20.7605 25.9433 20.7416 36.0768 20.7657C38.2522 20.7709 40 22.5423 40 24.7143C40 26.8957 38.2367 28.6641 36.0615 28.6641H8.44518C8.12874 28.6641 7.87217 28.9214 7.87215 29.2387C7.87215 29.5561 8.12872 29.8134 8.44518 29.8134H29.7099C31.9145 29.8134 33.7017 31.6057 33.7017 33.8166C33.7017 36.0275 31.9145 37.8198 29.7099 37.8199H17.5976C16.6535 37.8199 15.8882 38.5874 15.8882 39.5342V42.2857C15.8882 43.2325 15.1229 44 14.1788 44C13.2347 44 12.4694 43.2325 12.4694 42.2857Z" fill="#CDDEDC"/>
</mask>
<g mask="url(#mask0_4601_10310)">
<rect x="0.25" y="12" width="40" height="32" fill="#B8D828"/>
</g>
<path d="M25.7777 24.3848C25.7777 26.9338 23.1909 29.0001 19.9999 29.0001C16.809 29.0001 14.2222 26.9338 14.2222 24.3848" stroke="#023432" stroke-width="2" stroke-linecap="round"/>
<path d="M17.3333 19.7692C17.3333 18.2398 16.1394 17 14.6667 17C13.1939 17 12 18.2398 12 19.7692" stroke="#023432" stroke-width="2" stroke-linecap="round"/>
<path d="M28.0003 19.7692C28.0003 18.2398 26.8064 17 25.3337 17C23.8609 17 22.667 18.2398 22.667 19.7692" stroke="#023432" stroke-width="2" stroke-linecap="round"/>
</svg>
