<svg width="31" height="44" viewBox="0 0 31 44" fill="none" xmlns="http://www.w3.org/2000/svg">
<path opacity="0.1" d="M31 28.6C31 18.8798 15.5009 0 15.5009 0C15.5009 0 0 18.8798 0 28.6C0 38.3202 6.94051 44 15.5009 44C24.0614 44 31 38.3202 31 28.6Z" fill="#023432"/>
<defs><clipPath id="mask0_3122_2735">
<path d="M31 28.6C31 18.8798 15.5009 0 15.5009 0C15.5009 0 0 18.8798 0 28.6C0 38.3202 6.94051 44 15.5009 44C24.0614 44 31 38.3202 31 28.6Z" fill="#023432"/>
</clipPath></defs>
<g clip-path="url(#mask0_3122_2735)">
<rect x="-2" y="39" width="35" height="5" fill="#009A1F"/>
<path d="M21.1527 29.3846C21.1527 31.9337 18.5659 34 15.3749 34C12.184 34 9.59717 31.9337 9.59717 29.3846" stroke="#023432" stroke-width="2" stroke-linecap="round"/>
<path d="M12.7083 24.7692C12.7083 23.2398 11.5144 22 10.0417 22C8.56891 22 7.375 23.2398 7.375 24.7692" stroke="#023432" stroke-width="2" stroke-linecap="round"/>
<path d="M23.3753 24.7692C23.3753 23.2398 22.1814 22 20.7087 22C19.2359 22 18.042 23.2398 18.042 24.7692" stroke="#023432" stroke-width="2" stroke-linecap="round"/>
</g>
</svg>
