<svg width="31" height="44" viewBox="0 0 31 44" fill="none" xmlns="http://www.w3.org/2000/svg">
<path opacity="0.1" d="M31 28.6C31 18.8798 15.5009 0 15.5009 0C15.5009 0 0 18.8798 0 28.6C0 38.3202 6.94051 44 15.5009 44C24.0614 44 31 38.3202 31 28.6Z" fill="#023432"/>
<defs><clipPath id="mask0_3122_2758">
<path d="M31 28.6C31 18.8798 15.5009 0 15.5009 0C15.5009 0 0 18.8798 0 28.6C0 38.3202 6.94051 44 15.5009 44C24.0614 44 31 38.3202 31 28.6Z" fill="white"/>
</clipPath></defs>
<g clip-path="url(#mask0_3122_2758)">
<rect x="-2" y="18" width="35" height="26" fill="#FF8736"/>
<path d="M9.28543 23.7356L12.4956 26.5155L8.35229 27.3641" stroke="#002923" stroke-width="2" stroke-linecap="round" stroke-linejoin="round"/>
<path d="M21.8352 23.7356L18.625 26.5155L22.7683 27.3641" stroke="#002923" stroke-width="2" stroke-linecap="round" stroke-linejoin="round"/>
<path d="M7.625 34L8.06308 32.8312C8.48162 31.7145 9.87032 31.7488 10.2466 32.8852L10.2817 32.9909C10.6549 34.1179 12.0433 34.1166 12.415 32.989C12.7878 31.858 14.1816 31.8611 14.5506 32.9937L14.5758 33.0712C14.9367 34.1789 16.294 34.2007 16.6816 33.105C17.0634 32.0257 18.394 32.0257 18.7759 33.105L18.7976 33.1664C19.1873 34.2681 20.5455 34.2681 20.9353 33.1664L20.9827 33.0322C21.3759 31.9209 22.7299 31.8711 23.1841 32.9513L23.625 34" stroke="#002923" stroke-width="2" stroke-linecap="round" stroke-linejoin="round"/>
</g>
</svg>
