<svg width="33" height="44" viewBox="0 0 33 44" fill="none" xmlns="http://www.w3.org/2000/svg">
<path fill-rule="evenodd" clip-rule="evenodd" d="M15.6989 0.00246858C27.0281 -0.125856 35.0603 4.73854 30.8542 17.0103C30.5575 17.8767 29.8123 19.5358 29.8269 20.396C29.8374 21.03 30.7727 22.5519 31.0944 23.2124C32.0735 25.2408 32.5855 27.4631 32.5925 29.7154C32.6307 33.8193 31.3772 37.8699 28.4899 40.8765C25.3405 44.1565 22.8341 43.9183 18.5026 43.9468C15.8439 43.9613 9.79145 44.2427 7.54463 43.3355C0.627329 40.5422 -1.34855 30.6559 0.86201 24.6109C1.05447 24.0839 1.27637 23.5677 1.5251 23.065C2.85786 20.4243 3.28964 20.7472 2.13056 17.7866C-2.24539 6.60488 2.77881 0.917886 14.1325 0.0561795C14.6543 0.0272838 15.1771 0.00976264 15.6989 0.00246858ZM17.0007 5.52102C16.344 5.4949 15.4041 5.48736 14.7585 5.54544C11.2269 5.77679 5.82335 6.61436 6.37373 11.396C6.54193 12.8513 7.00237 14.8895 7.87861 16.0845C8.21672 16.5443 10.0705 15.4892 10.5573 15.312C12.8964 14.4619 15.5262 14.1655 17.9987 14.4146C19.1779 14.5275 20.3405 14.7728 21.4655 15.146C22.1896 15.3806 23.7787 16.0899 24.5202 16.3208C25.0775 16.207 25.3589 15.1753 25.4958 14.7456C26.1323 12.74 26.7831 9.78763 25.1335 8.08743C23.1155 6.00729 19.7449 5.6304 17.0007 5.52102Z" fill="#CDDEDC"/>
<mask id="mask0_4600_8951" style="mask-type:alpha" maskUnits="userSpaceOnUse" x="0" y="0" width="33" height="44">
<path fill-rule="evenodd" clip-rule="evenodd" d="M15.6979 0.00247074C27.0273 -0.12592 35.0606 4.73921 30.8542 17.0113C30.5575 17.8776 29.8115 19.5357 29.8259 20.396C29.8363 21.0299 30.7717 22.5528 31.0935 23.2134C32.0726 25.2419 32.5855 27.4639 32.5925 29.7163C32.6307 33.8203 31.3763 37.87 28.489 40.8765C25.3396 44.1565 22.834 43.9193 18.5026 43.9478C15.8439 43.9623 9.79153 44.2426 7.54463 43.3355C0.627329 40.5422 -1.34855 30.6569 0.86201 24.6118C1.0545 24.0848 1.27633 23.5688 1.5251 23.0659C2.85793 20.4251 3.28862 20.7481 2.12959 17.7876C-2.24636 6.60586 2.77881 0.918865 14.1325 0.0571582C14.6541 0.0282796 15.1764 0.00976769 15.6979 0.00247074ZM16.9997 5.522C16.3431 5.49589 15.404 5.48837 14.7585 5.54642C11.227 5.77777 5.82263 6.61463 6.37275 11.396C6.54092 12.8513 7.00231 14.8894 7.87861 16.0845C8.2164 16.5449 10.0709 15.4889 10.5573 15.312C12.8964 14.462 15.5262 14.1655 17.9987 14.4146C19.178 14.5276 20.3405 14.7737 21.4655 15.147C22.1897 15.3816 23.7787 16.0899 24.5202 16.3208C25.0772 16.2067 25.3589 15.1763 25.4958 14.7466C26.1323 12.7409 26.7832 9.78764 25.1335 8.08743C23.1154 6.00719 19.744 5.63136 16.9997 5.522Z" fill="#CDDEDC"/>
</mask>
<g mask="url(#mask0_4600_8951)">
<rect x="-0.953125" y="40" width="35" height="4" fill="#FF3F42"/>
</g>
<path d="M8.5 23.9996L12.2499 28.0203" stroke="#002923" stroke-width="2" stroke-linecap="round"/>
<path d="M8.5 28.0204L12.2499 23.9997" stroke="#002923" stroke-width="2" stroke-linecap="round"/>
<path d="M20.5 23.9996L24.2499 28.0203" stroke="#002923" stroke-width="2" stroke-linecap="round"/>
<path d="M20.5 28.0204L24.2499 23.9997" stroke="#002923" stroke-width="2" stroke-linecap="round"/>
<circle cx="16.5" cy="34.9996" r="3" stroke="#002923" stroke-width="2" stroke-linecap="round"/>
</svg>
