<svg width="33" height="44" viewBox="0 0 33 44" fill="none" xmlns="http://www.w3.org/2000/svg">
<path fill-rule="evenodd" clip-rule="evenodd" d="M15.6979 0.00247074C27.0273 -0.12592 35.0606 4.73921 30.8542 17.0113C30.5575 17.8776 29.8115 19.5357 29.8259 20.396C29.8363 21.0299 30.7717 22.5528 31.0935 23.2134C32.0726 25.2419 32.5855 27.4639 32.5925 29.7163C32.6307 33.8203 31.3763 37.87 28.489 40.8765C25.3396 44.1565 22.834 43.9193 18.5026 43.9478C15.8439 43.9623 9.79153 44.2426 7.54463 43.3355C0.627329 40.5422 -1.34855 30.6569 0.86201 24.6118C1.0545 24.0848 1.27633 23.5688 1.5251 23.0659C2.85793 20.4251 3.28862 20.7481 2.12959 17.7876C-2.24636 6.60586 2.77881 0.918865 14.1325 0.0571582C14.6541 0.0282796 15.1764 0.00976769 15.6979 0.00247074ZM16.9997 5.522C16.3431 5.49589 15.404 5.48837 14.7585 5.54642C11.227 5.77777 5.82263 6.61463 6.37275 11.396C6.54092 12.8513 7.00231 14.8894 7.87861 16.0845C8.2164 16.5449 10.0709 15.4889 10.5573 15.312C12.8964 14.462 15.5262 14.1655 17.9987 14.4146C19.178 14.5276 20.3405 14.7737 21.4655 15.147C22.1897 15.3816 23.7787 16.0899 24.5202 16.3208C25.0772 16.2067 25.3589 15.1763 25.4958 14.7466C26.1323 12.7409 26.7832 9.78764 25.1335 8.08743C23.1154 6.00719 19.744 5.63136 16.9997 5.522Z" fill="#CDDEDC"/>
<mask id="mask0_4600_8983" style="mask-type:alpha" maskUnits="userSpaceOnUse" x="0" y="0" width="33" height="44">
<path fill-rule="evenodd" clip-rule="evenodd" d="M15.6979 0.00247074C27.0273 -0.12592 35.0606 4.73921 30.8542 17.0113C30.5575 17.8776 29.8115 19.5357 29.8259 20.396C29.8363 21.0299 30.7717 22.5528 31.0935 23.2134C32.0726 25.2419 32.5855 27.4639 32.5925 29.7163C32.6307 33.8203 31.3763 37.87 28.489 40.8765C25.3396 44.1565 22.834 43.9193 18.5026 43.9478C15.8439 43.9623 9.79153 44.2426 7.54463 43.3355C0.627329 40.5422 -1.34855 30.6569 0.86201 24.6118C1.0545 24.0848 1.27633 23.5688 1.5251 23.0659C2.85793 20.4251 3.28862 20.7481 2.12959 17.7876C-2.24636 6.60586 2.77881 0.918865 14.1325 0.0571582C14.6541 0.0282796 15.1764 0.00976769 15.6979 0.00247074ZM16.9997 5.522C16.3431 5.49589 15.404 5.48837 14.7585 5.54642C11.227 5.77777 5.82263 6.61463 6.37275 11.396C6.54092 12.8513 7.00231 14.8894 7.87861 16.0845C8.2164 16.5449 10.0709 15.4889 10.5573 15.312C12.8964 14.462 15.5262 14.1655 17.9987 14.4146C19.178 14.5276 20.3405 14.7737 21.4655 15.147C22.1897 15.3816 23.7787 16.0899 24.5202 16.3208C25.0772 16.2067 25.3589 15.1763 25.4958 14.7466C26.1323 12.7409 26.7832 9.78764 25.1335 8.08743C23.1154 6.00719 19.744 5.63136 16.9997 5.522Z" fill="#CDDEDC"/>
</mask>
<g mask="url(#mask0_4600_8983)">
<rect x="-0.953125" y="14" width="35" height="30" fill="#B8D828"/>
</g>
<path d="M22.2777 31.3843C22.2777 33.9333 19.6909 35.9997 16.4999 35.9997C13.309 35.9997 10.7222 33.9333 10.7222 31.3843" stroke="#023432" stroke-width="2" stroke-linecap="round"/>
<path d="M13.8333 26.7689C13.8333 25.2395 12.6394 23.9996 11.1667 23.9996C9.69391 23.9996 8.5 25.2395 8.5 26.7689" stroke="#023432" stroke-width="2" stroke-linecap="round"/>
<path d="M24.5003 26.7689C24.5003 25.2395 23.3064 23.9996 21.8337 23.9996C20.3609 23.9996 19.167 25.2395 19.167 26.7689" stroke="#023432" stroke-width="2" stroke-linecap="round"/>
</svg>
