<svg width="53" height="44" viewBox="0 0 53 44" fill="none" xmlns="http://www.w3.org/2000/svg">
<path d="M26.5 7C33.0912 7 38.7891 10.4322 41.5035 15.4153C43.3859 13.0206 46.0328 10.8479 48.4501 10.3913C49.2429 10.2414 49.8593 10.2386 50.5408 10.807C51.0482 12.104 50.7681 12.2186 50.4929 13.4334C50.3271 14.3373 50.5421 15.5599 50.8443 16.3798C51.006 16.8184 51.5673 17.6662 51.8222 18.0069C53.3421 20.0393 53.361 22.5308 52.0519 24.7001C51.6105 25.4315 50.8778 26.3529 50.7203 27.2758C50.5294 29.0223 51.7978 31.6657 51.0089 33.2603C50.2261 34.0424 49.1085 33.5851 48.2093 33.2928C45.6568 32.4623 43.455 30.6598 41.6313 28.344C38.9711 33.4569 33.1967 37 26.5 37C19.8031 37 14.028 33.457 11.3679 28.344C9.5443 30.6596 7.34308 32.4623 4.7907 33.2928C3.89154 33.5851 2.77394 34.0424 1.99106 33.2603C1.20219 31.6657 2.47058 29.0223 2.27965 27.2758C2.12224 26.3529 1.38945 25.4315 0.948063 24.7001C-0.361026 22.5308 -0.342139 20.0393 1.17784 18.0069C1.4327 17.6662 1.99399 16.8184 2.15575 16.3798C2.45792 15.5599 2.67289 14.3373 2.50707 13.4334C2.23189 12.2186 1.9518 12.104 2.45924 10.807C3.14074 10.2386 3.7571 10.2414 4.54994 10.3913C6.96705 10.8479 9.61329 13.0208 11.4957 15.4153C14.2101 10.432 19.9087 7 26.5 7Z" fill="#CDDEDC"/>
<mask id="mask0_4606_3414" style="mask-type:alpha" maskUnits="userSpaceOnUse" x="0" y="7" width="53" height="30">
<path d="M26.5 7C33.0912 7 38.7891 10.4322 41.5035 15.4153C43.3859 13.0206 46.0328 10.8479 48.4501 10.3913C49.2429 10.2414 49.8593 10.2386 50.5408 10.807C51.0482 12.104 50.7681 12.2186 50.4929 13.4334C50.3271 14.3373 50.5421 15.5599 50.8443 16.3798C51.006 16.8184 51.5673 17.6662 51.8222 18.0069C53.3421 20.0393 53.361 22.5308 52.0519 24.7001C51.6105 25.4315 50.8778 26.3529 50.7203 27.2758C50.5294 29.0223 51.7978 31.6657 51.0089 33.2603C50.2261 34.0424 49.1085 33.5851 48.2093 33.2928C45.6568 32.4623 43.455 30.6598 41.6313 28.344C38.9711 33.4569 33.1967 37 26.5 37C19.8031 37 14.028 33.457 11.3679 28.344C9.5443 30.6596 7.34308 32.4623 4.7907 33.2928C3.89154 33.5851 2.77394 34.0424 1.99106 33.2603C1.20219 31.6657 2.47058 29.0223 2.27965 27.2758C2.12224 26.3529 1.38945 25.4315 0.948063 24.7001C-0.361026 22.5308 -0.342139 20.0393 1.17784 18.0069C1.4327 17.6662 1.99399 16.8184 2.15575 16.3798C2.45792 15.5599 2.67289 14.3373 2.50707 13.4334C2.23189 12.2186 1.9518 12.104 2.45924 10.807C3.14074 10.2386 3.7571 10.2414 4.54994 10.3913C6.96705 10.8479 9.61329 13.0208 11.4957 15.4153C14.2101 10.432 19.9087 7 26.5 7Z" fill="#CDDEDC"/>
</mask>
<g mask="url(#mask0_4606_3414)">
<rect x="-8.625" y="32" width="72" height="9" fill="#009A1F"/>
</g>
<path d="M32.7777 24.3848C32.7777 26.9338 30.1909 29.0001 26.9999 29.0001C23.809 29.0001 21.2222 26.9338 21.2222 24.3848" stroke="#023432" stroke-width="2" stroke-linecap="round"/>
<path d="M24.3333 19.7692C24.3333 18.2398 23.1394 17 21.6667 17C20.1939 17 19 18.2398 19 19.7692" stroke="#023432" stroke-width="2" stroke-linecap="round"/>
<path d="M35.0003 19.7692C35.0003 18.2398 33.8064 17 32.3337 17C30.8609 17 29.667 18.2398 29.667 19.7692" stroke="#023432" stroke-width="2" stroke-linecap="round"/>
</svg>
