<svg preserveAspectRatio="none" width="100%" height="100%" overflow="visible" style="display: block;" viewBox="0 0 165.195 10.8452" fill="none" xmlns="http://www.w3.org/2000/svg">
<path id="Tagline" d="M3.14998 8.8785C1.34548 8.8785 0.113703 7.94623 0.00631681 6.4988L0 6.42164H0.482183L0.4885 6.4988C0.597992 7.67092 1.63605 8.43635 3.16262 8.43635C4.68918 8.43635 5.67882 7.6897 5.67882 6.55303V6.54677C5.67882 5.57279 5.08082 5.04721 3.54163 4.69891L2.60674 4.48409C0.941206 4.10034 0.216877 3.42668 0.216877 2.2483V2.23579C0.223194 0.938528 1.41707 0 3.05313 0C4.68918 0 5.88938 0.957299 5.99887 2.3797L6.00519 2.45687H5.52932L5.523 2.3797C5.4093 1.20132 4.43651 0.442151 3.04892 0.442151C1.66132 0.442151 0.707483 1.17212 0.707483 2.22953V2.23579C0.707483 3.17432 1.32864 3.71867 2.76045 4.04611L3.69534 4.25467C5.47036 4.65511 6.16311 5.31208 6.16311 6.52592V6.53217C6.16311 7.93788 4.95659 8.87642 3.15209 8.87642L3.14998 8.8785ZM9.79738 8.85556C8.10237 8.85556 7.02219 7.61253 7.02219 5.64578V5.63953C7.02219 3.67904 8.115 2.43601 9.79738 2.43601C11.126 2.43601 12.0967 3.25566 12.2904 4.33184L12.303 4.39232H11.8377L11.8251 4.3381C11.625 3.47048 10.8544 2.85522 9.79738 2.85522C8.39084 2.85522 7.49174 3.93766 7.49174 5.64161V5.64787C7.49174 7.37476 8.40347 8.44052 9.79738 8.44052C10.8354 8.44052 11.6145 7.84195 11.8188 6.95764L11.8314 6.90341H12.2967L12.2904 6.95764C12.0799 8.08179 11.1071 8.85764 9.79738 8.85764V8.85556ZM15.3478 8.85556C14.1223 8.85556 13.2716 8.13185 13.2716 7.08069V7.06818C13.2716 6.01077 14.0507 5.39968 15.493 5.29331L17.6534 5.14315V4.58629C17.6534 3.50385 16.9964 2.85313 15.8847 2.85313C14.7729 2.85313 14.116 3.36202 13.9602 4.26301L13.9475 4.32976H13.4948L13.5075 4.25884C13.6591 3.12218 14.5455 2.43601 15.8847 2.43601C17.2238 2.43601 18.1229 3.2494 18.1229 4.55292V8.75545H17.6513V7.44568H17.6387C17.3249 8.28201 16.3963 8.85556 15.3456 8.85556H15.3478ZM13.7475 7.08069C13.7475 7.88157 14.4423 8.43843 15.413 8.43843C16.6511 8.43843 17.6513 7.56039 17.6513 6.44875V5.52899L15.5562 5.67915C14.3855 5.76884 13.7454 6.2527 13.7454 7.07235V7.08486L13.7475 7.08069ZM19.5927 8.75336V2.53612H20.0643V3.82712H20.0769C20.3675 3.0325 21.1508 2.44018 22.2436 2.44018C23.6565 2.44018 24.5135 3.32448 24.5135 4.84282V8.75336H24.0418V4.89705C24.0418 3.56433 23.3301 2.85939 22.1341 2.85939C20.9381 2.85939 20.0643 3.74995 20.0643 5.04095V8.75336H19.5927ZM28.8447 10.8452C28.7415 10.8452 28.6404 10.839 28.5604 10.8327V10.4323C28.6278 10.4323 28.6994 10.4386 28.771 10.4386C29.5374 10.4386 29.9059 10.134 30.2133 9.30188L30.3881 8.83471L27.9856 2.53403H28.4867L30.6239 8.30287H30.6429L32.7801 2.53403H33.2812L30.6808 9.38531C30.2997 10.3906 29.8364 10.8432 28.8468 10.8432L28.8447 10.8452ZM36.5196 8.85556C34.8478 8.8493 33.7255 7.61878 33.7255 5.64578V5.63327C33.7255 3.66653 34.8541 2.43601 36.5196 2.43601C38.1851 2.43601 39.3201 3.66236 39.3201 5.63327V5.64578C39.3201 7.62504 38.1851 8.85556 36.5196 8.85556ZM36.5196 8.43635C37.9135 8.43635 38.8484 7.36642 38.8484 5.6437V5.63119C38.8484 3.91055 37.9072 2.85105 36.5196 2.85105C35.132 2.85105 34.195 3.91472 34.195 5.63119V5.6437C34.195 7.36434 35.1236 8.43009 36.5196 8.43635ZM42.7564 8.8493C41.3436 8.8493 40.4866 7.965 40.4866 6.44666V2.53612H40.9519V6.39244C40.9519 7.72515 41.6699 8.43009 42.8659 8.43009C44.0619 8.43009 44.9357 7.53953 44.9357 6.24853V2.53612H45.4074V8.75336H44.9357V7.46236H44.9168C44.6262 8.25699 43.8492 8.8493 42.7564 8.8493ZM46.9234 8.75336V2.53612H47.3951V3.73744H47.4077C47.6562 2.91779 48.2289 2.43392 49.0606 2.43392C49.3091 2.43392 49.5322 2.48815 49.6459 2.53612V3.0033C49.5133 2.93864 49.2901 2.87816 48.9932 2.87816C48.0036 2.87816 47.393 3.70407 47.393 4.88662V8.75545H46.9213L46.9234 8.75336ZM55.3416 8.85556C53.9898 8.85556 53.0549 8.09639 52.9328 7.01395L52.9265 6.95973H53.3918L53.4045 7.01395C53.5245 7.85654 54.2741 8.44886 55.3353 8.44886C56.3965 8.44886 57.1524 7.91703 57.1524 7.14535V7.13909C57.1524 6.47586 56.7608 6.13382 55.7522 5.90231L54.8763 5.69792C53.6824 5.42262 53.1328 4.93876 53.1328 4.12536V4.11911C53.1328 3.13261 54.0256 2.43392 55.27 2.43392C56.5144 2.43392 57.3946 3.17015 57.5209 4.27553L57.5272 4.32976H57.0745L57.0682 4.28804C56.9482 3.41625 56.2723 2.84062 55.27 2.84062C54.2677 2.84062 53.6045 3.37245 53.6045 4.11494V4.12119C53.6045 4.71351 54.0088 5.05972 55.0173 5.29331L55.8933 5.49562C57.1251 5.78343 57.6325 6.25479 57.6325 7.11615V7.12241C57.6325 8.14436 56.6787 8.85556 55.3458 8.85556H55.3416ZM58.7969 8.75336V2.53612H59.2686V3.82712H59.2812C59.5718 3.0325 60.3551 2.44018 61.4479 2.44018C62.8607 2.44018 63.7177 3.32448 63.7177 4.84282V8.75336H63.246V4.89705C63.246 3.56433 62.5344 2.85939 61.3384 2.85939C60.1424 2.85939 59.2686 3.74995 59.2686 5.04095V8.75336H58.7969ZM67.0867 8.85556C65.8612 8.85556 65.0105 8.13185 65.0105 7.08069V7.06818C65.0105 6.01077 65.7896 5.39968 67.232 5.29331L69.3923 5.14315V4.58629C69.3923 3.50385 68.7354 2.85313 67.6236 2.85313C66.5118 2.85313 65.8549 3.36202 65.6991 4.26301L65.6864 4.32976H65.2337L65.2464 4.25884C65.398 3.12218 66.2844 2.43601 67.6236 2.43601C68.9628 2.43601 69.8619 3.2494 69.8619 4.55292V8.75545H69.3902V7.44568H69.3776C69.0638 8.28201 68.1353 8.85556 67.0846 8.85556H67.0867ZM65.4864 7.08069C65.4864 7.88157 66.1813 8.43843 67.152 8.43843C68.39 8.43843 69.3902 7.56039 69.3902 6.44875V5.52899L67.2951 5.67915C66.1244 5.76884 65.4843 6.2527 65.4843 7.07235V7.08486L65.4864 7.08069ZM73.7951 8.85556C72.1001 8.85556 71.0199 7.61253 71.0199 5.64578V5.63953C71.0199 3.67904 72.1128 2.43601 73.7951 2.43601C75.1238 2.43601 76.0945 3.25566 76.2882 4.33184L76.3008 4.39232H75.8355L75.8228 4.3381C75.6228 3.47048 74.85 2.85522 73.7951 2.85522C72.3886 2.85522 71.4895 3.93766 71.4895 5.64161V5.64787C71.4895 7.37476 72.4012 8.44052 73.7951 8.44052C74.8332 8.44052 75.6123 7.84195 75.8165 6.95764L75.8291 6.90341H76.2945L76.2882 6.95764C76.0776 8.08179 75.1048 8.85764 73.7951 8.85764V8.85556ZM77.5221 8.75336V0.127223H77.9937V5.71044H78.0063L81.5311 2.53612H82.1417L79.1897 5.2078L82.1649 8.75336H81.5985L78.8402 5.49562L77.9958 6.25479V8.75336H77.5242H77.5221ZM84.9654 8.85556C83.6136 8.85556 82.6787 8.09639 82.5566 7.01395L82.5502 6.95973H83.0156L83.0282 7.01395C83.1482 7.85654 83.8978 8.44886 84.959 8.44886C86.0203 8.44886 86.7762 7.91703 86.7762 7.14535V7.13909C86.7762 6.47586 86.3845 6.13382 85.376 5.90231L84.5 5.69792C83.304 5.42262 82.7566 4.93876 82.7566 4.12536V4.11911C82.7566 3.13261 83.6494 2.43392 84.8938 2.43392C86.1382 2.43392 87.0183 3.17015 87.1447 4.27553L87.151 4.32976H86.6983L86.692 4.28804C86.5719 3.41625 85.896 2.84062 84.8938 2.84062C83.8915 2.84062 83.2282 3.37245 83.2282 4.11494V4.12119C83.2282 4.71351 83.6325 5.05972 84.6411 5.29331L85.517 5.49562C86.7488 5.78343 87.2563 6.25479 87.2563 7.11615V7.12241C87.2563 8.14436 86.3024 8.85556 84.9696 8.85556H84.9654ZM88.2585 10.3927L88.747 7.76269H89.265L88.6186 10.3927H88.2564H88.2585ZM92.7414 8.75336V0.127223H93.2172V4.96378H93.2467L97.7316 0.127223H98.336L94.8049 3.92932L98.7402 8.75336H98.1254L94.468 4.26301L93.2193 5.59573V8.75128H92.7435L92.7414 8.75336ZM99.6309 8.75336V2.53612H100.103V3.82712H100.115C100.406 3.0325 101.189 2.44018 102.282 2.44018C103.695 2.44018 104.552 3.32448 104.552 4.84282V8.75336H104.082V4.89705C104.082 3.56433 103.37 2.85939 102.174 2.85939C100.978 2.85939 100.105 3.74995 100.105 5.04095V8.75336H99.633H99.6309ZM108.512 8.85556C106.84 8.8493 105.718 7.61878 105.718 5.64578V5.63327C105.718 3.66653 106.847 2.43601 108.512 2.43601C110.178 2.43601 111.313 3.66236 111.313 5.63327V5.64578C111.313 7.62504 110.178 8.85556 108.512 8.85556ZM108.512 8.43635C109.906 8.43635 110.841 7.36642 110.841 5.6437V5.63119C110.841 3.91055 109.9 2.85105 108.512 2.85105C107.125 2.85105 106.19 3.91472 106.19 5.63119V5.6437C106.19 7.36434 107.118 8.43009 108.512 8.43635ZM113.694 8.75336L111.871 2.53612H112.359L113.97 8.23822H113.983L115.732 2.53612H116.263L118.007 8.23822H118.025L119.63 2.53612H120.125L118.297 8.75336H117.754L116.004 3.13469H115.985L114.246 8.75336H113.69H113.694ZM125.292 8.85556C124.412 8.85556 123.982 8.41341 123.982 7.45611V2.94282H123.054V2.53612H123.982V0.857192H124.464V2.53612H125.755V2.94282H124.464V7.43317C124.464 8.15688 124.755 8.44886 125.376 8.44886C125.532 8.44886 125.671 8.43635 125.757 8.41966V8.80759C125.648 8.83679 125.473 8.85556 125.292 8.85556ZM127.059 8.75336V0.127223H127.524V3.8584H127.543C127.833 3.02833 128.629 2.44226 129.716 2.44226C131.116 2.44226 132.002 3.36202 132.002 4.91164V8.75545H131.537V4.96587C131.537 3.5977 130.79 2.86147 129.594 2.86147C128.398 2.86147 127.524 3.75829 127.524 5.04929V8.75545H127.059V8.75336ZM135.969 8.85556C134.268 8.85556 133.169 7.64173 133.169 5.65204V5.64578C133.169 3.66653 134.272 2.43601 135.902 2.43601C137.532 2.43601 138.612 3.64358 138.612 5.50813V5.72295H133.639C133.662 7.46862 134.586 8.43635 135.974 8.43635C137.066 8.43635 137.814 7.88574 138.043 7.02021L138.062 6.97224H138.534L138.521 7.02647C138.273 8.1381 137.309 8.85556 135.969 8.85556ZM135.896 2.85313C134.622 2.85313 133.7 3.81043 133.639 5.33294H138.147C138.086 3.79166 137.176 2.85313 135.896 2.85313ZM142.764 8.75336V2.94282H141.888V2.53612H142.764V1.50165C142.764 0.473436 143.307 0.0250265 144.213 0.0250265C144.413 0.0250265 144.605 0.0500531 144.714 0.0729949V0.467178C144.588 0.444236 144.43 0.431723 144.261 0.431723C143.621 0.431723 143.23 0.736225 143.23 1.53085V2.53612H144.666V2.94282H143.236V8.75336H142.764ZM147.112 8.85556C145.887 8.85556 145.036 8.13185 145.036 7.08069V7.06818C145.036 6.01077 145.815 5.39968 147.258 5.29331L149.418 5.14315V4.58629C149.418 3.50385 148.761 2.85313 147.649 2.85313C146.537 2.85313 145.881 3.36202 145.725 4.26301L145.712 4.32976H145.259L145.272 4.25884C145.424 3.12218 146.31 2.43601 147.649 2.43601C148.988 2.43601 149.887 3.2494 149.887 4.55292V8.75545H149.416V7.44568H149.403C149.089 8.28201 148.161 8.85556 147.11 8.85556H147.112ZM145.514 7.08069C145.514 7.88157 146.209 8.43843 147.18 8.43843C148.418 8.43843 149.418 7.56039 149.418 6.44875V5.52899L147.323 5.67915C146.152 5.76884 145.512 6.2527 145.512 7.07235V7.08486L145.514 7.08069ZM153.821 8.85556C152.126 8.85556 151.046 7.61253 151.046 5.64578V5.63953C151.046 3.67904 152.138 2.43601 153.821 2.43601C155.149 2.43601 156.12 3.25566 156.314 4.33184L156.326 4.39232H155.861L155.848 4.3381C155.648 3.47048 154.876 2.85522 153.821 2.85522C152.414 2.85522 151.515 3.93766 151.515 5.64161V5.64787C151.515 7.37476 152.427 8.44052 153.821 8.44052C154.859 8.44052 155.638 7.84195 155.842 6.95764L155.855 6.90341H156.32L156.314 6.95764C156.103 8.08179 155.13 8.85764 153.821 8.85764V8.85556ZM159.135 8.85556C158.255 8.85556 157.826 8.41341 157.826 7.45611V2.94282H156.897V2.53612H157.826V0.857192H158.308V2.53612H159.599V2.94282H158.308V7.43317C158.308 8.15688 158.598 8.44886 159.22 8.44886C159.375 8.44886 159.514 8.43635 159.599 8.41966V8.80759C159.489 8.83679 159.314 8.85556 159.133 8.85556H159.135ZM162.904 8.85556C161.553 8.85556 160.618 8.09639 160.496 7.01395L160.489 6.95973H160.955L160.967 7.01395C161.087 7.85654 161.837 8.44886 162.898 8.44886C163.959 8.44886 164.715 7.91703 164.715 7.14535V7.13909C164.715 6.47586 164.324 6.13382 163.315 5.90231L162.439 5.69792C161.245 5.42262 160.696 4.93876 160.696 4.12536V4.11911C160.696 3.13261 161.588 2.43392 162.833 2.43392C164.077 2.43392 164.957 3.17015 165.084 4.27553L165.09 4.32976H164.637L164.631 4.28804C164.511 3.41625 163.835 2.84062 162.833 2.84062C161.83 2.84062 161.167 3.37245 161.167 4.11494V4.12119C161.167 4.71351 161.571 5.05972 162.58 5.29331L163.456 5.49562C164.688 5.78343 165.195 6.25479 165.195 7.11615V7.12241C165.195 8.14436 164.241 8.85556 162.909 8.85556H162.904Z" fill="var(--fill-0, #00776F)"/>
</svg>
