<svg width="22" height="22" viewBox="0 0 21.5838 21.9977" fill="none" xmlns="http://www.w3.org/2000/svg">
  <path d="M15.415 16.9744C14.4999 17.0873 13.3834 16.7881 11.3508 16.2435C9.09568 15.6392 7.96814 15.3371 7.23686 14.6522C6.65944 14.1114 6.25536 13.4115 6.07572 12.641C5.8482 11.6652 6.15032 10.5377 6.75457 8.28262L7.27221 6.35077C7.35909 6.02652 7.43978 5.7254 7.5162 5.44561M15.415 16.9744C15.5151 16.9621 15.6129 16.9448 15.7092 16.9223C16.4796 16.7427 17.1795 16.3386 17.7203 15.7612C18.4052 15.0299 18.7074 13.9024 19.3116 11.6473L19.8292 9.71542C20.4335 7.46033 20.7356 6.33279 20.5081 5.35702C20.3285 4.58656 19.9244 3.88667 19.347 3.34587C18.6157 2.66094 17.4881 2.35882 15.2331 1.75457C12.978 1.15032 11.8504 0.848199 10.8747 1.07572C10.1042 1.25536 9.40431 1.65944 8.86351 2.23686C8.27708 2.86297 7.97127 3.77956 7.5162 5.44561M15.415 16.9744C15.2065 17.6129 14.8399 18.1902 14.347 18.6519C13.6157 19.3368 12.4881 19.6389 10.2331 20.2432C7.97798 20.8474 6.85043 21.1495 5.87466 20.922C5.1042 20.7424 4.40431 20.3383 3.8635 19.7609C3.17858 19.0296 2.87646 17.9021 2.27221 15.647L1.75457 13.7151C1.15032 11.46 0.8482 10.3325 1.07572 9.35672C1.25536 8.58626 1.65944 7.88637 2.23686 7.34557C2.96814 6.66064 4.09568 6.35852 6.35076 5.75427C6.7774 5.63996 7.16367 5.53675 7.5162 5.44561" stroke="#023432" stroke-width="2" stroke-linecap="round" stroke-linejoin="round"/>
</svg>
