<svg width="20" height="20" viewBox="0 0 17.7546 17.7546" fill="none" xmlns="http://www.w3.org/2000/svg">
  <path d="M10.7364 2.63742L11.4665 1.90729C12.6762 0.697571 14.6376 0.697571 15.8473 1.90729C17.057 3.117 17.057 5.07834 15.8473 6.28806L15.1172 7.01819M10.7364 2.63742C10.7364 2.63742 10.8277 4.18894 12.1967 5.55793C13.5656 6.92692 15.1172 7.01819 15.1172 7.01819M10.7364 2.63742L4.02398 9.34983C3.56933 9.80448 3.342 10.0318 3.1465 10.2825C2.91589 10.5781 2.71817 10.898 2.55685 11.2365C2.42009 11.5235 2.31843 11.8285 2.1151 12.4385L1.25352 15.0232M15.1172 7.01819L8.40475 13.7306C7.9501 14.1852 7.72278 14.4126 7.47213 14.6081C7.17646 14.8387 6.85654 15.0364 6.51804 15.1977C6.23109 15.3345 5.9261 15.4361 5.31613 15.6395L2.73139 16.5011M2.73139 16.5011L2.09957 16.7117C1.7994 16.8117 1.46846 16.7336 1.24472 16.5099C1.02098 16.2861 0.94286 15.9552 1.04292 15.655L1.25352 15.0232M2.73139 16.5011L1.25352 15.0232" stroke="#023432" stroke-width="2" stroke-linecap="round" stroke-linejoin="round"/>
</svg>
