<svg width="22" height="22" viewBox="0 0 19.0001 20.0001" fill="none" xmlns="http://www.w3.org/2000/svg">
  <path d="M18.0001 5.00007C18.5524 5.00007 19.0001 4.55235 19.0001 4.00007C19.0001 3.44778 18.5524 3.00007 18.0001 3.00007V4.00007V5.00007ZM1 3.00007C0.447715 3.00007 0 3.44778 0 4.00007C0 4.55235 0.447715 5.00007 1 5.00007V4.00007V3.00007ZM15.8735 13.3992L14.8757 13.3327V13.3327L15.8735 13.3992ZM17.3312 6.56659C17.3679 6.01553 16.951 5.53902 16.3999 5.50228C15.8489 5.46555 15.3724 5.88249 15.3356 6.43355L16.3334 6.50007L17.3312 6.56659ZM3.66454 6.43355C3.6278 5.88249 3.15129 5.46555 2.60023 5.50228C2.04917 5.53902 1.63223 6.01553 1.66897 6.56659L2.66675 6.50007L3.66454 6.43355ZM3.12669 13.3992L4.12448 13.3327V13.3327L3.12669 13.3992ZM14.743 18.1908L14.0598 17.4606L14.0598 17.4606L14.743 18.1908ZM4.25719 18.1908L3.57401 18.9211V18.9211L4.25719 18.1908ZM7.99512 8.90056C7.94017 8.35102 7.45012 7.95008 6.90058 8.00503C6.35104 8.05999 5.95009 8.55003 6.00505 9.09957L7.00008 9.00007L7.99512 8.90056ZM6.50505 14.0996C6.56 14.6491 7.05004 15.0501 7.59959 14.9951C8.14913 14.9402 8.55008 14.4501 8.49512 13.9006L7.50008 14.0001L6.50505 14.0996ZM12.9951 9.09957C13.0501 8.55003 12.6491 8.05999 12.0996 8.00503C11.55 7.95008 11.06 8.35102 11.005 8.90056L12.0001 9.00007L12.9951 9.09957ZM10.505 13.9006C10.4501 14.4501 10.851 14.9402 11.4006 14.9951C11.9501 15.0501 12.4402 14.6491 12.4951 14.0996L11.5001 14.0001L10.505 13.9006ZM12.9287 2.28578L11.98 2.60201L11.98 2.60201L12.9287 2.28578ZM13.0257 2.57704L12.0771 2.89327L12.0771 2.8933L13.0257 2.57704ZM5.97443 2.57704L5.02574 2.26081L5.02574 2.26083L5.97443 2.57704ZM6.07151 2.28578L7.0202 2.60201V2.60201L6.07151 2.28578ZM5.9393 2.68039L6.87967 3.02055L6.87967 3.02055L5.9393 2.68039ZM4.10923 3.99943L4.13456 4.99911L4.13457 4.99911L4.10923 3.99943ZM13.0609 2.68039L14.0012 2.34023L14.0012 2.3402L13.0609 2.68039ZM14.8909 3.99943L14.8656 4.99911L14.8656 4.99911L14.8909 3.99943ZM11.6555 1.01883L11.8132 0.0313455V0.0313454L11.6555 1.01883ZM12.7494 1.80727L13.6363 1.34541L13.6363 1.3454L12.7494 1.80727ZM7.34469 1.01883L7.187 0.0313454V0.0313454L7.34469 1.01883ZM6.2508 1.80727L5.36385 1.3454L5.36385 1.3454L6.2508 1.80727ZM18.0001 4.00007V3.00007H15.0001V4.00007V5.00007H18.0001V4.00007ZM15.0001 4.00007V3.00007H4.00008V4.00007V5.00007H15.0001V4.00007ZM4.00008 4.00007V3.00007H1V4.00007V5.00007H4.00008V4.00007ZM9.1134 19.0001V20.0001H9.88677V19.0001V18.0001H9.1134V19.0001ZM15.8735 13.3992L16.8713 13.4657L17.3312 6.56659L16.3334 6.50007L15.3356 6.43355L14.8757 13.3327L15.8735 13.3992ZM2.66675 6.50007L1.66897 6.56659L2.12891 13.4657L3.12669 13.3992L4.12448 13.3327L3.66454 6.43355L2.66675 6.50007ZM9.88677 19.0001V20.0001C11.1899 20.0001 12.2648 20.0021 13.118 19.8905C13.9998 19.7751 14.7815 19.5241 15.4262 18.9211L14.743 18.1908L14.0598 17.4606C13.8394 17.6667 13.5235 17.8204 12.8586 17.9074C12.1652 17.9981 11.2444 18.0001 9.88677 18.0001V19.0001ZM15.8735 13.3992L14.8757 13.3327C14.7854 14.6873 14.7221 15.6059 14.5855 16.2917C14.4545 16.9494 14.2802 17.2544 14.0598 17.4606L14.743 18.1908L15.4262 18.9211C16.0708 18.318 16.3732 17.5546 16.547 16.6825C16.7151 15.8386 16.7846 14.766 16.8713 13.4657L15.8735 13.3992ZM9.1134 19.0001V18.0001C7.75575 18.0001 6.83501 17.9981 6.14158 17.9074C5.47669 17.8204 5.16076 17.6667 4.94038 17.4606L4.25719 18.1908L3.57401 18.9211C4.21863 19.5241 5.00041 19.7751 5.88217 19.8905C6.7354 20.0021 7.81026 20.0001 9.1134 20.0001V19.0001ZM3.12669 13.3992L2.12891 13.4657C2.21559 14.766 2.28509 15.8386 2.45321 16.6825C2.62695 17.5546 2.92938 18.318 3.57401 18.9211L4.25719 18.1908L4.94038 17.4606C4.71999 17.2544 4.54567 16.9494 4.41467 16.2917C4.27803 15.6059 4.21479 14.6873 4.12448 13.3327L3.12669 13.3992ZM7.00008 9.00007L6.00505 9.09957L6.50505 14.0996L7.50008 14.0001L8.49512 13.9006L7.99512 8.90056L7.00008 9.00007ZM12.0001 9.00007L11.005 8.90056L10.505 13.9006L11.5001 14.0001L12.4951 14.0996L12.9951 9.09957L12.0001 9.00007ZM7.85534 1.00007V2.00007H11.1448V1.00007V6.83069e-05H7.85534V1.00007ZM12.9287 2.28578L11.98 2.60201L12.0771 2.89327L13.0257 2.57704L13.9744 2.26081L13.8773 1.96955L12.9287 2.28578ZM5.97443 2.57704L6.92311 2.89327L7.0202 2.60201L6.07151 2.28578L5.12283 1.96955L5.02574 2.26081L5.97443 2.57704ZM5.97443 2.57704L5.02574 2.26083C5.00632 2.31907 5.0022 2.33121 4.99893 2.34023L5.9393 2.68039L6.87967 3.02055C6.89364 2.98192 6.9072 2.941 6.92311 2.89326L5.97443 2.57704ZM4.00008 4.00007V5.00007C4.05041 5.00007 4.0935 5.00015 4.13456 4.99911L4.10923 3.99943L4.0839 2.99975C4.0743 2.99999 4.06152 3.00007 4.00008 3.00007V4.00007ZM5.9393 2.68039L4.99893 2.34023C4.85884 2.72752 4.49562 2.98931 4.0839 2.99975L4.10923 3.99943L4.13457 4.99911C5.36973 4.9678 6.45938 4.18243 6.87967 3.02055L5.9393 2.68039ZM13.0257 2.57704L12.0771 2.8933C12.0928 2.94057 12.1066 2.98201 12.1205 3.02058L13.0609 2.68039L14.0012 2.3402C13.998 2.33128 13.9938 2.31882 13.9744 2.26078L13.0257 2.57704ZM15.0001 4.00007V3.00007C14.9386 3.00007 14.9259 2.99999 14.9163 2.99975L14.8909 3.99943L14.8656 4.99911C14.9067 5.00015 14.9498 5.00007 15.0001 5.00007V4.00007ZM13.0609 2.68039L12.1205 3.02055C12.5408 4.18243 13.6304 4.9678 14.8656 4.99911L14.8909 3.99943L14.9163 2.99975C14.5045 2.98931 14.1413 2.72752 14.0012 2.34023L13.0609 2.68039ZM11.1448 1.00007V2.00007C11.4419 2.00007 11.4776 2.0031 11.4978 2.00632L11.6555 1.01883L11.8132 0.0313454C11.5983 -0.00296235 11.3719 6.83069e-05 11.1448 6.83069e-05V1.00007ZM12.9287 2.28578L13.8773 1.96955C13.8055 1.75412 13.7368 1.53837 13.6363 1.34541L12.7494 1.80727L11.8624 2.26913C11.8719 2.28727 11.886 2.32022 11.98 2.60201L12.9287 2.28578ZM11.6555 1.01883L11.4978 2.00632C11.6541 2.03128 11.7893 2.12876 11.8624 2.26913L12.7494 1.80727L13.6363 1.3454C13.2708 0.643521 12.5946 0.15613 11.8132 0.0313455L11.6555 1.01883ZM7.85534 1.00007V6.83069e-05C7.62823 6.83069e-05 7.40185 -0.00296235 7.18701 0.0313454L7.34469 1.01883L7.50238 2.00632C7.52257 2.0031 7.55829 2.00007 7.85534 2.00007V1.00007ZM6.07151 2.28578L7.0202 2.60201C7.11413 2.3202 7.1283 2.28727 7.13775 2.26913L6.2508 1.80727L5.36385 1.3454C5.26336 1.53837 5.19465 1.7541 5.12283 1.96955L6.07151 2.28578ZM7.34469 1.01883L7.187 0.0313454C6.40556 0.15613 5.72934 0.643522 5.36385 1.3454L6.2508 1.80727L7.13775 2.26914C7.21085 2.12876 7.34609 2.03128 7.50238 2.00632L7.34469 1.01883Z" fill="#FF3F42"/>
</svg>
