<svg width="22" height="22" viewBox="0 0 22 22" fill="none" xmlns="http://www.w3.org/2000/svg">
  <path d="M2.46448 19.5355L1.75737 20.2426H1.75737L2.46448 19.5355ZM22 11C22 10.4477 21.5523 10 21 10C20.4477 10 20 10.4477 20 11H21H22ZM19.5355 19.5355L20.2426 20.2426L20.2426 20.2426L19.5355 19.5355ZM11 2C11.5523 2 12 1.55229 12 1C12 0.447716 11.5523 9.53674e-07 11 9.53674e-07V1V2ZM0.341513 10.7473C-0.0741256 11.111 -0.116246 11.7428 0.247434 12.1584C0.611114 12.574 1.24288 12.6161 1.65851 12.2525L1.00001 11.4999L0.341513 10.7473ZM2.7516 9.96727L2.0931 9.21469L2.7516 9.96727ZM5.8925 10.0719L6.59961 9.36475V9.36475L5.8925 10.0719ZM10.1822 14.3616L9.47512 15.0687V15.0687L10.1822 14.3616ZM12.7464 14.5837L12.1714 13.7655L12.1714 13.7655L12.7464 14.5837ZM13.0446 14.3741L13.6196 15.1923L13.6196 15.1923L13.0446 14.3741ZM16.7765 14.5987L16.1075 15.342L16.1075 15.342L16.7765 14.5987ZM19.3311 18.2432C19.7416 18.6126 20.3739 18.5794 20.7433 18.1689C21.1128 17.7583 21.0795 17.1261 20.669 16.7566L20 17.4999L19.3311 18.2432ZM14 3.5C13.4477 3.5 13 3.94772 13 4.5C13 5.05228 13.4477 5.5 14 5.5V4.5V3.5ZM21 5.5C21.5523 5.5 22 5.05228 22 4.5C22 3.94772 21.5523 3.5 21 3.5V4.5V5.5ZM16.5 8C16.5 8.55228 16.9477 9 17.5 9C18.0523 9 18.5 8.55228 18.5 8H17.5H16.5ZM18.5 1C18.5 0.447716 18.0523 9.53674e-07 17.5 9.53674e-07C16.9477 9.53674e-07 16.5 0.447716 16.5 1H17.5H18.5ZM11 21V20C8.61472 20 6.92635 19.9979 5.6469 19.8259C4.39622 19.6577 3.68705 19.3439 3.17159 18.8284L2.46448 19.5355L1.75737 20.2426C2.70637 21.1916 3.90795 21.6101 5.38041 21.808C6.8241 22.0021 8.67126 22 11 22V21ZM1.00001 11H1.37091e-05C1.37091e-05 13.3287 -0.00211 15.1759 0.191989 16.6196C0.389956 18.0921 0.808371 19.2936 1.75737 20.2426L2.46448 19.5355L3.17159 18.8284C2.65612 18.313 2.3423 17.6038 2.17415 16.3531C2.00214 15.0737 2.00001 13.3853 2.00001 11H1.00001ZM21 11H20C20 13.3853 19.9979 15.0737 19.8259 16.3531C19.6577 17.6038 19.3439 18.313 18.8284 18.8284L19.5355 19.5355L20.2426 20.2426C21.1917 19.2936 21.6101 18.0921 21.808 16.6196C22.0021 15.1759 22 13.3287 22 11H21ZM11 21V22C13.3288 22 15.1759 22.0021 16.6196 21.808C18.0921 21.6101 19.2936 21.1916 20.2426 20.2426L19.5355 19.5355L18.8284 18.8284C18.313 19.3439 17.6038 19.6577 16.3531 19.8259C15.0737 19.9979 13.3853 20 11 20V21ZM11 1V9.53674e-07C8.67126 9.53674e-07 6.8241 -0.00212276 5.38041 0.191976C3.90795 0.389943 2.70637 0.808358 1.75737 1.75736L2.46448 2.46447L3.17159 3.17157C3.68705 2.65611 4.39622 2.34229 5.6469 2.17414C6.92635 2.00212 8.61472 2 11 2V1ZM1.00001 11H2.00001C2.00001 8.61471 2.00214 6.92634 2.17415 5.64689C2.3423 4.39621 2.65612 3.68704 3.17159 3.17157L2.46448 2.46447L1.75737 1.75736C0.808371 2.70636 0.389956 3.90794 0.191989 5.38039C-0.00211 6.82408 1.37091e-05 8.67125 1.37091e-05 11H1.00001ZM1.00001 11.4999L1.65851 12.2525L3.4101 10.7198L2.7516 9.96727L2.0931 9.21469L0.341513 10.7473L1.00001 11.4999ZM5.8925 10.0719L5.18539 10.779L9.47512 15.0687L10.1822 14.3616L10.8893 13.6545L6.59961 9.36475L5.8925 10.0719ZM12.7464 14.5837L13.3214 15.4018L13.6196 15.1923L13.0446 14.3741L12.4696 13.556L12.1714 13.7655L12.7464 14.5837ZM16.7765 14.5987L16.1075 15.342L19.3311 18.2432L20 17.4999L20.669 16.7566L17.4455 13.8554L16.7765 14.5987ZM13.0446 14.3741L13.6196 15.1923C14.3824 14.6562 15.4145 14.7183 16.1075 15.342L16.7765 14.5987L17.4455 13.8554C16.0594 12.608 13.9953 12.4838 12.4696 13.556L13.0446 14.3741ZM10.1822 14.3616L9.47512 15.0687C10.506 16.0995 12.1287 16.2401 13.3214 15.4018L12.7464 14.5837L12.1714 13.7655C11.7738 14.0449 11.233 13.9981 10.8893 13.6545L10.1822 14.3616ZM2.7516 9.96727L3.4101 10.7198C3.92517 10.2692 4.70145 10.295 5.18539 10.779L5.8925 10.0719L6.59961 9.36475C5.37113 8.13627 3.40057 8.07066 2.0931 9.21469L2.7516 9.96727ZM14 4.5V5.5H17.5V4.5V3.5H14V4.5ZM17.5 4.5V5.5H21V4.5V3.5H17.5V4.5ZM17.5 8H18.5V4.5H17.5H16.5V8H17.5ZM17.5 4.5H18.5V1H17.5H16.5V4.5H17.5Z" fill="#023432"/>
</svg>
