<svg width="22" height="24" viewBox="0 0 13.5002 14.8333" fill="none" xmlns="http://www.w3.org/2000/svg">
  <path d="M12.7334 7.54012L11.9944 7.41232V7.41232L12.7334 7.54012ZM12.2631 10.26L11.5241 10.1322V10.1322L12.2631 10.26ZM3.37518 13.068L2.62797 13.1327V13.1327L3.37518 13.068ZM2.83374 6.80626L3.58095 6.74165V6.74165L2.83374 6.80626ZM8.07997 2.89761L8.8201 3.01888V3.01888L8.07997 2.89761ZM7.63818 5.59398L8.37832 5.71525V5.71525L7.63818 5.59398ZM3.21543 5.86832L2.72584 5.30017L2.72584 5.30017L3.21543 5.86832ZM4.17459 5.04179L4.66418 5.60995L4.66418 5.60995L4.17459 5.04179ZM5.76204 2.60583L5.03606 2.41751V2.41751L5.76204 2.60583ZM6.07917 1.38326L6.80515 1.57158L6.80515 1.57158L6.07917 1.38326ZM7.19506 0.792901L6.96567 1.50696L6.96567 1.50696L7.19506 0.792901ZM7.29171 0.823949L7.5211 0.10989L7.5211 0.109889L7.29171 0.823949ZM5.32463 3.72507L5.98617 4.07845V4.07845L5.32463 3.72507ZM8.01979 1.58168L7.29381 1.77V1.77L8.01979 1.58168ZM6.5328 0.838261L6.20722 0.162613V0.162613L6.5328 0.838261ZM1.39773 13.7305L0.65052 13.7951H0.65052L1.39773 13.7305ZM0.75 6.23946L1.49721 6.17485C1.46261 5.77471 1.11893 5.47285 0.717665 5.49016C0.316401 5.50748 0 5.83783 0 6.23946H0.75ZM12.7334 7.54012L11.9944 7.41232L11.5241 10.1322L12.2631 10.26L13.0021 10.3878L13.4725 7.66793L12.7334 7.54012ZM7.57998 14.0833V13.3333H4.4809V14.0833V14.8333H7.57998V14.0833ZM3.37518 13.068L4.12239 13.0034L3.58095 6.74165L2.83374 6.80626L2.08653 6.87087L2.62797 13.1327L3.37518 13.068ZM12.2631 10.26L11.5241 10.1322C11.208 11.9596 9.55586 13.3333 7.57998 13.3333V14.0833V14.8333C10.2458 14.8333 12.555 12.9729 13.0021 10.3878L12.2631 10.26ZM8.07997 2.89761L7.33984 2.77635L6.89805 5.47272L7.63818 5.59398L8.37832 5.71525L8.8201 3.01888L8.07997 2.89761ZM3.21543 5.86832L3.70502 6.43648L4.66418 5.60995L4.17459 5.04179L3.68499 4.47364L2.72584 5.30017L3.21543 5.86832ZM5.76204 2.60583L6.48801 2.79415L6.80515 1.57158L6.07917 1.38326L5.3532 1.19494L5.03606 2.41751L5.76204 2.60583ZM7.19506 0.792901L6.96567 1.50696L7.06232 1.53801L7.29171 0.823949L7.5211 0.109889L7.42445 0.0788421L7.19506 0.792901ZM5.32463 3.72507L5.98617 4.07845C6.20337 3.67182 6.3721 3.24098 6.48801 2.79415L5.76204 2.60583L5.03606 2.41751C4.95016 2.74866 4.82492 3.06877 4.6631 3.3717L5.32463 3.72507ZM7.29171 0.823949L7.06232 1.53801C7.18817 1.57844 7.26845 1.67221 7.29381 1.77L8.01979 1.58168L8.74576 1.39336C8.58647 0.779311 8.11754 0.301495 7.5211 0.10989L7.29171 0.823949ZM6.07917 1.38326L6.80515 1.57158C6.80946 1.55496 6.82411 1.53042 6.85838 1.51391L6.5328 0.838261L6.20722 0.162613C5.78849 0.364389 5.47173 0.73802 5.3532 1.19494L6.07917 1.38326ZM6.5328 0.838261L6.85838 1.51391C6.89023 1.49856 6.92975 1.49542 6.96567 1.50696L7.19506 0.792901L7.42445 0.0788426C7.02386 -0.0498491 6.58692 -0.0203548 6.20722 0.162613L6.5328 0.838261ZM8.18579 6.23946V6.98946H11.6399V6.23946V5.48946H8.18579V6.23946ZM1.39773 13.7305L2.14494 13.6659L1.49721 6.17485L0.75 6.23946L0.00278813 6.30407L0.65052 13.7951L1.39773 13.7305ZM0.75 13.7585H1.5V6.23946H0.75H0V13.7585H0.75ZM1.39773 13.7305L0.65052 13.7951C0.629126 13.5477 0.8241 13.3333 1.07447 13.3333V14.0833V14.8333C1.70533 14.8333 2.19915 14.2928 2.14494 13.6659L1.39773 13.7305ZM8.07997 2.89761L8.8201 3.01888C8.90875 2.47778 8.88344 1.9241 8.74576 1.39336L8.01979 1.58168L7.29381 1.77C7.37905 2.09856 7.39472 2.44135 7.33984 2.77635L8.07997 2.89761ZM4.4809 14.0833V13.3333C4.29491 13.3333 4.13859 13.1908 4.12239 13.0034L3.37518 13.068L2.62797 13.1327C2.7111 14.094 3.51517 14.8333 4.4809 14.8333V14.0833ZM4.17459 5.04179L4.66418 5.60995C5.12152 5.21585 5.64029 4.72595 5.98617 4.07845L5.32463 3.72507L4.6631 3.3717C4.45518 3.76094 4.1177 4.10077 3.68499 4.47364L4.17459 5.04179ZM12.7334 7.54012L13.4725 7.66793C13.6691 6.5311 12.7948 5.48946 11.6399 5.48946V6.23946V6.98946C11.8622 6.98946 12.0328 7.1905 11.9944 7.41232L12.7334 7.54012ZM1.07447 14.0833V13.3333C1.31029 13.3333 1.5 13.5245 1.5 13.7585H0.75H0C0 14.3513 0.480255 14.8333 1.07447 14.8333V14.0833ZM7.63818 5.59398L6.89805 5.47272C6.768 6.26646 7.37984 6.98946 8.18579 6.98946V6.23946V5.48946C8.30708 5.48946 8.39754 5.59791 8.37832 5.71525L7.63818 5.59398ZM2.83374 6.80626L3.58095 6.74165C3.57092 6.62563 3.61725 6.5121 3.70502 6.43648L3.21543 5.86832L2.72584 5.30017C2.27272 5.69062 2.03501 6.2751 2.08653 6.87087L2.83374 6.80626Z" fill="#023432"/>
</svg>
