<svg width="50" height="44" viewBox="0 0 50 44" fill="none" xmlns="http://www.w3.org/2000/svg">
<path d="M26.8133 3.53294C21.6277 3.53294 22.8293 -8.25069e-06 22.8293 -8.25069e-06L17.7502 0.000187445C17.7299 3.35208 18.4422 6.17356 19.5652 8.11076C22.4609 11.9515 22.6273 13.7591 21.7391 18.9251C21.2507 21.7626 19.7506 24.2909 17.3913 25.9544C13.9957 28.3425 11.8691 28.6266 8.15217 28.1173C4.43526 27.608 1.04608 31.0881 0.148843 36.9476C-0.186034 38.8511 0.14881 44 0.14881 44H5.4056C5.4056 44 4.42052 37.8526 7.05808 35.1933C8.69138 33.5465 10.9199 35.0405 12.0148 36.3493C13.0775 37.5307 13.9674 38.4434 16.3706 40.8368C18.7739 43.2302 22.8519 43.9574 25.533 43.9574C33.7942 43.9574 38.7391 39.9272 44.0322 33.5221C48.4232 28.3034 50.532 21.55 49.8854 14.7718C49.4603 10.5043 47.8484 6.17939 44.4351 3.39906C41.8489 1.28745 38.5189 0.299965 35.1941 0.658594C33.9042 0.787013 32.6389 1.09553 31.4354 1.57517C30.4555 1.97187 28.6873 3.53294 26.8133 3.53294Z" fill="#D9E4E3"/>
<mask id="mask0_4134_5154" style="mask-type:alpha" maskUnits="userSpaceOnUse" x="0" y="0" width="50" height="44">
<path d="M26.8133 3.53295C21.6277 3.53295 22.8293 0 22.8293 0L17.7502 0.000195696C17.7299 3.35209 18.4422 6.17357 19.5652 8.11077C22.4609 11.9515 22.6273 13.7591 21.7391 18.9251C21.2507 21.7626 19.7506 24.2909 17.3913 25.9544C13.9957 28.3425 11.8691 28.6266 8.15217 28.1173C4.43526 27.608 1.04608 31.0881 0.148843 36.9476C-0.186034 38.8511 0.14881 44 0.14881 44H5.4056C5.4056 44 4.42052 37.8526 7.05808 35.1933C8.69138 33.5465 10.9199 35.0405 12.0148 36.3493C13.0775 37.5307 13.9674 38.4434 16.3706 40.8368C18.7739 43.2302 22.8519 43.9574 25.533 43.9574C33.7942 43.9574 38.7391 39.9272 44.0322 33.5221C48.4232 28.3034 50.532 21.55 49.8854 14.7718C49.4603 10.5043 47.8484 6.1794 44.4351 3.39907C41.8489 1.28746 38.5189 0.299973 35.1941 0.658602C33.9042 0.787021 32.6389 1.09554 31.4354 1.57518C30.4555 1.97188 28.6873 3.53295 26.8133 3.53295Z" fill="#D9E4E3"/>
</mask>
<g mask="url(#mask0_4134_5154)">
<rect x="-3" y="39" width="56" height="5" fill="#009A1F"/>
</g>
<path d="M40.8075 24.7363C40.8075 27.2853 38.2207 29.3517 35.0297 29.3517C31.8388 29.3517 29.252 27.2853 29.252 24.7363" stroke="#023432" stroke-width="2" stroke-linecap="round"/>
<path d="M32.3631 20.1208C32.3631 18.5914 31.1692 17.3516 29.6965 17.3516C28.2237 17.3516 27.0298 18.5914 27.0298 20.1208" stroke="#023432" stroke-width="2" stroke-linecap="round"/>
<path d="M43.0301 20.1208C43.0301 18.5914 41.8362 17.3516 40.3634 17.3516C38.8907 17.3516 37.6968 18.5914 37.6968 20.1208" stroke="#023432" stroke-width="2" stroke-linecap="round"/>
</svg>
