<svg width="28" height="44" viewBox="0 0 28 44" fill="none" xmlns="http://www.w3.org/2000/svg">
<path d="M18.3745 0H9.62451C7.69155 0 6.12451 1.48622 6.12451 3.3195L6.12501 6.80511H21.875L21.8745 3.3195C21.8745 1.48622 20.3076 0 18.3745 0Z" fill="#E1E1E1"/>
<circle cx="11.0424" cy="2.03451" r="0.948692" fill="#3A3A3A"/>
<circle cx="17.0366" cy="2.03451" r="0.948692" fill="#3A3A3A"/>
<circle cx="14" cy="2.03451" r="0.948692" fill="#3A3A3A"/>
<path d="M21.875 6.80518H6.125C4.6753 6.80518 3.5 7.91987 3.5 9.2948C3.5 10.6697 4.67559 11.7843 6.12529 11.7843H21.8753C23.325 11.7843 24.5 10.6697 24.5 9.2948C24.5 7.91987 23.3247 6.80518 21.875 6.80518Z" fill="#C9C9C9"/>
<path opacity="0.1" d="M21.875 11.7842H6.125C3.85656 13.9356 2.40894 16.7428 2.01101 19.7619L0.0381504 38.7312C0.0127531 38.924 1.1493e-05 39.1182 0 39.3126C0 41.9013 2.21279 44 4.94226 44H23.0577C25.7873 44 28 41.9013 28 39.3126C28 39.1181 27.9872 38.9239 27.9618 38.7312L25.989 19.7619C25.5911 16.7428 24.1434 13.9356 21.875 11.7842Z" fill="#023432"/>
<mask id="mask0_4136_6816" style="mask-type:alpha" maskUnits="userSpaceOnUse" x="0" y="11" width="28" height="33">
<path d="M21.875 11.7842H6.125C3.85656 13.9356 2.40894 16.7428 2.01101 19.7619L0.0381504 38.7312C0.0127531 38.924 1.1493e-05 39.1182 0 39.3126C0 41.9013 2.21279 44 4.94226 44H23.0577C25.7873 44 28 41.9013 28 39.3126C28 39.1181 27.9872 38.9239 27.9618 38.7312L25.989 19.7619C25.5911 16.7428 24.1434 13.9356 21.875 11.7842Z" fill="#CEEBE5"/>
</mask>
<g mask="url(#mask0_4136_6816)">
<rect x="-3.5" y="19.2238" width="35" height="24.7762" fill="#FF8736"/>
</g>
<path d="M7.66043 22.8713L10.8706 25.6512L6.72729 26.4998" stroke="#002923" stroke-width="2" stroke-linecap="round" stroke-linejoin="round"/>
<path d="M20.2102 22.8713L17 25.6512L21.1433 26.4998" stroke="#002923" stroke-width="2" stroke-linecap="round" stroke-linejoin="round"/>
<path d="M6 33.1357L6.43808 31.9669C6.85662 30.8502 8.24532 30.8845 8.62163 32.0209L8.65665 32.1267C9.02987 33.2536 10.4183 33.2524 10.79 32.1247C11.1628 30.9938 12.5566 30.9968 12.9256 32.1294L12.9508 32.207C13.3117 33.3147 14.669 33.3364 15.0566 32.2407C15.4384 31.1614 16.769 31.1614 17.1509 32.2408L17.1726 32.3021C17.5623 33.4038 18.9205 33.4038 19.3103 32.3021L19.3577 32.168C19.7509 31.0566 21.1049 31.0069 21.5591 32.0871L22 33.1357" stroke="#002923" stroke-width="2" stroke-linecap="round" stroke-linejoin="round"/>
</svg>
