<svg width="28" height="44" viewBox="0 0 28 44" fill="none" xmlns="http://www.w3.org/2000/svg">
<path d="M18.3745 0H9.62451C7.69155 0 6.12451 1.48622 6.12451 3.3195L6.12501 6.80511H21.875L21.8745 3.3195C21.8745 1.48622 20.3076 0 18.3745 0Z" fill="#E1E1E1"/>
<circle cx="11.0424" cy="2.03451" r="0.948692" fill="#3A3A3A"/>
<circle cx="17.0366" cy="2.03451" r="0.948692" fill="#3A3A3A"/>
<circle cx="14" cy="2.03451" r="0.948692" fill="#3A3A3A"/>
<path d="M21.875 6.80518H6.125C4.6753 6.80518 3.5 7.91987 3.5 9.2948C3.5 10.6697 4.67559 11.7843 6.12529 11.7843H21.8753C23.325 11.7843 24.5 10.6697 24.5 9.2948C24.5 7.91987 23.3247 6.80518 21.875 6.80518Z" fill="#C9C9C9"/>
<path opacity="0.1" d="M21.875 11.7842H6.125C3.85656 13.9356 2.40894 16.7428 2.01101 19.7619L0.0381504 38.7312C0.0127531 38.924 1.1493e-05 39.1182 0 39.3126C0 41.9013 2.21279 44 4.94226 44H23.0577C25.7873 44 28 41.9013 28 39.3126C28 39.1181 27.9872 38.9239 27.9618 38.7312L25.989 19.7619C25.5911 16.7428 24.1434 13.9356 21.875 11.7842Z" fill="#023432"/>
<mask id="mask0_3190_5248" style="mask-type:alpha" maskUnits="userSpaceOnUse" x="0" y="11" width="28" height="33">
<path d="M21.875 11.7842H6.125C3.85656 13.9356 2.40894 16.7428 2.01101 19.7619L0.0381504 38.7312C0.0127531 38.924 1.1493e-05 39.1182 0 39.3126C0 41.9013 2.21279 44 4.94226 44H23.0577C25.7873 44 28 41.9013 28 39.3126C28 39.1181 27.9872 38.9239 27.9618 38.7312L25.989 19.7619C25.5911 16.7428 24.1434 13.9356 21.875 11.7842Z" fill="#CEEBE5"/>
</mask>
<g mask="url(#mask0_3190_5248)">
<rect x="-3.5" y="39" width="35" height="5" fill="#009A1F"/>
</g>
<path d="M19.7777 29.5204C19.7777 32.0694 17.1909 34.1358 13.9999 34.1358C10.809 34.1358 8.22217 32.0694 8.22217 29.5204" stroke="#023432" stroke-width="2" stroke-linecap="round"/>
<path d="M11.3333 24.905C11.3333 23.3756 10.1394 22.1357 8.66667 22.1357C7.19391 22.1357 6 23.3756 6 24.905" stroke="#023432" stroke-width="2" stroke-linecap="round"/>
<path d="M22.0003 24.905C22.0003 23.3756 20.8064 22.1357 19.3337 22.1357C17.8609 22.1357 16.667 23.3756 16.667 24.905" stroke="#023432" stroke-width="2" stroke-linecap="round"/>
</svg>
