<svg width="28" height="44" viewBox="0 0 28 44" fill="none" xmlns="http://www.w3.org/2000/svg">
<path d="M18.3745 0H9.62451C7.69155 0 6.12451 1.48622 6.12451 3.3195L6.12501 6.80511H21.875L21.8745 3.3195C21.8745 1.48622 20.3076 0 18.3745 0Z" fill="#E1E1E1"/>
<circle cx="11.0424" cy="2.03451" r="0.948692" fill="#3A3A3A"/>
<circle cx="17.0366" cy="2.03451" r="0.948692" fill="#3A3A3A"/>
<circle cx="14" cy="2.03451" r="0.948692" fill="#3A3A3A"/>
<path d="M21.875 6.80518H6.125C4.6753 6.80518 3.5 7.91987 3.5 9.2948C3.5 10.6697 4.67559 11.7843 6.12529 11.7843H21.8753C23.325 11.7843 24.5 10.6697 24.5 9.2948C24.5 7.91987 23.3247 6.80518 21.875 6.80518Z" fill="#C9C9C9"/>
<path opacity="0.1" d="M21.875 11.7842H6.125C3.85656 13.9356 2.40894 16.7428 2.01101 19.7619L0.0381504 38.7312C0.0127531 38.924 1.1493e-05 39.1182 0 39.3126C0 41.9013 2.21279 44 4.94226 44H23.0577C25.7873 44 28 41.9013 28 39.3126C28 39.1181 27.9872 38.9239 27.9618 38.7312L25.989 19.7619C25.5911 16.7428 24.1434 13.9356 21.875 11.7842Z" fill="#023432"/>
<mask id="mask0_4136_6715" style="mask-type:alpha" maskUnits="userSpaceOnUse" x="0" y="11" width="28" height="33">
<path d="M21.875 11.7842H6.125C3.85656 13.9356 2.40894 16.7428 2.01101 19.7619L0.0381504 38.7312C0.0127531 38.924 1.1493e-05 39.1182 0 39.3126C0 41.9013 2.21279 44 4.94226 44H23.0577C25.7873 44 28 41.9013 28 39.3126C28 39.1181 27.9872 38.9239 27.9618 38.7312L25.989 19.7619C25.5911 16.7428 24.1434 13.9356 21.875 11.7842Z" fill="#CEEBE5"/>
</mask>
<g mask="url(#mask0_4136_6715)">
<rect x="-3.5" y="28.7893" width="35" height="15.2107" fill="#F5B811"/>
</g>
<path d="M6.57129 33.1357H21.4284" stroke="#002923" stroke-width="2" stroke-linecap="round" stroke-linejoin="round"/>
<ellipse cx="8.28571" cy="24.3176" rx="2.28571" ry="2.18182" fill="#023432"/>
<ellipse cx="19.7144" cy="24.3176" rx="2.28571" ry="2.18182" fill="#023432"/>
</svg>
