<svg width="24" height="24" viewBox="0 0 24 24" fill="none" xmlns="http://www.w3.org/2000/svg">
<path d="M12.5 6C14.1436 6.01326 15.4867 7.35641 15.5 9M12 20.3502C12.3211 20.3502 12.4818 20.3502 12.5933 20.3283C13.2466 20.1998 13.6441 19.5557 13.4511 18.9384C13.4181 18.833 13.342 18.6962 13.1896 18.4227M12 20.3502C11.6788 20.3502 11.5182 20.3502 11.4067 20.3283C10.7534 20.1998 10.3559 19.5557 10.5489 18.9384C10.5818 18.833 10.6581 18.6962 10.8104 18.4227M12 20.3502V22.5M19.5602 9.80427C19.5936 14.0798 16.1419 18.0342 11.9999 17.9997C7.85791 17.9652 4.5941 13.9549 4.56067 9.67932C4.52725 5.40377 7.85791 1.96572 11.9999 2.00023C16.1419 2.03473 19.5268 5.52872 19.5602 9.80427Z" stroke="#023432" stroke-width="2" stroke-linecap="round" stroke-linejoin="round"/>
</svg>
