<svg width="20" height="20" viewBox="0 0 20 20" fill="none" xmlns="http://www.w3.org/2000/svg">
<path d="M3.31266 16.8872L2.76413 17.7233H2.76413L3.31266 16.8872ZM2.29081 15.8839L1.4641 16.4465L1.4641 16.4465L2.29081 15.8839ZM17.7091 15.8839L18.5358 16.4465L18.5358 16.4465L17.7091 15.8839ZM16.6873 16.8872L17.2358 17.7233L17.2358 17.7233L16.6873 16.8872ZM17.7091 6.38884L18.5358 5.82621V5.82621L17.7091 6.38884ZM16.6873 5.38557L17.2358 4.54943L17.2358 4.54943L16.6873 5.38557ZM2.29081 6.38884L1.4641 5.82621H1.4641L2.29081 6.38884ZM3.31266 5.38557L2.76413 4.54943L2.76413 4.54943L3.31266 5.38557ZM6.9444 3.86364L7.92428 4.06324V4.06324L6.9444 3.86364ZM5.81495 4.80071V3.80071H5.7931L5.77127 3.80167L5.81495 4.80071ZM13.0555 3.86364L14.0354 3.66403V3.66403L13.0555 3.86364ZM14.185 4.80071L14.2286 3.80167L14.2068 3.80071H14.185V4.80071ZM15.8333 9.33333C16.3856 9.33333 16.8333 8.88561 16.8333 8.33333C16.8333 7.78105 16.3856 7.33333 15.8333 7.33333V8.33333V9.33333ZM15 7.33333C14.4477 7.33333 14 7.78105 14 8.33333C14 8.88561 14.4477 9.33333 15 9.33333V8.33333V7.33333ZM12.5 10.8333H11.5C11.5 11.6618 10.8284 12.3333 9.99996 12.3333V13.3333V14.3333C11.933 14.3333 13.5 12.7663 13.5 10.8333H12.5ZM9.99996 13.3333V12.3333C9.17153 12.3333 8.49996 11.6618 8.49996 10.8333H7.49996H6.49996C6.49996 12.7663 8.06696 14.3333 9.99996 14.3333V13.3333ZM7.49996 10.8333H8.49996C8.49996 10.0049 9.17153 9.33333 9.99996 9.33333V8.33333V7.33333C8.06696 7.33333 6.49996 8.90033 6.49996 10.8333H7.49996ZM9.99996 8.33333V9.33333C10.8284 9.33333 11.5 10.0049 11.5 10.8333H12.5H13.5C13.5 8.90033 11.933 7.33333 9.99996 7.33333V8.33333ZM11.8518 17.5V16.5H8.1481V17.5V18.5H11.8518V17.5ZM8.1481 17.5V16.5C6.82724 16.5 5.9105 16.4988 5.20476 16.4283C4.51482 16.3594 4.13764 16.2324 3.86119 16.051L3.31266 16.8872L2.76413 17.7233C3.42184 18.1548 4.16196 18.3341 5.00599 18.4184C5.83421 18.5012 6.86812 18.5 8.1481 18.5V17.5ZM1.66663 11.1364H0.666626C0.666626 12.392 0.665372 13.4103 0.749974 14.2268C0.836405 15.061 1.02086 15.7952 1.4641 16.4465L2.29081 15.8839L3.11753 15.3213C2.93658 15.0554 2.80894 14.6926 2.73932 14.0207C2.66788 13.3312 2.66663 12.4343 2.66663 11.1364H1.66663ZM3.31266 16.8872L3.86119 16.051C3.56577 15.8572 3.31334 15.609 3.11753 15.3213L2.29081 15.8839L1.4641 16.4465C1.80872 16.9529 2.25073 17.3865 2.76413 17.7233L3.31266 16.8872ZM18.3333 11.1364H17.3333C17.3333 12.4343 17.332 13.3312 17.2606 14.0207C17.191 14.6926 17.0633 15.0554 16.8824 15.3213L17.7091 15.8839L18.5358 16.4465C18.9791 15.7952 19.1635 15.061 19.2499 14.2268C19.3345 13.4103 19.3333 12.392 19.3333 11.1364H18.3333ZM11.8518 17.5V18.5C13.1318 18.5 14.1657 18.5012 14.9939 18.4184C15.838 18.3341 16.5781 18.1548 17.2358 17.7233L16.6873 16.8872L16.1387 16.051C15.8623 16.2324 15.4851 16.3594 14.7952 16.4283C14.0894 16.4988 13.1727 16.5 11.8518 16.5V17.5ZM17.7091 15.8839L16.8824 15.3213C16.6866 15.609 16.4341 15.8572 16.1387 16.051L16.6873 16.8872L17.2358 17.7233C17.7492 17.3865 18.1912 16.9529 18.5358 16.4465L17.7091 15.8839ZM18.3333 11.1364H19.3333C19.3333 9.88077 19.3345 8.86242 19.2499 8.04589C19.1635 7.21171 18.9791 6.47751 18.5358 5.82621L17.7091 6.38884L16.8824 6.95146C17.0633 7.21734 17.191 7.58012 17.2606 8.25201C17.332 8.94156 17.3333 9.83839 17.3333 11.1364H18.3333ZM16.6873 5.38557L16.1387 6.2217C16.4341 6.4155 16.6866 6.66374 16.8824 6.95146L17.7091 6.38884L18.5358 5.82621C18.1912 5.31983 17.7492 4.88624 17.2358 4.54943L16.6873 5.38557ZM1.66663 11.1364H2.66663C2.66663 9.83839 2.66788 8.94156 2.73932 8.25201C2.80894 7.58012 2.93658 7.21734 3.11753 6.95146L2.29081 6.38884L1.4641 5.82621C1.02086 6.47751 0.836405 7.21171 0.749974 8.04589C0.665372 8.86242 0.666626 9.88077 0.666626 11.1364H1.66663ZM3.31266 5.38557L2.76413 4.54943C2.25074 4.88624 1.80872 5.31983 1.4641 5.82621L2.29081 6.38884L3.11753 6.95146C3.31334 6.66373 3.56577 6.4155 3.86119 6.2217L3.31266 5.38557ZM8.63857 2.5V3.5H11.3613V2.5V1.5H8.63857V2.5ZM6.9444 3.86364L5.96452 3.66403C5.95768 3.69763 5.93683 3.73544 5.90207 3.76463C5.86872 3.79265 5.83751 3.80071 5.81495 3.80071V4.80071V5.80071C6.86263 5.80071 7.72645 5.03441 7.92428 4.06324L6.9444 3.86364ZM13.0555 3.86364L12.0756 4.06324C12.2735 5.03441 13.1373 5.80071 14.185 5.80071V4.80071V3.80071C14.1624 3.80071 14.1312 3.79265 14.0978 3.76463C14.0631 3.73544 14.0422 3.69763 14.0354 3.66403L13.0555 3.86364ZM11.3613 2.5V3.5C11.722 3.5 12.0115 3.74821 12.0756 4.06324L13.0555 3.86364L14.0354 3.66403C13.7765 2.39327 12.6478 1.5 11.3613 1.5V2.5ZM8.63857 2.5V1.5C7.35211 1.5 6.22338 2.39326 5.96452 3.66403L6.9444 3.86364L7.92428 4.06324C7.98845 3.74822 8.27789 3.5 8.63857 3.5V2.5ZM14.185 4.80071L14.1413 5.79976C15.2615 5.84874 15.778 5.98507 16.1387 6.2217L16.6873 5.38557L17.2358 4.54943C16.396 3.99849 15.4096 3.85331 14.2286 3.80167L14.185 4.80071ZM5.81495 4.80071L5.77127 3.80167C4.59036 3.85331 3.60395 3.99849 2.76413 4.54943L3.31266 5.38557L3.86119 6.2217C4.22189 5.98507 4.73845 5.84874 5.85864 5.79976L5.81495 4.80071ZM15.8333 8.33333V7.33333H15V8.33333V9.33333H15.8333V8.33333Z" fill="white"/>
</svg>
