<svg width="40" height="40" viewBox="0 0 40 40" fill="none" xmlns="http://www.w3.org/2000/svg">
<path d="M15.0927 17.5733C7.68812 17.5733 1.68555 20.9498 1.68555 28.4482C1.68555 32.2374 1.68555 35.3739 11.7811 35.9091M24.3489 20.531H26.9841C33.1942 20.531 38.2285 23.3628 38.2285 29.6517C38.2285 32.8297 38.2285 35.4603 29.7615 35.9091H27.9043M20.1132 9.13947C20.1132 12.8417 17.112 15.843 13.4097 15.843C9.70741 15.843 6.70612 12.8417 6.70612 9.13947C6.70612 5.4372 9.70741 2.43591 13.4097 2.43591C17.112 2.43591 20.1132 5.4372 20.1132 9.13947ZM22.7733 13.4576C22.7733 16.5627 25.2905 19.0798 28.3956 19.0798C31.5006 19.0798 34.0178 16.5627 34.0178 13.4576C34.0178 10.3525 31.5006 7.83539 28.3956 7.83539C25.2905 7.83539 22.7733 10.3525 22.7733 13.4576ZM24.3223 21.5327C24.3223 23.919 22.3878 25.8534 20.0015 25.8534C17.6152 25.8534 15.6808 23.919 15.6808 21.5327C15.6808 19.1464 17.6152 17.2119 20.0015 17.2119C22.3878 17.2119 24.3223 19.1464 24.3223 21.5327ZM28.643 32.7032C28.643 35.3878 28.643 37.5641 20.0015 37.5641C11.36 37.5641 11.36 35.3878 11.36 32.7032C11.36 30.0187 15.229 27.8424 20.0015 27.8424C24.7741 27.8424 28.643 30.0187 28.643 32.7032Z" stroke="#00776F" stroke-width="2.5" stroke-linecap="round" stroke-linejoin="round"/>
</svg>
