<svg width="24" height="24" viewBox="0 0 24 24" fill="none" xmlns="http://www.w3.org/2000/svg">
<g clip-path="url(#clip0_3791_4684)">
<path d="M19.4413 2.2397C19.4413 2.2397 21.0457 3.14403 22.2172 6.23043C23.3888 9.31682 22.7886 11.058 22.7886 11.058M17.8351 5.37162C17.8351 5.37162 18.4535 5.89352 19.0393 7.43671C19.6251 8.97991 19.5087 9.78075 19.5087 9.78075M6.14596 16.4765L7.82283 20.8084C8.19715 21.7945 9.29981 22.2899 10.2859 21.9156C11.3893 21.4968 11.8525 20.1875 11.258 19.168L9.33106 15.3236M12.6037 14.86L12.4026 14.815C12.0098 14.7271 11.8134 14.6832 11.616 14.6728C11.4208 14.6624 11.2251 14.6764 11.0334 14.7144C10.8395 14.7528 10.6513 14.8242 10.275 14.967C9.26539 15.3503 4.84782 17.0271 4.33006 16.9906C3.857 16.9571 3.31089 16.7313 2.95243 16.4208C2.56008 16.0809 2.36441 15.6471 1.97308 14.7793C1.8573 14.5226 1.75058 14.2702 1.66065 14.0333C1.57071 13.7963 1.48308 13.5367 1.39935 13.2678C1.11629 12.359 0.974768 11.9045 1.04279 11.3899C1.10493 10.9198 1.3636 10.3884 1.69533 10.0495C2.0584 9.67859 6.47596 8.00173 7.4856 7.61849C7.86189 7.47565 8.05004 7.40423 8.22061 7.30428C8.38923 7.20546 8.54492 7.08606 8.68408 6.94883C8.82485 6.81002 8.94262 6.64682 9.17815 6.32044L9.29877 6.15329C10.6998 4.21182 11.4003 3.24109 12.2862 3.21102C12.4561 3.20526 12.6298 3.22408 12.7945 3.26609C13.6534 3.48523 14.1258 4.57437 15.0705 6.75261C15.4203 7.55915 15.713 8.25199 15.8614 8.64284C16.0097 9.0337 16.2505 9.74626 16.524 10.5818C17.2626 12.8382 17.632 13.9665 17.1348 14.7004C17.0395 14.8411 16.922 14.9704 16.7911 15.0788C16.1084 15.6442 14.9402 15.3828 12.6037 14.86Z" stroke="#00776F" stroke-width="2" stroke-linecap="round" stroke-linejoin="round"/>
</g>
<defs>
<clipPath id="clip0_3791_4684">
<rect width="24" height="24" fill="white"/>
</clipPath>
</defs>
</svg>
