<svg preserveAspectRatio="none" width="100%" height="100%" overflow="visible" style="display: block;" viewBox="0 0 20.8564 22" fill="none" xmlns="http://www.w3.org/2000/svg">
<g id="Vector">
<path d="M13.4282 11C13.4282 12.6569 12.0851 14 10.4282 14C8.77136 14 7.42822 12.6569 7.42822 11C7.42822 9.34315 8.77136 8 10.4282 8C12.0851 8 13.4282 9.34315 13.4282 11Z" stroke="var(--stroke-0, #00776F)" stroke-width="2" stroke-linecap="round" stroke-linejoin="round"/>
<path d="M12.1936 1.15224C11.826 1 11.3601 1 10.4282 1C9.49633 1 9.03039 1 8.66284 1.15224C8.17279 1.35523 7.78344 1.74458 7.58045 2.23463C7.48779 2.45834 7.45153 2.7185 7.43734 3.09799C7.41648 3.65568 7.13048 4.17189 6.64717 4.45093C6.16386 4.72996 5.57381 4.71954 5.08042 4.45876C4.74467 4.2813 4.50123 4.18262 4.26116 4.15102C3.73527 4.08178 3.20341 4.22429 2.78259 4.5472C2.46697 4.78938 2.234 5.1929 1.76806 5.99993C1.30212 6.80697 1.06915 7.21048 1.01722 7.6049C0.947985 8.1308 1.0905 8.66266 1.4134 9.08348C1.56079 9.27556 1.76793 9.43702 2.08941 9.63902C2.56202 9.93598 2.86612 10.4419 2.86609 11C2.86606 11.5581 2.56197 12.0639 2.08941 12.3608C1.76787 12.5629 1.56071 12.7244 1.4133 12.9164C1.0904 13.3373 0.947887 13.8691 1.01712 14.395C1.06905 14.7894 1.30202 15.193 1.76796 16C2.2339 16.807 2.46687 17.2105 2.78249 17.4527C3.20331 17.7756 3.73517 17.9181 4.26106 17.8489C4.50112 17.8173 4.74454 17.7186 5.08026 17.5412C5.5737 17.2804 6.16378 17.27 6.64712 17.549C7.13046 17.8281 7.41648 18.3443 7.43734 18.9021C7.45153 19.2815 7.48779 19.5417 7.58045 19.7654C7.78344 20.2554 8.17279 20.6448 8.66284 20.8478C9.03039 21 9.49633 21 10.4282 21C11.3601 21 11.826 21 12.1936 20.8478C12.6836 20.6448 13.073 20.2554 13.276 19.7654C13.3686 19.5416 13.4049 19.2815 13.4191 18.902C13.4399 18.3443 13.7259 17.8281 14.2092 17.549C14.6925 17.2699 15.2826 17.2803 15.7761 17.5411C16.1118 17.7186 16.3552 17.8172 16.5953 17.8488C17.1212 17.9181 17.653 17.7756 18.0738 17.4527C18.3894 17.2105 18.6224 16.807 19.0884 15.9999C19.5543 15.1929 19.7873 14.7894 19.8392 14.395C19.9084 13.8691 19.7659 13.3372 19.443 12.9164C19.2956 12.7243 19.0885 12.5628 18.767 12.3608C18.2944 12.0639 17.9903 11.558 17.9903 10.9999C17.9904 10.4418 18.2944 9.93608 18.767 9.63919C19.0885 9.43714 19.2957 9.27565 19.4431 9.08355C19.766 8.66273 19.9085 8.13087 19.8393 7.60497C19.7874 7.21055 19.5544 6.80703 19.0885 6C18.6225 5.19297 18.3895 4.78945 18.0739 4.54727C17.6531 4.22436 17.1213 4.08185 16.5954 4.15109C16.3553 4.18269 16.1119 4.28136 15.7762 4.4588C15.2827 4.71959 14.6926 4.73002 14.2093 4.45096C13.726 4.17191 13.4399 3.65566 13.4191 3.09794C13.4049 2.71848 13.3686 2.45833 13.276 2.23463C13.073 1.74458 12.6836 1.35523 12.1936 1.15224Z" stroke="var(--stroke-0, #00776F)" stroke-width="2" stroke-linecap="round" stroke-linejoin="round"/>
</g>
</svg>
