<svg preserveAspectRatio="none" width="100%" height="100%" overflow="visible" style="display: block;" viewBox="0 0 19.9534 20" fill="none" xmlns="http://www.w3.org/2000/svg">
<path id="Vector" d="M4.83839 19H14.5508M9.0924 9.8387C8.50419 9.84445 7.93565 9.6169 7.50082 9.20168C7.06599 8.78647 6.79702 8.21431 6.74786 7.59994C6.69871 6.98558 6.873 6.37446 7.23578 5.88915C7.59855 5.40383 8.12299 5.08022 8.70391 4.98321C8.6109 4.55185 8.63136 4.10211 8.7631 3.68197C8.89485 3.26184 9.13294 2.88706 9.45197 2.59762C9.77101 2.30818 10.159 2.11493 10.5746 2.03849C10.9902 1.96205 11.4179 2.00528 11.8119 2.16357C11.9844 1.87892 12.2113 1.63479 12.4782 1.44654C12.7452 1.2583 13.0464 1.13002 13.363 1.06978C13.6796 1.00954 14.0047 1.01864 14.3177 1.09652C14.6308 1.17439 14.9251 1.31936 15.1821 1.52228C15.6303 1.153 16.1922 0.968737 16.7614 1.00435C17.3306 1.03997 17.8675 1.29299 18.2707 1.71555C18.6739 2.13811 18.9153 2.70089 18.9493 3.29742C18.9833 3.89395 18.8075 4.48284 18.4551 4.95268C18.6744 5.25798 18.8223 5.61295 18.887 5.98905C18.9516 6.36516 18.9311 6.75191 18.8272 7.11821C18.7233 7.48452 18.5388 7.82017 18.2887 8.09819C18.0385 8.37621 17.7296 8.58884 17.3868 8.71899C17.4754 9.08537 17.4853 9.4678 17.4159 9.8387M10.6658 9.8387L14.5508 5.76701M8.62621 5.00357C8.09348 4.40836 7.40201 3.99516 6.64195 3.81782C5.88188 3.64048 5.08847 3.70723 4.36513 4.00938C3.64179 4.31152 3.02208 4.83504 2.58677 5.5117C2.15145 6.18836 1.92073 6.98677 1.92468 7.80286C1.92468 8.54594 2.11892 9.23813 2.44914 9.8387M9.69457 19C12.0129 19 14.2362 18.0348 15.8755 16.3167C17.2887 14.8356 18.168 12.8995 18.3837 10.837C18.4411 10.2877 17.988 9.8387 17.4357 9.8387H1.95344C1.40116 9.8387 0.948023 10.2877 1.00546 10.837C1.22113 12.8995 2.10046 14.8356 3.51366 16.3167C5.15294 18.0348 7.37628 19 9.69457 19Z" stroke="var(--stroke-0, #00776F)" stroke-width="2" stroke-linecap="round" stroke-linejoin="round"/>
</svg>
