<svg preserveAspectRatio="none" width="100%" height="100%" overflow="visible" style="display: block;" viewBox="0 0 22.0002 22" fill="none" xmlns="http://www.w3.org/2000/svg">
<path id="Vector" d="M14.0002 1V2.5034e-06V1ZM15.0002 1V2V1ZM21.0002 7H22.0002H21.0002ZM21.0002 15H20.0002H21.0002ZM15.0002 21V22V21ZM14.0002 21V20V21ZM8.8789 20.1213L9.586 19.4142V19.4142L8.8789 20.1213ZM20.1215 1.87868L20.8286 1.17158V1.17157L20.1215 1.87868ZM8.8789 1.87868L9.586 2.58579V2.58579L8.8789 1.87868ZM7.00197 5.99443C6.9989 6.54671 7.44411 6.99691 7.99639 6.99998C8.54866 7.00306 8.99887 6.55784 9.00194 6.00557L8.00195 6L7.00197 5.99443ZM9.00194 15.9944C8.99887 15.4422 8.54866 14.9969 7.99639 15C7.44411 15.0031 6.9989 15.4533 7.00197 16.0056L8.00195 16L9.00194 15.9944ZM14 12C14.5523 12 15 11.5523 15 11C15 10.4477 14.5523 10 14 10V11V12ZM1 11L0.349209 10.2407C0.127563 10.4307 0 10.7081 0 11C0 11.2919 0.127563 11.5693 0.349209 11.7593L1 11ZM5.15079 8.75926C5.57012 8.39984 5.61868 7.76854 5.25926 7.34921C4.89984 6.92988 4.26854 6.88132 3.84921 7.24074L4.5 8L5.15079 8.75926ZM3.84921 14.7593C4.26854 15.1187 4.89984 15.0701 5.25926 14.6508C5.61868 14.2315 5.57012 13.6002 5.15079 13.2407L4.5 14L3.84921 14.7593ZM14.0002 1V2H15.0002V1V2.5034e-06H14.0002V1ZM21.0002 7H20.0002V15H21.0002H22.0002V7H21.0002ZM15.0002 21V20H14.0002V21V22H15.0002V21ZM14.0002 21V20C12.5577 20 11.5765 19.9979 10.8417 19.8991C10.1356 19.8042 9.80857 19.6368 9.586 19.4142L8.8789 20.1213L8.17179 20.8284C8.8279 21.4845 9.64732 21.7565 10.5752 21.8812C11.4742 22.0021 12.6143 22 14.0002 22V21ZM21.0002 15H20.0002C20.0002 16.4425 19.9981 17.4237 19.8993 18.1586C19.8044 18.8646 19.637 19.1916 19.4144 19.4142L20.1215 20.1213L20.8286 20.8284C21.4848 20.1723 21.7567 19.3529 21.8815 18.4251C22.0023 17.526 22.0002 16.3859 22.0002 15H21.0002ZM15.0002 21V22C16.3862 22 17.5262 22.0021 18.4253 21.8812C19.3531 21.7565 20.1725 21.4845 20.8286 20.8284L20.1215 20.1213L19.4144 19.4142C19.1919 19.6368 18.8648 19.8042 18.1588 19.8991C17.424 19.9979 16.4427 20 15.0002 20V21ZM15.0002 1V2C16.4427 2 17.424 2.00213 18.1588 2.10092C18.8648 2.19585 19.1919 2.36322 19.4144 2.58579L20.1215 1.87868L20.8286 1.17157C20.1725 0.515466 19.3531 0.243498 18.4253 0.118755C17.5262 -0.00212121 16.3862 2.5034e-06 15.0002 2.5034e-06V1ZM21.0002 7H22.0002C22.0002 5.61406 22.0023 4.474 21.8815 3.57494C21.7567 2.64711 21.4848 1.82768 20.8286 1.17158L20.1215 1.87868L19.4144 2.58579C19.637 2.80836 19.8044 3.13538 19.8993 3.84143C19.9981 4.57625 20.0002 5.55752 20.0002 7H21.0002ZM14.0002 1V2.5034e-06C12.6143 2.5034e-06 11.4742 -0.00212121 10.5752 0.118755C9.64732 0.243498 8.8279 0.515466 8.17179 1.17157L8.8789 1.87868L9.586 2.58579C9.80857 2.36322 10.1356 2.19585 10.8417 2.10092C11.5765 2.00213 12.5577 2 14.0002 2V1ZM8.00195 6L9.00194 6.00557C9.00804 4.91007 9.03685 4.15604 9.14037 3.59251C9.23863 3.05757 9.38946 2.78233 9.586 2.58579L8.8789 1.87868L8.17179 1.17157C7.59995 1.74342 7.31836 2.44132 7.17328 3.23119C7.03344 3.99247 7.00798 4.9149 7.00197 5.99443L8.00195 6ZM8.00195 16L7.00197 16.0056C7.00798 17.0851 7.03344 18.0075 7.17328 18.7688C7.31836 19.5587 7.59995 20.2566 8.17179 20.8284L8.8789 20.1213L9.586 19.4142C9.38946 19.2177 9.23863 18.9424 9.14037 18.4075C9.03685 17.844 9.00804 17.0899 9.00194 15.9944L8.00195 16ZM14 11V10H1V11V12H14V11ZM1 11L1.65079 11.7593L5.15079 8.75926L4.5 8L3.84921 7.24074L0.349209 10.2407L1 11ZM1 11L0.349209 11.7593L3.84921 14.7593L4.5 14L5.15079 13.2407L1.65079 10.2407L1 11Z" fill="var(--stroke-0, #00776F)"/>
</svg>
