<svg preserveAspectRatio="none" width="100%" height="100%" overflow="visible" style="display: block;" viewBox="0 0 19.9972 22" fill="none" xmlns="http://www.w3.org/2000/svg">
<path id="Vector" d="M5.4986 17.6667C6.15363 19.4144 7.92106 21 9.9986 21C12.0761 21 13.8436 19.4144 14.4986 17.6667M16.7477 8.00496V8.70956C16.7477 9.55515 16.9889 10.3818 17.4408 11.0854L18.5482 12.8095C19.5598 14.3843 18.7876 16.5249 17.0282 17.0229C12.4259 18.3257 7.57134 18.3257 2.96896 17.0229C1.20965 16.5249 0.437425 14.3843 1.44896 12.8095L2.5564 11.0854C3.00832 10.3818 3.24947 9.55515 3.24947 8.70956V8.00496C3.24947 4.13623 6.27116 1 9.9986 1C13.726 1 16.7477 4.13623 16.7477 8.00496Z" stroke="var(--stroke-0, #00776F)" stroke-width="2" stroke-linecap="round" stroke-linejoin="round"/>
</svg>
