<svg preserveAspectRatio="none" width="100%" height="100%" overflow="visible" style="display: block;" viewBox="0 0 20 19" fill="none" xmlns="http://www.w3.org/2000/svg">
<path id="Vector" d="M1 5V3C1 2.46957 1.17779 1.96086 1.49426 1.58579C1.81072 1.21071 2.23995 1 2.6875 1H4.375M15.625 1H17.3125C17.7601 1 18.1893 1.21071 18.5057 1.58579C18.8222 1.96086 19 2.46957 19 3V5M19 14V16C19 16.5304 18.8222 17.0391 18.5057 17.4142C18.1893 17.7893 17.7601 18 17.3125 18H15.625M4.375 18H2.6875C2.23995 18 1.81072 17.7893 1.49426 17.4142C1.17779 17.0391 1 16.5304 1 16V14M5.5 5V14M10 5V14M14.5 5V14" stroke="var(--stroke-0, #00776F)" stroke-width="2" stroke-linecap="round" stroke-linejoin="round"/>
</svg>
