<svg preserveAspectRatio="none" width="100%" height="100%" overflow="visible" style="display: block;" viewBox="0 0 20.6667 20.6667" fill="none" xmlns="http://www.w3.org/2000/svg">
<g id="Vector">
<path d="M1.00001 3.76542C1.00001 2.46179 1.00001 1.80998 1.40448 1.40499C1.80895 1.00001 2.45994 1.00001 3.76191 1.00001H5.14287C6.44484 1.00001 7.09583 1.00001 7.5003 1.40499C7.90477 1.80998 7.90477 2.46179 7.90477 3.76542V5.14812C7.90477 6.45174 7.90477 7.10356 7.5003 7.50854C7.09583 7.91353 6.44484 7.91353 5.14287 7.91353H3.76191C2.45994 7.91353 1.80895 7.91353 1.40448 7.50854C1.00001 7.10356 1.00001 6.45174 1.00001 5.14812V3.76542Z" stroke="var(--stroke-0, #00776F)" stroke-width="2" stroke-linecap="round"/>
<path d="M1.00001 15.5186C1.00001 14.2149 1.00001 13.5631 1.40448 13.1581C1.80895 12.7532 2.45994 12.7532 3.76191 12.7532H5.14287C6.44484 12.7532 7.09583 12.7532 7.5003 13.1581C7.90477 13.5631 7.90477 14.2149 7.90477 15.5186V16.9013C7.90477 18.2049 7.90477 18.8567 7.5003 19.2617C7.09583 19.6667 6.44484 19.6667 5.14287 19.6667H3.76191C2.45994 19.6667 1.80895 19.6667 1.40448 19.2617C1.00001 18.8567 1.00001 18.2049 1.00001 16.9013V15.5186Z" stroke="var(--stroke-0, #00776F)" stroke-width="2" stroke-linecap="round"/>
<path d="M12.7619 3.76542C12.7619 2.46179 12.7619 1.80998 13.1664 1.40499C13.5709 1.00001 14.2218 1.00001 15.5238 1.00001H16.9048C18.2067 1.00001 18.8577 1.00001 19.2622 1.40499C19.6667 1.80998 19.6667 2.46179 19.6667 3.76542V5.14812C19.6667 6.45174 19.6667 7.10356 19.2622 7.50854C18.8577 7.91353 18.2067 7.91353 16.9048 7.91353H15.5238C14.2218 7.91353 13.5709 7.91353 13.1664 7.50854C12.7619 7.10356 12.7619 6.45174 12.7619 5.14812V3.76542Z" stroke="var(--stroke-0, #00776F)" stroke-width="2" stroke-linecap="round"/>
<path d="M12.7619 15.5186C12.7619 14.2149 12.7619 13.5631 13.1664 13.1581C13.5709 12.7532 14.2218 12.7532 15.5238 12.7532H16.9048C18.2067 12.7532 18.8577 12.7532 19.2622 13.1581C19.6667 13.5631 19.6667 14.2149 19.6667 15.5186V16.9013C19.6667 18.2049 19.6667 18.8567 19.2622 19.2617C18.8577 19.6667 18.2067 19.6667 16.9048 19.6667H15.5238C14.2218 19.6667 13.5709 19.6667 13.1664 19.2617C12.7619 18.8567 12.7619 18.2049 12.7619 16.9013V15.5186Z" stroke="var(--stroke-0, #00776F)" stroke-width="2" stroke-linecap="round"/>
</g>
</svg>
