<svg preserveAspectRatio="none" width="100%" height="100%" overflow="visible" style="display: block;" viewBox="0 0 16.6667 20" fill="none" xmlns="http://www.w3.org/2000/svg">
<path id="Vector" d="M4.33334 6V5C4.33334 2.79086 6.1242 1 8.33334 1C10.5425 1 12.3333 2.79086 12.3333 5V6M5.4 19H11.2667C13.3409 19 14.3779 19 15.0223 18.0725C15.6667 17.145 15.6667 15.6522 15.6667 12.6667C15.6667 9.6811 15.6667 8.18832 15.0223 7.26083C14.3779 6.33333 13.3409 6.33333 11.2667 6.33333H5.4C3.32582 6.33333 2.28873 6.33333 1.64437 7.26083C1 8.18832 1 9.6811 1 12.6667C1 15.6522 1 17.145 1.64437 18.0725C2.28873 19 3.32582 19 5.4 19Z" stroke="var(--stroke-0, #00776F)" stroke-width="2" stroke-linecap="round" stroke-linejoin="round"/>
</svg>
