<svg preserveAspectRatio="none" width="100%" height="100%" overflow="visible" style="display: block;" viewBox="0 0 15.5047 22" fill="none" xmlns="http://www.w3.org/2000/svg">
<path id="Vector" d="M1 21V13M1 13V3M1 13L3.47067 12.5059C5.1212 12.1758 6.83211 12.3328 8.39493 12.958C10.0885 13.6354 11.9524 13.7619 13.722 13.3195L13.8221 13.2945C14.4082 13.148 14.6861 12.4769 14.3753 11.9589L12.8147 9.35779C12.4732 8.78863 12.3024 8.50405 12.2619 8.1945C12.2451 8.06538 12.2451 7.93461 12.2619 7.80549C12.3024 7.49595 12.4732 7.21137 12.8147 6.64221L14.0932 4.51131C14.4278 3.9536 13.9211 3.26972 13.2901 3.42746C11.8013 3.79967 10.2331 3.69323 8.80821 3.12328L8.39493 2.95797C6.83211 2.33284 5.1212 2.17576 3.47067 2.50587L1 3M1 3V1" stroke="var(--stroke-0, #00776F)" stroke-width="2" stroke-linecap="round"/>
</svg>
