<svg preserveAspectRatio="none" width="100%" height="100%" overflow="visible" style="display: block;" viewBox="0 0 23.9264 23.0769" fill="none" xmlns="http://www.w3.org/2000/svg">
<path id="Vector" d="M9.04455 10.0825C4.60182 10.0825 1.00028 12.1083 1.00028 16.6074C1.00028 18.8809 1.00028 20.7628 7.05759 21.0839M14.5983 11.8571H16.1794C19.9055 11.8571 22.9261 13.5562 22.9261 17.3295C22.9261 19.2363 22.9261 20.8146 17.8458 21.0839H16.7316M12.0569 5.02213C12.0569 7.24349 10.2561 9.04426 8.03476 9.04426C5.8134 9.04426 4.01262 7.24349 4.01262 5.02213C4.01262 2.80077 5.8134 1 8.03476 1C10.2561 1 12.0569 2.80077 12.0569 5.02213ZM13.653 7.61302C13.653 9.47606 15.1632 10.9863 17.0263 10.9863C18.8893 10.9863 20.3996 9.47606 20.3996 7.61302C20.3996 5.74998 18.8893 4.23969 17.0263 4.23969C15.1632 4.23969 13.653 5.74998 13.653 7.61302ZM14.5823 12.4581C14.5823 13.8898 13.4216 15.0505 11.9899 15.0505C10.5581 15.0505 9.39741 13.8898 9.39741 12.4581C9.39741 11.0263 10.5581 9.86562 11.9899 9.86562C13.4216 9.86562 14.5823 11.0263 14.5823 12.4581ZM17.1748 19.1604C17.1748 20.7711 17.1748 22.0769 11.9899 22.0769C6.80497 22.0769 6.80497 20.7711 6.80497 19.1604C6.80497 17.5497 9.12632 16.2439 11.9899 16.2439C14.8534 16.2439 17.1748 17.5497 17.1748 19.1604Z" stroke="var(--stroke-0, #00776F)" stroke-width="2" stroke-linecap="round" stroke-linejoin="round"/>
</svg>
