<svg width="24" height="24" viewBox="0 0 24 24" fill="none" xmlns="http://www.w3.org/2000/svg">
<path d="M6.16699 20.3334V13.6667M6.16699 13.6667V5.33341M6.16699 13.6667L8.22588 13.255C9.60132 12.9799 11.0271 13.1108 12.3294 13.6317C13.7407 14.1962 15.294 14.3017 16.7686 13.933L16.8521 13.9121C17.3405 13.79 17.5721 13.2308 17.3131 12.7991L16.0126 10.6316C15.728 10.1573 15.5857 9.92012 15.5519 9.66217C15.5379 9.55457 15.5379 9.44559 15.5519 9.33799C15.5857 9.08004 15.728 8.84289 16.0126 8.36859L17.078 6.59284C17.3569 6.12808 16.9346 5.55818 16.4088 5.68963C15.1681 5.9998 13.8612 5.91111 12.6738 5.43615L12.3294 5.29839C11.0271 4.77745 9.60132 4.64655 8.22588 4.92164L6.16699 5.33341M6.16699 5.33341V3.66675" stroke="#023432" stroke-width="2" stroke-linecap="round"/>
</svg>
