<svg width="24" height="24" viewBox="0 0 24 24" fill="none" xmlns="http://www.w3.org/2000/svg">
<path d="M9.79076 11.7096C9.40024 11.3191 8.76707 11.3191 8.37655 11.7096C7.98603 12.1002 7.98603 12.7333 8.37655 13.1239L9.08366 12.4167L9.79076 11.7096ZM10.7503 14.0834L10.0432 14.7905C10.2308 14.9781 10.4851 15.0834 10.7503 15.0834C11.0155 15.0834 11.2699 14.9781 11.4574 14.7905L10.7503 14.0834ZM15.6241 10.6239C16.0146 10.2333 16.0146 9.60016 15.6241 9.20964C15.2336 8.81911 14.6004 8.81911 14.2099 9.20964L14.917 9.91675L15.6241 10.6239ZM20.3337 12.0001H19.3337C19.3337 16.0502 16.0504 19.3334 12.0003 19.3334V20.3334V21.3334C17.155 21.3334 21.3337 17.1547 21.3337 12.0001H20.3337ZM12.0003 20.3334V19.3334C7.95024 19.3334 4.66699 16.0502 4.66699 12.0001H3.66699H2.66699C2.66699 17.1547 6.84567 21.3334 12.0003 21.3334V20.3334ZM3.66699 12.0001H4.66699C4.66699 7.94999 7.95024 4.66675 12.0003 4.66675V3.66675V2.66675C6.84567 2.66675 2.66699 6.84542 2.66699 12.0001H3.66699ZM12.0003 3.66675V4.66675C16.0504 4.66675 19.3337 7.94999 19.3337 12.0001H20.3337H21.3337C21.3337 6.84542 17.155 2.66675 12.0003 2.66675V3.66675ZM9.08366 12.4167L8.37655 13.1239L10.0432 14.7905L10.7503 14.0834L11.4574 13.3763L9.79076 11.7096L9.08366 12.4167ZM10.7503 14.0834L11.4574 14.7905L15.6241 10.6239L14.917 9.91675L14.2099 9.20964L10.0432 13.3763L10.7503 14.0834Z" fill="#023432"/>
</svg>
