<svg width="24" height="24" viewBox="0 0 24 24" fill="none" xmlns="http://www.w3.org/2000/svg">
<path d="M19 7.33333H16.5294M16.5294 7.33333H7.47064M16.5294 7.33333C16.4834 7.33333 16.4604 7.33333 16.4395 7.33283C15.7614 7.3166 15.1632 6.90937 14.9324 6.30692C14.9254 6.28845 14.918 6.26749 14.9035 6.22654L14.8235 6C14.7553 5.80663 14.7212 5.70992 14.6759 5.62782C14.4953 5.30028 14.1612 5.07283 13.7751 5.0146C13.6783 5 13.5704 5 13.3545 5H10.6456C10.4297 5 10.3218 5 10.225 5.0146C9.83889 5.07283 9.50476 5.30028 9.32417 5.62782C9.2789 5.70992 9.24477 5.80662 9.17652 6L9.09657 6.22654C9.08202 6.26775 9.07474 6.28839 9.06764 6.30692C8.83689 6.90937 8.23866 7.3166 7.56053 7.33283C7.53967 7.33333 7.51666 7.33333 7.47064 7.33333M7.47064 7.33333H5M17.6275 9.27778L17.2487 14.6438C17.1029 16.7087 17.03 17.7411 16.3177 18.3706C15.6053 19 14.5097 19 12.3185 19H11.6816C9.49036 19 8.39474 19 7.68238 18.3706C6.97002 17.7411 6.89714 16.7087 6.75138 14.6438L6.37261 9.27778M9.94122 11.2222L10.353 15.1111M14.0588 11.2222L13.6471 15.1111" stroke="#FF3F42" stroke-width="2" stroke-linecap="round"/>
</svg>
