<svg width="16" height="16" viewBox="0 0 13.5 13.5" fill="none" xmlns="http://www.w3.org/2000/svg">
<path d="M1.33579 12.1642L1.86612 11.6339L1.86612 11.6339L1.33579 12.1642ZM1.5 8.75C1.5 8.33579 1.16422 8 0.750002 8C0.335789 8 2.26498e-06 8.33579 2.26498e-06 8.75H0.750002H1.5ZM13.5 8.75C13.5 8.33579 13.1642 8 12.75 8C12.3358 8 12 8.33579 12 8.75H12.75H13.5ZM12.1642 12.1642L11.6339 11.6339L11.6339 11.6339L12.1642 12.1642ZM7.5 0.75C7.5 0.335786 7.16422 0 6.75 0C6.33579 0 6 0.335786 6 0.75H6.75H7.5ZM6.75 9.41667L6.19648 9.92274C6.33857 10.0781 6.53943 10.1667 6.75 10.1667C6.96057 10.1667 7.16144 10.0781 7.30352 9.92274L6.75 9.41667ZM9.97019 7.00608C10.2497 6.70038 10.2284 6.22598 9.92275 5.94648C9.61704 5.66698 9.14265 5.68822 8.86315 5.99392L9.41667 6.5L9.97019 7.00608ZM4.63686 5.99392C4.35736 5.68822 3.88296 5.66698 3.57726 5.94648C3.27156 6.22598 3.25032 6.70038 3.52981 7.00608L4.08334 6.5L4.63686 5.99392ZM8.75 12.75V12H4.75V12.75V13.5H8.75V12.75ZM4.75 12.75V12C3.78599 12 3.13843 11.9984 2.65539 11.9335C2.19393 11.8714 1.99644 11.7642 1.86612 11.6339L1.33579 12.1642L0.805458 12.6945C1.26093 13.15 1.82773 13.3357 2.45552 13.4201C3.06174 13.5016 3.8284 13.5 4.75 13.5V12.75ZM0.750002 8.75H2.26498e-06C2.26498e-06 9.67161 -0.00159055 10.4383 0.0799135 11.0445C0.164318 11.6723 0.349989 12.2391 0.805459 12.6945L1.33579 12.1642L1.86612 11.6339C1.7358 11.5036 1.62858 11.3061 1.56654 10.8446C1.5016 10.3616 1.5 9.71401 1.5 8.75H0.750002ZM12.75 8.75H12C12 9.71401 11.9984 10.3616 11.9335 10.8446C11.8714 11.3061 11.7642 11.5036 11.6339 11.6339L12.1642 12.1642L12.6945 12.6945C13.15 12.2391 13.3357 11.6723 13.4201 11.0445C13.5016 10.4383 13.5 9.67161 13.5 8.75H12.75ZM8.75 12.75V13.5C9.67161 13.5 10.4383 13.5016 11.0445 13.4201C11.6723 13.3357 12.2391 13.15 12.6945 12.6945L12.1642 12.1642L11.6339 11.6339C11.5036 11.7642 11.3061 11.8714 10.8446 11.9335C10.3616 11.9984 9.71401 12 8.75 12V12.75ZM6.75 0.75H6V9.41667H6.75H7.5V0.75H6.75ZM6.75 9.41667L7.30352 9.92274L9.97019 7.00608L9.41667 6.5L8.86315 5.99392L6.19648 8.91059L6.75 9.41667ZM6.75 9.41667L7.30352 8.91059L4.63686 5.99392L4.08334 6.5L3.52981 7.00608L6.19648 9.92274L6.75 9.41667Z" fill="currentColor"/>
</svg>
