<svg width="20" height="20" viewBox="0 0 20 20" fill="none" xmlns="http://www.w3.org/2000/svg">
<path d="M11.573 4.71902L12.191 4.1011C13.2148 3.0773 14.8747 3.0773 15.8985 4.1011C16.9223 5.12491 16.9223 6.78482 15.8985 7.80862L15.2806 8.42654M11.573 4.71902C11.573 4.71902 11.6503 6.0321 12.8089 7.1907C13.9675 8.3493 15.2806 8.42654 15.2806 8.42654M11.573 4.71902L5.89222 10.3998C5.50745 10.7846 5.31506 10.977 5.14961 11.1891C4.95443 11.4394 4.7871 11.7101 4.65057 11.9966C4.53483 12.2394 4.44879 12.4976 4.27671 13.0138L3.54755 15.2013M15.2806 8.42654L9.59974 14.1074C9.21496 14.4921 9.02258 14.6845 8.81045 14.85C8.56022 15.0452 8.28947 15.2125 8.00299 15.349C7.76014 15.4648 7.50202 15.5508 6.98579 15.7229L4.79829 16.452M4.79829 16.452L4.26357 16.6303C4.00953 16.715 3.72945 16.6488 3.5401 16.4595C3.35074 16.2701 3.28463 15.9901 3.36931 15.736L3.54755 15.2013M4.79829 16.452L3.54755 15.2013" stroke="#00776F" stroke-width="1.5" stroke-linecap="round" stroke-linejoin="round"/>
</svg>
