<svg width="24" height="24" viewBox="0 0 24 24" fill="none" xmlns="http://www.w3.org/2000/svg">
<path d="M2 9.21568V12.0456C2 13.558 3.23508 14.7841 4.75862 14.7841H15.7931C17.3166 14.7841 18.5517 13.558 18.5517 12.0456V9.21568M2 9.21568H18.5517M2 9.21568L2 5.10779C2 2.83905 3.8526 0.999908 6.13793 0.999908H8.89655V9.21568M18.5517 9.21568L18.5517 6.47709C18.5517 5.72087 19.1693 5.10779 19.931 5.10779H22M7.13198 19.752L10.2758 17.5227L13.4198 19.752M10.2759 14.7841V17.5228M14.4138 6.19338L12.0593 3.85595C11.5205 3.32106 11.5205 2.45457 12.0593 1.91967C12.5981 1.38478 13.4709 1.38478 14.0097 1.91967L14.4138 2.32083L14.8179 1.91967C15.3567 1.38478 16.2295 1.38478 16.7683 1.91967C17.3071 2.45457 17.3071 3.32106 16.7683 3.85595L14.4138 6.19338ZM7.51724 20.946C7.51724 22.0803 6.59094 22.9999 5.44828 22.9999C4.30561 22.9999 3.37931 22.0803 3.37931 20.946C3.37931 19.8116 4.30561 18.892 5.44828 18.892C6.59094 18.892 7.51724 19.8116 7.51724 20.946ZM17.1724 20.946C17.1724 22.0803 16.2461 22.9999 15.1034 22.9999C13.9608 22.9999 13.0345 22.0803 13.0345 20.946C13.0345 19.8116 13.9608 18.892 15.1034 18.892C16.2461 18.892 17.1724 19.8116 17.1724 20.946Z" stroke="#023432" stroke-width="2" stroke-linecap="round" stroke-linejoin="round"/>
</svg>
