<svg preserveAspectRatio="none" width="100%" height="100%" overflow="visible" style="display: block;" viewBox="0 0 22 22" fill="none" xmlns="http://www.w3.org/2000/svg">
<path id="Vector" d="M18 17H19V17H18ZM4 13.584H5C5 13.1865 4.7646 12.8267 4.40037 12.6676L4 13.584ZM18 13.584L17.5996 12.6676C17.2354 12.8267 17 13.1865 17 13.584H18ZM14.5 6C14.5 6.55228 14.9477 7 15.5 7C16.0523 7 16.5 6.55228 16.5 6H15.5H14.5ZM5.5 6C5.5 6.55228 5.94771 7 6.5 7C7.05228 7 7.5 6.55228 7.5 6H6.5H5.5ZM6 4V3C2.68629 3 0 5.68629 0 9H1H2C2 6.79086 3.79086 5 6 5V4ZM16 4V5C18.2091 5 20 6.79086 20 9H21H22C22 5.68629 19.3137 3 16 3V4ZM14 21V20H8V21V22H14V21ZM8 21V20C7.02892 20 6.40121 19.9979 5.9387 19.9357C5.50496 19.8774 5.36902 19.7832 5.29289 19.7071L4.58578 20.4142L3.87868 21.1213C4.38834 21.631 5.01669 21.8297 5.67221 21.9179C6.29896 22.0021 7.08546 22 8 22V21ZM4 17H3C3 17.9145 2.99787 18.701 3.08214 19.3278C3.17027 19.9833 3.36902 20.6117 3.87868 21.1213L4.58578 20.4142L5.29289 19.7071C5.21677 19.631 5.12262 19.495 5.0643 19.0613C5.00212 18.5988 5 17.9711 5 17H4ZM18 17H17C17 17.9711 16.9979 18.5988 16.9357 19.0613C16.8774 19.495 16.7832 19.631 16.7071 19.7071L17.4142 20.4142L18.1213 21.1213C18.631 20.6117 18.8297 19.9833 18.9179 19.3278C19.0021 18.701 19 17.9145 19 17H18ZM14 21V22C14.9145 22 15.701 22.0021 16.3278 21.9179C16.9833 21.8297 17.6117 21.631 18.1213 21.1213L17.4142 20.4142L16.7071 19.7071C16.631 19.7832 16.495 19.8774 16.0613 19.9357C15.5988 19.9979 14.9711 20 14 20V21ZM6 4V5C6.20142 5 6.39876 5.01481 6.59114 5.04324L6.73736 4.05399L6.88358 3.06474C6.5947 3.02204 6.29961 3 6 3V4ZM11 1V0C8.57913 0 6.52602 1.56344 5.79033 3.73283L6.73736 4.05399L7.68439 4.37514C8.15321 2.99267 9.46198 2 11 2V1ZM6.73736 4.05399L5.79033 3.73283C5.60181 4.28875 5.5 4.88352 5.5 5.5H6.5H7.5C7.5 5.10481 7.5651 4.72688 7.68439 4.37514L6.73736 4.05399ZM16 4V3C15.7004 3 15.4053 3.02204 15.1164 3.06474L15.2626 4.05399L15.4088 5.04324C15.6012 5.01481 15.7986 5 16 5V4ZM11 1V2C12.538 2 13.8468 2.99267 14.3156 4.37514L15.2626 4.05399L16.2097 3.73284C15.474 1.56344 13.4209 0 11 0V1ZM15.2626 4.05399L14.3156 4.37514C14.4349 4.72688 14.5 5.10481 14.5 5.5H15.5H16.5C16.5 4.88352 16.3982 4.28875 16.2097 3.73284L15.2626 4.05399ZM4 17H5V13.584H4H3V17H4ZM4 13.584L4.40037 12.6676C2.98556 12.0494 2 10.6387 2 9H1H0C0 11.4619 1.48263 13.5753 3.59963 14.5003L4 13.584ZM18 13.584H17L17 17H18H19L19 13.584H18ZM21 9H20C20 10.6387 19.0144 12.0494 17.5996 12.6676L18 13.584L18.4004 14.5003C20.5174 13.5754 22 11.4619 22 9H21ZM15.5 5.5H14.5V6H15.5H16.5V5.5H15.5ZM6.5 5.5H5.5V6H6.5H7.5V5.5H6.5ZM4 17V18H18V17V16H4V17Z" fill="var(--stroke-0, #023432)"/>
</svg>
