<svg width="24" height="24" viewBox="0 0 24 24" fill="none" xmlns="http://www.w3.org/2000/svg">
<path d="M7.5 18.6667C8.15503 20.4144 9.92246 22 12 22C14.0775 22 15.845 20.4144 16.5 18.6667M14.8771 2.66656C14.0044 2.23905 13.0291 2 12 2C8.27256 2 5.25087 5.13623 5.25087 9.00496V9.70956C5.25087 10.5552 5.00972 11.3818 4.5578 12.0854L3.45036 13.8095C2.43882 15.3843 3.21105 17.5249 4.97036 18.0229C9.57274 19.3257 14.4273 19.3257 19.0296 18.0229C20.789 17.5249 21.5612 15.3843 20.5496 13.8095L19.4422 12.0854C19.1023 11.5562 18.8816 10.9574 18.7931 10.3332L18.6667 9.66656M22 5C22 6.65685 20.6569 8 19 8C17.3432 8 16 6.65685 16 5C16 3.34315 17.3432 2 19 2C20.6569 2 22 3.34315 22 5Z" stroke="#00776F" stroke-width="2" stroke-linecap="round" stroke-linejoin="round"/>
</svg>
