<svg width="31" height="31" viewBox="0 0 31 31" fill="none" xmlns="http://www.w3.org/2000/svg">
<path d="M3.78125 8.82316V6.30233C3.78125 5.63376 4.04684 4.99258 4.51958 4.51983C4.99233 4.04708 5.63352 3.78149 6.30208 3.78149H8.82292" stroke="#023432" stroke-width="2" stroke-linecap="round" stroke-linejoin="round"/>
<path d="M21.4272 3.78149H23.9481C24.6166 3.78149 25.2578 4.04708 25.7306 4.51983C26.2033 4.99258 26.4689 5.63376 26.4689 6.30233V8.82316" stroke="#023432" stroke-width="2" stroke-linecap="round" stroke-linejoin="round"/>
<path d="M26.4689 21.4268V23.9476C26.4689 24.6162 26.2033 25.2573 25.7306 25.7301C25.2578 26.2028 24.6166 26.4684 23.9481 26.4684H21.4272" stroke="#023432" stroke-width="2" stroke-linecap="round" stroke-linejoin="round"/>
<path d="M8.82292 26.4684H6.30208C5.63352 26.4684 4.99233 26.2028 4.51958 25.7301C4.04684 25.2573 3.78125 24.6162 3.78125 23.9476V21.4268" stroke="#023432" stroke-width="2" stroke-linecap="round" stroke-linejoin="round"/>
<path d="M10.083 8.82324V21.4274" stroke="#023432" stroke-width="2" stroke-linecap="round" stroke-linejoin="round"/>
<path d="M15.1245 8.82324V21.4274" stroke="#023432" stroke-width="2" stroke-linecap="round" stroke-linejoin="round"/>
<path d="M20.1665 8.82324V21.4274" stroke="#023432" stroke-width="2" stroke-linecap="round" stroke-linejoin="round"/>
</svg>
