<svg width="31" height="31" viewBox="0 0 31 31" fill="none" xmlns="http://www.w3.org/2000/svg">
<path d="M17.6449 7.56197C17.6449 10.3463 15.3877 12.6034 12.6034 12.6034C9.8191 12.6034 7.56197 10.3463 7.56197 7.56197C7.56197 4.77765 9.8191 2.52051 12.6034 2.52051C15.3877 2.52051 17.6449 4.77765 17.6449 7.56197Z" stroke="#023432" stroke-width="2" stroke-linecap="round" stroke-linejoin="round"/>
<path d="M22.6863 22.0562C22.6863 25.1885 22.6863 27.7278 12.6034 27.7278C2.52051 27.7278 2.52051 25.1885 2.52051 22.0562C2.52051 18.9238 7.03478 16.3845 12.6034 16.3845C18.1721 16.3845 22.6863 18.9238 22.6863 22.0562Z" stroke="#023432" stroke-width="2" stroke-linecap="round" stroke-linejoin="round"/>
<path d="M20.1656 12.225C20.1656 14.0051 21.6854 14.9537 22.7979 15.8028C23.1905 16.1024 23.5686 16.3845 23.9467 16.3845C24.3248 16.3845 24.7029 16.1024 25.0955 15.8028C26.208 14.9537 27.7278 14.0051 27.7278 12.225C27.7278 10.4448 25.6481 9.18238 23.9467 10.8938C22.2453 9.18238 20.1656 10.4448 20.1656 12.225Z" stroke="#023432" stroke-width="2" stroke-linecap="round" stroke-linejoin="round"/>
</svg>
