<svg width="31" height="31" viewBox="0 0 31 31" fill="none" xmlns="http://www.w3.org/2000/svg">
<path d="M21.428 19.0179L20.7609 18.2729V18.2729L21.428 19.0179ZM8.82122 19.0179L9.4883 18.2729H9.4883L8.82122 19.0179ZM11.1303 21.1499L10.3533 21.7795H10.3534L11.1303 21.1499ZM11.9257 22.9298L10.9384 23.0886V23.0886L11.9257 22.9298ZM19.1189 21.1499L19.8959 21.7795L19.8959 21.7795L19.1189 21.1499ZM18.3235 22.9298L19.3108 23.0886V23.0886L18.3235 22.9298ZM12.919 27.4748L12.419 28.3408H12.419L12.919 27.4748ZM12.227 26.7828L13.093 26.2828L13.093 26.2828L12.227 26.7828ZM18.0222 26.7828L17.1562 26.2828L17.1562 26.2828L18.0222 26.7828ZM17.3303 27.4748L16.8302 26.6087V26.6087L17.3303 27.4748ZM14.1246 21.4262C14.1246 21.9785 14.5723 22.4262 15.1246 22.4262C15.6769 22.4262 16.1246 21.9785 16.1246 21.4262H15.1246H14.1246ZM18.1737 18.1459C18.4503 17.6678 18.2869 17.0561 17.8088 16.7795C17.3308 16.503 16.7191 16.6663 16.4425 17.1444L17.3081 17.6451L18.1737 18.1459ZM13.8067 17.1444C13.5302 16.6663 12.9184 16.503 12.4404 16.7795C11.9623 17.0561 11.799 17.6678 12.0755 18.1459L12.9411 17.6451L13.8067 17.1444ZM5.67188 11.9735H6.67188C6.67188 7.30517 10.4563 3.52075 15.1246 3.52075V2.52075V1.52075C9.35172 1.52075 4.67188 6.2006 4.67188 11.9735H5.67188ZM15.1246 2.52075V3.52075C19.7929 3.52075 23.5773 7.30517 23.5773 11.9735H24.5773H25.5773C25.5773 6.2006 20.8975 1.52075 15.1246 1.52075V2.52075ZM24.5773 11.9735H23.5773C23.5773 14.4761 22.491 16.7237 20.7609 18.2729L21.428 19.0179L22.0951 19.7628C24.2309 17.8504 25.5773 15.0685 25.5773 11.9735H24.5773ZM8.82122 19.0179L9.4883 18.2729C7.75823 16.7237 6.67188 14.4761 6.67188 11.9735H5.67188H4.67188C4.67188 15.0685 6.01829 17.8504 8.15414 19.7628L8.82122 19.0179ZM18.2755 24.5771V23.5771H11.9737V24.5771V25.5771H18.2755V24.5771ZM8.82122 19.0179L8.15414 19.7628C8.86244 20.3971 9.3868 20.8666 9.75832 21.2072C9.94408 21.3775 10.0857 21.5102 10.1901 21.6119C10.2421 21.6625 10.2815 21.7023 10.3107 21.7329C10.3252 21.748 10.3359 21.7596 10.3435 21.7681C10.3513 21.7768 10.3541 21.7804 10.3533 21.7795L11.1303 21.1499L11.9072 20.5203C11.7552 20.3327 11.4675 20.0609 11.1099 19.733C10.7275 19.3825 10.1925 18.9034 9.4883 18.2729L8.82122 19.0179ZM11.9737 24.5771H12.9737C12.9737 23.7277 12.9772 23.1702 12.913 22.771L11.9257 22.9298L10.9384 23.0886C10.9702 23.2861 10.9737 23.6279 10.9737 24.5771H11.9737ZM11.1303 21.1499L10.3534 21.7795C10.6825 22.1856 10.7483 22.2842 10.787 22.371C10.8258 22.4577 10.8554 22.5725 10.9384 23.0886L11.9257 22.9298L12.913 22.771C12.8412 22.3249 12.7799 21.9283 12.613 21.555C12.4462 21.1816 12.1916 20.8713 11.9072 20.5203L11.1303 21.1499ZM21.428 19.0179L20.7609 18.2729C20.0567 18.9034 19.5217 19.3825 19.1394 19.733C18.7817 20.0609 18.494 20.3327 18.342 20.5203L19.1189 21.1499L19.8959 21.7795C19.8951 21.7804 19.898 21.7768 19.9058 21.7681C19.9134 21.7596 19.9241 21.748 19.9385 21.7329C19.9677 21.7023 20.0072 21.6625 20.0592 21.6119C20.1635 21.5102 20.3051 21.3775 20.4909 21.2072C20.8624 20.8666 21.3868 20.3971 22.0951 19.7628L21.428 19.0179ZM18.2755 24.5771H19.2755C19.2755 23.6279 19.2791 23.2861 19.3108 23.0886L18.3235 22.9298L17.3362 22.771C17.272 23.1702 17.2755 23.7277 17.2755 24.5771H18.2755ZM19.1189 21.1499L18.342 20.5203C18.0576 20.8713 17.8031 21.1816 17.6362 21.555C17.4694 21.9283 17.408 22.3249 17.3362 22.771L18.3235 22.9298L19.3108 23.0886C19.3939 22.5725 19.4234 22.4577 19.4622 22.371C19.5009 22.2842 19.5667 22.1856 19.8959 21.7795L19.1189 21.1499ZM15.1246 27.728V26.728C14.5172 26.728 14.1286 26.7271 13.8348 26.7005C13.5549 26.6751 13.4608 26.6329 13.419 26.6087L12.919 27.4748L12.419 28.3408C12.8159 28.5699 13.2356 28.6544 13.6543 28.6923C14.0592 28.729 14.554 28.728 15.1246 28.728V27.728ZM11.9737 24.5771H10.9737C10.9737 25.1477 10.9727 25.6425 11.0094 26.0474C11.0474 26.4661 11.1318 26.8859 11.361 27.2828L12.227 26.7828L13.093 26.2828C13.0689 26.241 13.0267 26.1469 13.0013 25.8669C12.9747 25.5732 12.9737 25.1845 12.9737 24.5771H11.9737ZM12.919 27.4748L13.419 26.6087C13.2836 26.5306 13.1712 26.4181 13.093 26.2828L12.227 26.7828L11.361 27.2828C11.6147 27.7222 11.9796 28.0871 12.419 28.3408L12.919 27.4748ZM18.2755 24.5771H17.2755C17.2755 25.1845 17.2746 25.5732 17.2479 25.8669C17.2226 26.1469 17.1803 26.241 17.1562 26.2828L18.0222 26.7828L18.8883 27.2828C19.1174 26.8859 19.2018 26.4661 19.2398 26.0474C19.2765 25.6425 19.2755 25.1477 19.2755 24.5771H18.2755ZM15.1246 27.728V28.728C15.6952 28.728 16.19 28.729 16.5949 28.6923C17.0136 28.6544 17.4333 28.5699 17.8303 28.3408L17.3303 27.4748L16.8302 26.6087C16.7885 26.6329 16.6944 26.6751 16.4144 26.7005C16.1207 26.7271 15.732 26.728 15.1246 26.728V27.728ZM18.0222 26.7828L17.1562 26.2828C17.0781 26.4181 16.9656 26.5306 16.8302 26.6087L17.3303 27.4748L17.8303 28.3408C18.2697 28.0871 18.6346 27.7222 18.8883 27.2828L18.0222 26.7828ZM15.1246 21.4262H16.1246V18.9055H15.1246H14.1246V21.4262H15.1246ZM17.3081 17.6451L16.4425 17.1444C16.1781 17.6016 15.6862 17.9055 15.1246 17.9055V18.9055V19.9055C16.429 19.9055 17.5665 19.1956 18.1737 18.1459L17.3081 17.6451ZM15.1246 18.9055V17.9055C14.563 17.9055 14.0712 17.6016 13.8067 17.1444L12.9411 17.6451L12.0755 18.1459C12.6827 19.1956 13.8202 19.9055 15.1246 19.9055V18.9055Z" fill="#023432"/>
</svg>
