<svg width="31" height="31" viewBox="0 0 31 31" fill="none" xmlns="http://www.w3.org/2000/svg">
<path d="M15.7543 7.56225C17.8258 7.57896 19.5187 9.27182 19.5354 11.3433M15.1241 25.6487C15.5289 25.6487 15.7314 25.6487 15.8719 25.6211C16.6953 25.4592 17.1964 24.6473 16.9531 23.8693C16.9115 23.7365 16.8155 23.5641 16.6235 23.2193M15.1241 25.6487C14.7193 25.6487 14.5169 25.6487 14.3763 25.6211C13.553 25.4592 13.0519 24.6473 13.2952 23.8693C13.3368 23.7365 13.4328 23.5641 13.6248 23.2193M15.1241 25.6487V28.3582M24.6527 12.357C24.6949 17.7458 20.3445 22.7298 15.124 22.6863C9.90359 22.6428 5.79 17.5883 5.74787 12.1995C5.70575 6.81079 9.90359 2.47759 15.124 2.52108C20.3445 2.56456 24.6106 6.96826 24.6527 12.357Z" stroke="#023432" stroke-width="2" stroke-linecap="round" stroke-linejoin="round"/>
</svg>
